M48
; DRILL file {KiCad (5.1.2)-1} date 5/20/2019 8:06:16 PM
; FORMAT={2:4/ absolute / inch / suppress leading zeros}
; #@! TF.CreationDate,2019-05-20T20:06:16-05:00
; #@! TF.GenerationSoftware,Kicad,Pcbnew,(5.1.2)-1
; #@! TF.FileFunction,Plated,1,2,PTH
FMAT,2
INCH,TZ
T1C0.0157
T2C0.0197
T3C0.0236
T4C0.0276
T5C0.0300
T6C0.0315
T7C0.0394
T8C0.0433
T9C0.0520
T10C0.1260
%
G90
G05
T1
X7000Y-16800
X8600Y-16600
X12600Y-15515
X16600Y-16700
X18200Y-16600
X18250Y-26750
X21700Y-28000
X22400Y-27900
X22800Y-29600
X22900Y-15900
X23750Y-34750
X24000Y-25200
X25702Y-30798
X25900Y-16500
X27400Y-16400
X35400Y-16300
X36000Y-27400
X36750Y-32000
X36900Y-16300
X37000Y-22200
X37900Y-21600
X38900Y-21900
T2
X26055Y-9400
X26332Y-8732
X26332Y-10068
X27000Y-8455
X27000Y-10345
X27668Y-8732
X27668Y-10068
X27945Y-9400
X41055Y-34700
X41332Y-34032
X41332Y-35368
X42000Y-33755
X42000Y-35645
X42668Y-34032
X42668Y-35368
X42945Y-34700
X7455Y-34800
X7732Y-34132
X7732Y-35468
X8400Y-33855
X8400Y-35745
X9068Y-34132
X9068Y-35468
X9345Y-34800
T3
X28213Y-31000
X29000Y-31000
X26513Y-22100
X27300Y-22100
X25000Y-29000
X25787Y-29000
X24613Y-22100
X25400Y-22100
T4
X20500Y-8000
X22500Y-8000
X31000Y-34500
X31000Y-36500
X31500Y-8000
X33500Y-8000
X22500Y-31000
X22500Y-33000
X31000Y-31500
X31000Y-33500
X25000Y-36000
X27000Y-36000
X37500Y-8000
X39500Y-8000
X14500Y-8000
X16500Y-8000
T5
X29351Y-12239
X29475Y-13267
X29718Y-11270
X30065Y-14120
X30496Y-10587
X30982Y-14602
X31500Y-10335
X32019Y-14602
X32504Y-10587
X32936Y-14120
X33282Y-11270
X33525Y-13267
X33649Y-12239
X37369Y-12137
X37493Y-13165
X37736Y-11168
X38082Y-14018
X38514Y-10484
X39000Y-14500
X39518Y-10232
X40036Y-14500
X40522Y-10484
X40954Y-14018
X41300Y-11168
X41543Y-13165
X41667Y-12137
X12351Y-12239
X12475Y-13267
X12718Y-11270
X13065Y-14120
X13496Y-10587
X13982Y-14602
X14500Y-10335
X15019Y-14602
X15504Y-10587
X15936Y-14120
X16282Y-11270
X16525Y-13267
X16649Y-12239
X20351Y-12239
X20475Y-13267
X20718Y-11270
X21065Y-14120
X21496Y-10587
X21982Y-14602
X22500Y-10335
X23019Y-14602
X23504Y-10587
X23936Y-14120
X24282Y-11270
X24525Y-13267
X24649Y-12239
T6
X8500Y-23500
X8500Y-26500
X9500Y-23500
X9500Y-26500
X10500Y-23500
X10500Y-26500
X11500Y-23500
X11500Y-26500
X12500Y-23500
X12500Y-26500
X13500Y-23500
X13500Y-26500
X14500Y-23500
X14500Y-26500
X15500Y-23500
X15500Y-26500
X26500Y-17500
X26500Y-20500
X27500Y-17500
X27500Y-20500
X28500Y-17500
X28500Y-20500
X29500Y-17500
X29500Y-20500
X30500Y-17500
X30500Y-20500
X31500Y-17500
X31500Y-20500
X32500Y-17500
X32500Y-20500
X33500Y-17500
X33500Y-20500
X7500Y-17500
X7500Y-20500
X8500Y-17500
X8500Y-20500
X9500Y-17500
X9500Y-20500
X10500Y-17500
X10500Y-20500
X11500Y-17500
X11500Y-20500
X12500Y-17500
X12500Y-20500
X13500Y-17500
X13500Y-20500
X14500Y-17500
X14500Y-20500
X19000Y-23500
X19000Y-26500
X20000Y-23500
X20000Y-26500
X21000Y-23500
X21000Y-26500
X22000Y-23500
X22000Y-26500
X23000Y-23500
X23000Y-26500
X24000Y-23500
X24000Y-26500
X25000Y-23500
X25000Y-26500
X26000Y-23500
X26000Y-26500
X27000Y-23500
X27000Y-26500
X28000Y-23500
X28000Y-26500
X29000Y-23500
X29000Y-26500
X30000Y-23500
X30000Y-26500
X31000Y-23500
X31000Y-26500
X32000Y-23500
X32000Y-26500
X17000Y-17500
X17000Y-20500
X18000Y-17500
X18000Y-20500
X19000Y-17500
X19000Y-20500
X20000Y-17500
X20000Y-20500
X21000Y-17500
X21000Y-20500
X22000Y-17500
X22000Y-20500
X23000Y-17500
X23000Y-20500
X24000Y-17500
X24000Y-20500
X28000Y-28500
X29921Y-28500
X36000Y-17500
X36000Y-20500
X37000Y-17500
X37000Y-20500
X38000Y-17500
X38000Y-20500
X39000Y-17500
X39000Y-20500
X40000Y-17500
X40000Y-20500
X41000Y-17500
X41000Y-20500
X42000Y-17500
X42000Y-20500
X43000Y-17500
X43000Y-20500
X36000Y-23500
X36000Y-26500
X37000Y-23500
X37000Y-26500
X38000Y-23500
X38000Y-26500
X39000Y-23500
X39000Y-26500
X40000Y-23500
X40000Y-26500
X41000Y-23500
X41000Y-26500
X42000Y-23500
X42000Y-26500
X43000Y-23500
X43000Y-26500
T7
X25000Y-33000
X25000Y-34000
X26000Y-33000
X26000Y-34000
X27000Y-33000
X27000Y-34000
X28000Y-33000
X28000Y-34000
X28500Y-36000
X29500Y-36000
X33000Y-30500
X34000Y-30500
X35000Y-30500
X36000Y-30500
X37000Y-30500
X38000Y-30500
X33000Y-28500
X34000Y-28500
X35000Y-28500
X36000Y-28500
X37000Y-28500
X38000Y-28500
X24000Y-31500
X25000Y-31500
T8
X19228Y-28500
X19228Y-31059
X21000Y-28500
X21000Y-31059
X14400Y-28800
X15400Y-28800
X16400Y-28800
X21100Y-32900
X21100Y-33900
X21100Y-34900
T9
X7531Y-9600
X9500Y-9600
X9500Y-29000
X9500Y-30969
T10
X27000Y-9400
X42000Y-34700
X8400Y-34800
T0
M30
