G04 #@! TF.GenerationSoftware,KiCad,Pcbnew,(5.1.2)-1*
G04 #@! TF.CreationDate,2019-05-20T20:05:41-05:00*
G04 #@! TF.ProjectId,Nixie Tube Clock,4e697869-6520-4547-9562-6520436c6f63,rev?*
G04 #@! TF.SameCoordinates,Original*
G04 #@! TF.FileFunction,Legend,Top*
G04 #@! TF.FilePolarity,Positive*
%FSLAX46Y46*%
G04 Gerber Fmt 4.6, Leading zero omitted, Abs format (unit mm)*
G04 Created by KiCad (PCBNEW (5.1.2)-1) date 2019-05-20 20:05:41*
%MOMM*%
%LPD*%
G04 APERTURE LIST*
%ADD10C,0.300000*%
%ADD11C,0.010000*%
%ADD12C,0.120000*%
%ADD13C,0.150000*%
G04 APERTURE END LIST*
D10*
X109705285Y-70446000D02*
X109633857Y-70374571D01*
X109562428Y-70160285D01*
X109562428Y-70017428D01*
X109633857Y-69803142D01*
X109776714Y-69660285D01*
X109919571Y-69588857D01*
X110205285Y-69517428D01*
X110419571Y-69517428D01*
X110705285Y-69588857D01*
X110848142Y-69660285D01*
X110991000Y-69803142D01*
X111062428Y-70017428D01*
X111062428Y-70160285D01*
X110991000Y-70374571D01*
X110919571Y-70446000D01*
X109562428Y-71731714D02*
X110348142Y-71731714D01*
X110491000Y-71660285D01*
X110562428Y-71517428D01*
X110562428Y-71231714D01*
X110491000Y-71088857D01*
X109633857Y-71731714D02*
X109562428Y-71588857D01*
X109562428Y-71231714D01*
X109633857Y-71088857D01*
X109776714Y-71017428D01*
X109919571Y-71017428D01*
X110062428Y-71088857D01*
X110133857Y-71231714D01*
X110133857Y-71588857D01*
X110205285Y-71731714D01*
X109562428Y-72660285D02*
X109633857Y-72517428D01*
X109776714Y-72446000D01*
X111062428Y-72446000D01*
X110562428Y-73088857D02*
X109562428Y-73446000D01*
X110562428Y-73803142D01*
X109562428Y-74374571D02*
X110562428Y-74374571D01*
X111062428Y-74374571D02*
X110991000Y-74303142D01*
X110919571Y-74374571D01*
X110991000Y-74446000D01*
X111062428Y-74374571D01*
X110919571Y-74374571D01*
X110562428Y-75088857D02*
X109562428Y-75088857D01*
X110419571Y-75088857D02*
X110491000Y-75160285D01*
X110562428Y-75303142D01*
X110562428Y-75517428D01*
X110491000Y-75660285D01*
X110348142Y-75731714D01*
X109562428Y-75731714D01*
X110348142Y-78088857D02*
X110348142Y-77588857D01*
X109562428Y-77588857D02*
X111062428Y-77588857D01*
X111062428Y-78303142D01*
X109562428Y-78874571D02*
X110562428Y-78874571D01*
X111062428Y-78874571D02*
X110991000Y-78803142D01*
X110919571Y-78874571D01*
X110991000Y-78946000D01*
X111062428Y-78874571D01*
X110919571Y-78874571D01*
X109633857Y-80160285D02*
X109562428Y-80017428D01*
X109562428Y-79731714D01*
X109633857Y-79588857D01*
X109776714Y-79517428D01*
X110348142Y-79517428D01*
X110491000Y-79588857D01*
X110562428Y-79731714D01*
X110562428Y-80017428D01*
X110491000Y-80160285D01*
X110348142Y-80231714D01*
X110205285Y-80231714D01*
X110062428Y-79517428D01*
X109562428Y-81088857D02*
X109633857Y-80946000D01*
X109776714Y-80874571D01*
X111062428Y-80874571D01*
X109562428Y-82303142D02*
X111062428Y-82303142D01*
X109633857Y-82303142D02*
X109562428Y-82160285D01*
X109562428Y-81874571D01*
X109633857Y-81731714D01*
X109705285Y-81660285D01*
X109848142Y-81588857D01*
X110276714Y-81588857D01*
X110419571Y-81660285D01*
X110491000Y-81731714D01*
X110562428Y-81874571D01*
X110562428Y-82160285D01*
X110491000Y-82303142D01*
X108369571Y-73374571D02*
X108441000Y-73446000D01*
X108512428Y-73588857D01*
X108512428Y-73946000D01*
X108441000Y-74088857D01*
X108369571Y-74160285D01*
X108226714Y-74231714D01*
X108083857Y-74231714D01*
X107869571Y-74160285D01*
X107012428Y-73303142D01*
X107012428Y-74231714D01*
X108512428Y-75160285D02*
X108512428Y-75303142D01*
X108441000Y-75446000D01*
X108369571Y-75517428D01*
X108226714Y-75588857D01*
X107941000Y-75660285D01*
X107583857Y-75660285D01*
X107298142Y-75588857D01*
X107155285Y-75517428D01*
X107083857Y-75446000D01*
X107012428Y-75303142D01*
X107012428Y-75160285D01*
X107083857Y-75017428D01*
X107155285Y-74946000D01*
X107298142Y-74874571D01*
X107583857Y-74803142D01*
X107941000Y-74803142D01*
X108226714Y-74874571D01*
X108369571Y-74946000D01*
X108441000Y-75017428D01*
X108512428Y-75160285D01*
X107012428Y-77088857D02*
X107012428Y-76231714D01*
X107012428Y-76660285D02*
X108512428Y-76660285D01*
X108298142Y-76517428D01*
X108155285Y-76374571D01*
X108083857Y-76231714D01*
X107012428Y-77803142D02*
X107012428Y-78088857D01*
X107083857Y-78231714D01*
X107155285Y-78303142D01*
X107369571Y-78446000D01*
X107655285Y-78517428D01*
X108226714Y-78517428D01*
X108369571Y-78446000D01*
X108441000Y-78374571D01*
X108512428Y-78231714D01*
X108512428Y-77946000D01*
X108441000Y-77803142D01*
X108369571Y-77731714D01*
X108226714Y-77660285D01*
X107869571Y-77660285D01*
X107726714Y-77731714D01*
X107655285Y-77803142D01*
X107583857Y-77946000D01*
X107583857Y-78231714D01*
X107655285Y-78374571D01*
X107726714Y-78446000D01*
X107869571Y-78517428D01*
D11*
G36*
X90211623Y-82507238D02*
G01*
X90310179Y-82587176D01*
X90385223Y-82656103D01*
X90468908Y-82733104D01*
X90551603Y-82805667D01*
X90604474Y-82849327D01*
X90663646Y-82898985D01*
X90693504Y-82935555D01*
X90690030Y-82960535D01*
X90649206Y-82975418D01*
X90567015Y-82981703D01*
X90439440Y-82980886D01*
X90267855Y-82974693D01*
X90107816Y-82968183D01*
X89990652Y-82965077D01*
X89905822Y-82966278D01*
X89842786Y-82972693D01*
X89791004Y-82985227D01*
X89739936Y-83004785D01*
X89697834Y-83023660D01*
X89600206Y-83072862D01*
X89490998Y-83135029D01*
X89380000Y-83203650D01*
X89277004Y-83272218D01*
X89191799Y-83334224D01*
X89134176Y-83383158D01*
X89113895Y-83411867D01*
X89135158Y-83452533D01*
X89147316Y-83459332D01*
X89183325Y-83457536D01*
X89262079Y-83445038D01*
X89374317Y-83423583D01*
X89510778Y-83394917D01*
X89627195Y-83368877D01*
X89809465Y-83328323D01*
X89944574Y-83302069D01*
X90036996Y-83290524D01*
X90091208Y-83294097D01*
X90111686Y-83313197D01*
X90102905Y-83348231D01*
X90069341Y-83399610D01*
X90062539Y-83408629D01*
X90020940Y-83466541D01*
X89997864Y-83505216D01*
X89996211Y-83510743D01*
X90020561Y-83518936D01*
X90084066Y-83525302D01*
X90163316Y-83528237D01*
X90281021Y-83532665D01*
X90401734Y-83541479D01*
X90464106Y-83548290D01*
X90545594Y-83562905D01*
X90586004Y-83582990D01*
X90597719Y-83615098D01*
X90597790Y-83619020D01*
X90572205Y-83661296D01*
X90495286Y-83690861D01*
X90366782Y-83707786D01*
X90263579Y-83711922D01*
X90169807Y-83716651D01*
X90114970Y-83733897D01*
X90092415Y-83773858D01*
X90095490Y-83846731D01*
X90113309Y-83942280D01*
X90159856Y-84227059D01*
X90174250Y-84472449D01*
X90157038Y-84673341D01*
X90089585Y-84915168D01*
X89979958Y-85126872D01*
X89827384Y-85309115D01*
X89631090Y-85462556D01*
X89390303Y-85587855D01*
X89104253Y-85685673D01*
X88921180Y-85729276D01*
X88765689Y-85751886D01*
X88575831Y-85765115D01*
X88369425Y-85768987D01*
X88164289Y-85763524D01*
X87978240Y-85748748D01*
X87843895Y-85727939D01*
X87664382Y-85680754D01*
X87521904Y-85619273D01*
X87400323Y-85534842D01*
X87298655Y-85435624D01*
X87185940Y-85295963D01*
X87101229Y-85157235D01*
X87049232Y-85029030D01*
X87034661Y-84920942D01*
X87036700Y-84902289D01*
X87042068Y-84841134D01*
X87035860Y-84810233D01*
X87033425Y-84809315D01*
X87009843Y-84829706D01*
X86967120Y-84882639D01*
X86923661Y-84943458D01*
X86857704Y-85037015D01*
X86810182Y-85092194D01*
X86771289Y-85116028D01*
X86731221Y-85115549D01*
X86698454Y-85104982D01*
X86623554Y-85050647D01*
X86549904Y-84947397D01*
X86480264Y-84799769D01*
X86435321Y-84672269D01*
X86409137Y-84580852D01*
X86391431Y-84494084D01*
X86380687Y-84397823D01*
X86375388Y-84277922D01*
X86374017Y-84120238D01*
X86374040Y-84100737D01*
X86377604Y-84006574D01*
X86537630Y-84006574D01*
X86543063Y-84224399D01*
X86593775Y-84448316D01*
X86628161Y-84543143D01*
X86666448Y-84626014D01*
X86701682Y-84683468D01*
X86724963Y-84702316D01*
X86753124Y-84689732D01*
X86805888Y-84659268D01*
X86808783Y-84657485D01*
X87012846Y-84527321D01*
X87173989Y-84413368D01*
X87297724Y-84309171D01*
X87389562Y-84208273D01*
X87455014Y-84104215D01*
X87499591Y-83990541D01*
X87528805Y-83860795D01*
X87537291Y-83803939D01*
X87570065Y-83647827D01*
X87620903Y-83541777D01*
X87691185Y-83485045D01*
X87782293Y-83476888D01*
X87895607Y-83516564D01*
X87979343Y-83566000D01*
X88054694Y-83614574D01*
X88111324Y-83648403D01*
X88135179Y-83659579D01*
X88143640Y-83637325D01*
X88134534Y-83579675D01*
X88111557Y-83500296D01*
X88078405Y-83412858D01*
X88054289Y-83360448D01*
X87970226Y-83234363D01*
X87855606Y-83139429D01*
X87700999Y-83068295D01*
X87663748Y-83056059D01*
X87559645Y-83028716D01*
X87472821Y-83022038D01*
X87372076Y-83034126D01*
X87354819Y-83037257D01*
X87151269Y-83092530D01*
X86983556Y-83179127D01*
X86843654Y-83303263D01*
X86723534Y-83471157D01*
X86672105Y-83566000D01*
X86580336Y-83790578D01*
X86537630Y-84006574D01*
X86377604Y-84006574D01*
X86384146Y-83833787D01*
X86415207Y-83609003D01*
X86469902Y-83418302D01*
X86550907Y-83253596D01*
X86660900Y-83106800D01*
X86725428Y-83039697D01*
X86876410Y-82920124D01*
X87041814Y-82844415D01*
X87232527Y-82808412D01*
X87342675Y-82804000D01*
X87480537Y-82811246D01*
X87609544Y-82835651D01*
X87738333Y-82881216D01*
X87875540Y-82951941D01*
X88029800Y-83051827D01*
X88209751Y-83184876D01*
X88275476Y-83236136D01*
X88356149Y-83297383D01*
X88421728Y-83342961D01*
X88460313Y-83364701D01*
X88463947Y-83365474D01*
X88487392Y-83342775D01*
X88516009Y-83286212D01*
X88524058Y-83265211D01*
X88552011Y-83194150D01*
X88594884Y-83093167D01*
X88644786Y-82980706D01*
X88660540Y-82946199D01*
X88710522Y-82841304D01*
X88746769Y-82777521D01*
X88775735Y-82746444D01*
X88803871Y-82739669D01*
X88817217Y-82742107D01*
X88846292Y-82752754D01*
X88863652Y-82772483D01*
X88869688Y-82810484D01*
X88864791Y-82875950D01*
X88849351Y-82978069D01*
X88831642Y-83081078D01*
X88814174Y-83186582D01*
X88802249Y-83269855D01*
X88797537Y-83318629D01*
X88798306Y-83326164D01*
X88819984Y-83312691D01*
X88872074Y-83269894D01*
X88945992Y-83205038D01*
X89006948Y-83149643D01*
X89191843Y-82988904D01*
X89355667Y-82868180D01*
X89506364Y-82782570D01*
X89651878Y-82727170D01*
X89718215Y-82710700D01*
X89827789Y-82692961D01*
X89931536Y-82684886D01*
X90000764Y-82687611D01*
X90098895Y-82703206D01*
X90084603Y-82596648D01*
X90081030Y-82513862D01*
X90099425Y-82471051D01*
X90142164Y-82468687D01*
X90211623Y-82507238D01*
X90211623Y-82507238D01*
G37*
X90211623Y-82507238D02*
X90310179Y-82587176D01*
X90385223Y-82656103D01*
X90468908Y-82733104D01*
X90551603Y-82805667D01*
X90604474Y-82849327D01*
X90663646Y-82898985D01*
X90693504Y-82935555D01*
X90690030Y-82960535D01*
X90649206Y-82975418D01*
X90567015Y-82981703D01*
X90439440Y-82980886D01*
X90267855Y-82974693D01*
X90107816Y-82968183D01*
X89990652Y-82965077D01*
X89905822Y-82966278D01*
X89842786Y-82972693D01*
X89791004Y-82985227D01*
X89739936Y-83004785D01*
X89697834Y-83023660D01*
X89600206Y-83072862D01*
X89490998Y-83135029D01*
X89380000Y-83203650D01*
X89277004Y-83272218D01*
X89191799Y-83334224D01*
X89134176Y-83383158D01*
X89113895Y-83411867D01*
X89135158Y-83452533D01*
X89147316Y-83459332D01*
X89183325Y-83457536D01*
X89262079Y-83445038D01*
X89374317Y-83423583D01*
X89510778Y-83394917D01*
X89627195Y-83368877D01*
X89809465Y-83328323D01*
X89944574Y-83302069D01*
X90036996Y-83290524D01*
X90091208Y-83294097D01*
X90111686Y-83313197D01*
X90102905Y-83348231D01*
X90069341Y-83399610D01*
X90062539Y-83408629D01*
X90020940Y-83466541D01*
X89997864Y-83505216D01*
X89996211Y-83510743D01*
X90020561Y-83518936D01*
X90084066Y-83525302D01*
X90163316Y-83528237D01*
X90281021Y-83532665D01*
X90401734Y-83541479D01*
X90464106Y-83548290D01*
X90545594Y-83562905D01*
X90586004Y-83582990D01*
X90597719Y-83615098D01*
X90597790Y-83619020D01*
X90572205Y-83661296D01*
X90495286Y-83690861D01*
X90366782Y-83707786D01*
X90263579Y-83711922D01*
X90169807Y-83716651D01*
X90114970Y-83733897D01*
X90092415Y-83773858D01*
X90095490Y-83846731D01*
X90113309Y-83942280D01*
X90159856Y-84227059D01*
X90174250Y-84472449D01*
X90157038Y-84673341D01*
X90089585Y-84915168D01*
X89979958Y-85126872D01*
X89827384Y-85309115D01*
X89631090Y-85462556D01*
X89390303Y-85587855D01*
X89104253Y-85685673D01*
X88921180Y-85729276D01*
X88765689Y-85751886D01*
X88575831Y-85765115D01*
X88369425Y-85768987D01*
X88164289Y-85763524D01*
X87978240Y-85748748D01*
X87843895Y-85727939D01*
X87664382Y-85680754D01*
X87521904Y-85619273D01*
X87400323Y-85534842D01*
X87298655Y-85435624D01*
X87185940Y-85295963D01*
X87101229Y-85157235D01*
X87049232Y-85029030D01*
X87034661Y-84920942D01*
X87036700Y-84902289D01*
X87042068Y-84841134D01*
X87035860Y-84810233D01*
X87033425Y-84809315D01*
X87009843Y-84829706D01*
X86967120Y-84882639D01*
X86923661Y-84943458D01*
X86857704Y-85037015D01*
X86810182Y-85092194D01*
X86771289Y-85116028D01*
X86731221Y-85115549D01*
X86698454Y-85104982D01*
X86623554Y-85050647D01*
X86549904Y-84947397D01*
X86480264Y-84799769D01*
X86435321Y-84672269D01*
X86409137Y-84580852D01*
X86391431Y-84494084D01*
X86380687Y-84397823D01*
X86375388Y-84277922D01*
X86374017Y-84120238D01*
X86374040Y-84100737D01*
X86377604Y-84006574D01*
X86537630Y-84006574D01*
X86543063Y-84224399D01*
X86593775Y-84448316D01*
X86628161Y-84543143D01*
X86666448Y-84626014D01*
X86701682Y-84683468D01*
X86724963Y-84702316D01*
X86753124Y-84689732D01*
X86805888Y-84659268D01*
X86808783Y-84657485D01*
X87012846Y-84527321D01*
X87173989Y-84413368D01*
X87297724Y-84309171D01*
X87389562Y-84208273D01*
X87455014Y-84104215D01*
X87499591Y-83990541D01*
X87528805Y-83860795D01*
X87537291Y-83803939D01*
X87570065Y-83647827D01*
X87620903Y-83541777D01*
X87691185Y-83485045D01*
X87782293Y-83476888D01*
X87895607Y-83516564D01*
X87979343Y-83566000D01*
X88054694Y-83614574D01*
X88111324Y-83648403D01*
X88135179Y-83659579D01*
X88143640Y-83637325D01*
X88134534Y-83579675D01*
X88111557Y-83500296D01*
X88078405Y-83412858D01*
X88054289Y-83360448D01*
X87970226Y-83234363D01*
X87855606Y-83139429D01*
X87700999Y-83068295D01*
X87663748Y-83056059D01*
X87559645Y-83028716D01*
X87472821Y-83022038D01*
X87372076Y-83034126D01*
X87354819Y-83037257D01*
X87151269Y-83092530D01*
X86983556Y-83179127D01*
X86843654Y-83303263D01*
X86723534Y-83471157D01*
X86672105Y-83566000D01*
X86580336Y-83790578D01*
X86537630Y-84006574D01*
X86377604Y-84006574D01*
X86384146Y-83833787D01*
X86415207Y-83609003D01*
X86469902Y-83418302D01*
X86550907Y-83253596D01*
X86660900Y-83106800D01*
X86725428Y-83039697D01*
X86876410Y-82920124D01*
X87041814Y-82844415D01*
X87232527Y-82808412D01*
X87342675Y-82804000D01*
X87480537Y-82811246D01*
X87609544Y-82835651D01*
X87738333Y-82881216D01*
X87875540Y-82951941D01*
X88029800Y-83051827D01*
X88209751Y-83184876D01*
X88275476Y-83236136D01*
X88356149Y-83297383D01*
X88421728Y-83342961D01*
X88460313Y-83364701D01*
X88463947Y-83365474D01*
X88487392Y-83342775D01*
X88516009Y-83286212D01*
X88524058Y-83265211D01*
X88552011Y-83194150D01*
X88594884Y-83093167D01*
X88644786Y-82980706D01*
X88660540Y-82946199D01*
X88710522Y-82841304D01*
X88746769Y-82777521D01*
X88775735Y-82746444D01*
X88803871Y-82739669D01*
X88817217Y-82742107D01*
X88846292Y-82752754D01*
X88863652Y-82772483D01*
X88869688Y-82810484D01*
X88864791Y-82875950D01*
X88849351Y-82978069D01*
X88831642Y-83081078D01*
X88814174Y-83186582D01*
X88802249Y-83269855D01*
X88797537Y-83318629D01*
X88798306Y-83326164D01*
X88819984Y-83312691D01*
X88872074Y-83269894D01*
X88945992Y-83205038D01*
X89006948Y-83149643D01*
X89191843Y-82988904D01*
X89355667Y-82868180D01*
X89506364Y-82782570D01*
X89651878Y-82727170D01*
X89718215Y-82710700D01*
X89827789Y-82692961D01*
X89931536Y-82684886D01*
X90000764Y-82687611D01*
X90098895Y-82703206D01*
X90084603Y-82596648D01*
X90081030Y-82513862D01*
X90099425Y-82471051D01*
X90142164Y-82468687D01*
X90211623Y-82507238D01*
G36*
X86697500Y-88961621D02*
G01*
X86716218Y-88973527D01*
X86718023Y-89005322D01*
X86715882Y-89080410D01*
X86710497Y-89188813D01*
X86702572Y-89320552D01*
X86692808Y-89465648D01*
X86681910Y-89614125D01*
X86670579Y-89756002D01*
X86659519Y-89881303D01*
X86649432Y-89980048D01*
X86641022Y-90042259D01*
X86640887Y-90043000D01*
X86616555Y-90108922D01*
X86570617Y-90128734D01*
X86509240Y-90113666D01*
X86488363Y-90095681D01*
X86475452Y-90054585D01*
X86468862Y-89980419D01*
X86466950Y-89863224D01*
X86466948Y-89857438D01*
X86464202Y-89730649D01*
X86455759Y-89654674D01*
X86441310Y-89627124D01*
X86437128Y-89627379D01*
X86410311Y-89651160D01*
X86358086Y-89709176D01*
X86287531Y-89793187D01*
X86205726Y-89894956D01*
X86189812Y-89915214D01*
X86106898Y-90019233D01*
X86034158Y-90106920D01*
X85978596Y-90170083D01*
X85947217Y-90200533D01*
X85944577Y-90201942D01*
X85903903Y-90193110D01*
X85884419Y-90178356D01*
X85862044Y-90148122D01*
X85855786Y-90110216D01*
X85867787Y-90054676D01*
X85900189Y-89971541D01*
X85954630Y-89851926D01*
X86021608Y-89723047D01*
X86104980Y-89584056D01*
X86198954Y-89442477D01*
X86297740Y-89305835D01*
X86395544Y-89181657D01*
X86486574Y-89077469D01*
X86565039Y-89000794D01*
X86625147Y-88959160D01*
X86645843Y-88953831D01*
X86697500Y-88961621D01*
X86697500Y-88961621D01*
G37*
X86697500Y-88961621D02*
X86716218Y-88973527D01*
X86718023Y-89005322D01*
X86715882Y-89080410D01*
X86710497Y-89188813D01*
X86702572Y-89320552D01*
X86692808Y-89465648D01*
X86681910Y-89614125D01*
X86670579Y-89756002D01*
X86659519Y-89881303D01*
X86649432Y-89980048D01*
X86641022Y-90042259D01*
X86640887Y-90043000D01*
X86616555Y-90108922D01*
X86570617Y-90128734D01*
X86509240Y-90113666D01*
X86488363Y-90095681D01*
X86475452Y-90054585D01*
X86468862Y-89980419D01*
X86466950Y-89863224D01*
X86466948Y-89857438D01*
X86464202Y-89730649D01*
X86455759Y-89654674D01*
X86441310Y-89627124D01*
X86437128Y-89627379D01*
X86410311Y-89651160D01*
X86358086Y-89709176D01*
X86287531Y-89793187D01*
X86205726Y-89894956D01*
X86189812Y-89915214D01*
X86106898Y-90019233D01*
X86034158Y-90106920D01*
X85978596Y-90170083D01*
X85947217Y-90200533D01*
X85944577Y-90201942D01*
X85903903Y-90193110D01*
X85884419Y-90178356D01*
X85862044Y-90148122D01*
X85855786Y-90110216D01*
X85867787Y-90054676D01*
X85900189Y-89971541D01*
X85954630Y-89851926D01*
X86021608Y-89723047D01*
X86104980Y-89584056D01*
X86198954Y-89442477D01*
X86297740Y-89305835D01*
X86395544Y-89181657D01*
X86486574Y-89077469D01*
X86565039Y-89000794D01*
X86625147Y-88959160D01*
X86645843Y-88953831D01*
X86697500Y-88961621D01*
G36*
X91265385Y-80983950D02*
G01*
X91338687Y-80999921D01*
X91566265Y-81069470D01*
X91749220Y-81159522D01*
X91893981Y-81274668D01*
X92006975Y-81419499D01*
X92057969Y-81513594D01*
X92098924Y-81603858D01*
X92122712Y-81675437D01*
X92132848Y-81748265D01*
X92132846Y-81842274D01*
X92129361Y-81918628D01*
X92104631Y-82110741D01*
X92048006Y-82291591D01*
X91954275Y-82474278D01*
X91842320Y-82639724D01*
X91750352Y-82794680D01*
X91710686Y-82942526D01*
X91723343Y-83087375D01*
X91788343Y-83233342D01*
X91845613Y-83314582D01*
X91952698Y-83450054D01*
X92028935Y-83364663D01*
X92091512Y-83282827D01*
X92145257Y-83193822D01*
X92151075Y-83182005D01*
X92240471Y-83016682D01*
X92332684Y-82896841D01*
X92428938Y-82817574D01*
X92520961Y-82764844D01*
X92578106Y-82749414D01*
X92606496Y-82774257D01*
X92612255Y-82842345D01*
X92607491Y-82904264D01*
X92593763Y-83048205D01*
X92582100Y-83190673D01*
X92573080Y-83321896D01*
X92567277Y-83432098D01*
X92565270Y-83511508D01*
X92567633Y-83550350D01*
X92569252Y-83552632D01*
X92596763Y-83541709D01*
X92663672Y-83511637D01*
X92761192Y-83466461D01*
X92880540Y-83410226D01*
X92940333Y-83381767D01*
X93159791Y-83277326D01*
X93356352Y-83184449D01*
X93525575Y-83105194D01*
X93663019Y-83041622D01*
X93764240Y-82995791D01*
X93824798Y-82969761D01*
X93840514Y-82964421D01*
X93845287Y-82988689D01*
X93844928Y-83052117D01*
X93839924Y-83135258D01*
X93825715Y-83235977D01*
X93796624Y-83327380D01*
X93746763Y-83419636D01*
X93670246Y-83522917D01*
X93561184Y-83647390D01*
X93514205Y-83697876D01*
X93444979Y-83774006D01*
X93392832Y-83836141D01*
X93366570Y-83873625D01*
X93365053Y-83878349D01*
X93389655Y-83888585D01*
X93454949Y-83896255D01*
X93548170Y-83900031D01*
X93575070Y-83900211D01*
X93785087Y-83900211D01*
X93800706Y-83713902D01*
X93840310Y-83493111D01*
X93918960Y-83308821D01*
X94036525Y-83161139D01*
X94192875Y-83050171D01*
X94387878Y-82976022D01*
X94621404Y-82938800D01*
X94761742Y-82934083D01*
X94940781Y-82947364D01*
X95076387Y-82986634D01*
X95172649Y-83053372D01*
X95205213Y-83094262D01*
X95223200Y-83130662D01*
X95235806Y-83181874D01*
X95243890Y-83256930D01*
X95248312Y-83364864D01*
X95249932Y-83514709D01*
X95250000Y-83564845D01*
X95251118Y-83739999D01*
X95257521Y-83873461D01*
X95273787Y-83977006D01*
X95304490Y-84062409D01*
X95354209Y-84141448D01*
X95427519Y-84225897D01*
X95528996Y-84327534D01*
X95556963Y-84354737D01*
X95704291Y-84511473D01*
X95814443Y-84661917D01*
X95864500Y-84749468D01*
X96003113Y-84963272D01*
X96174124Y-85134563D01*
X96376911Y-85262891D01*
X96610855Y-85347805D01*
X96720527Y-85370800D01*
X96781829Y-85377236D01*
X96888336Y-85384191D01*
X97031786Y-85391300D01*
X97203917Y-85398203D01*
X97396468Y-85404539D01*
X97601176Y-85409945D01*
X97629579Y-85410590D01*
X97856394Y-85416036D01*
X98091285Y-85422378D01*
X98321572Y-85429227D01*
X98534578Y-85436188D01*
X98717623Y-85442871D01*
X98840655Y-85448061D01*
X99004390Y-85456176D01*
X99123408Y-85463919D01*
X99206438Y-85472686D01*
X99262207Y-85483872D01*
X99299443Y-85498875D01*
X99326875Y-85519088D01*
X99335287Y-85527164D01*
X99350685Y-85543710D01*
X99363187Y-85563065D01*
X99373148Y-85590677D01*
X99380922Y-85631990D01*
X99386864Y-85692452D01*
X99391328Y-85777507D01*
X99394669Y-85892603D01*
X99397242Y-86043184D01*
X99399400Y-86234697D01*
X99401500Y-86472588D01*
X99402177Y-86554556D01*
X99403864Y-86855073D01*
X99403517Y-87104207D01*
X99401094Y-87304010D01*
X99396551Y-87456536D01*
X99389845Y-87563838D01*
X99380934Y-87627969D01*
X99379474Y-87633742D01*
X99362888Y-87717309D01*
X99371447Y-87784505D01*
X99394618Y-87840978D01*
X99422309Y-87907187D01*
X99424552Y-87950887D01*
X99401885Y-87996306D01*
X99398175Y-88002018D01*
X99362524Y-88044557D01*
X99316663Y-88071381D01*
X99253242Y-88082376D01*
X99164910Y-88077431D01*
X99044316Y-88056434D01*
X98884109Y-88019272D01*
X98778998Y-87992562D01*
X98635136Y-87955832D01*
X98508296Y-87924416D01*
X98408014Y-87900601D01*
X98343825Y-87886671D01*
X98326118Y-87884000D01*
X98306359Y-87909703D01*
X98278069Y-87984435D01*
X98242390Y-88104637D01*
X98200463Y-88266746D01*
X98191134Y-88305106D01*
X98150922Y-88471752D01*
X98109590Y-88642537D01*
X98071177Y-88800799D01*
X98039725Y-88929879D01*
X98030676Y-88966842D01*
X98006765Y-89072256D01*
X97991479Y-89155854D01*
X97986788Y-89205833D01*
X97989294Y-89214665D01*
X98019040Y-89210529D01*
X98093543Y-89195138D01*
X98205659Y-89170115D01*
X98348248Y-89137084D01*
X98514164Y-89097666D01*
X98665848Y-89060928D01*
X98885746Y-89007558D01*
X99059398Y-88966389D01*
X99192377Y-88936409D01*
X99290255Y-88916609D01*
X99358601Y-88905979D01*
X99402989Y-88903509D01*
X99428989Y-88908188D01*
X99442172Y-88919006D01*
X99442809Y-88920053D01*
X99442602Y-88955396D01*
X99428985Y-89022750D01*
X99417438Y-89065056D01*
X99390616Y-89135362D01*
X99351565Y-89192336D01*
X99292643Y-89240552D01*
X99206210Y-89284579D01*
X99084624Y-89328989D01*
X98920242Y-89378355D01*
X98870367Y-89392339D01*
X98708601Y-89438168D01*
X98520369Y-89492898D01*
X98330196Y-89549332D01*
X98177685Y-89595620D01*
X98038315Y-89638340D01*
X97909457Y-89677476D01*
X97803631Y-89709252D01*
X97733355Y-89729888D01*
X97723158Y-89732767D01*
X97651154Y-89753721D01*
X97549211Y-89784546D01*
X97438341Y-89818883D01*
X97429053Y-89821799D01*
X97313446Y-89857722D01*
X97169612Y-89901813D01*
X97020588Y-89947027D01*
X96947790Y-89968916D01*
X96814028Y-90009445D01*
X96681797Y-90050307D01*
X96570134Y-90085584D01*
X96520000Y-90101916D01*
X96447749Y-90125513D01*
X96357423Y-90154139D01*
X96243025Y-90189634D01*
X96098557Y-90233840D01*
X95918019Y-90288596D01*
X95695413Y-90355744D01*
X95557474Y-90397241D01*
X95251354Y-90494573D01*
X94988841Y-90590675D01*
X94760403Y-90690317D01*
X94556512Y-90798268D01*
X94367636Y-90919297D01*
X94184245Y-91058173D01*
X94105477Y-91123901D01*
X93996623Y-91210933D01*
X93914976Y-91261321D01*
X93853371Y-91279380D01*
X93846980Y-91279579D01*
X93749469Y-91290107D01*
X93695513Y-91320419D01*
X93685895Y-91348362D01*
X93698131Y-91388525D01*
X93730332Y-91460081D01*
X93775738Y-91548107D01*
X93779474Y-91554932D01*
X93825210Y-91640429D01*
X93858547Y-91707113D01*
X93872913Y-91741776D01*
X93873053Y-91743010D01*
X93847068Y-91746917D01*
X93772109Y-91750093D01*
X93652671Y-91752553D01*
X93493248Y-91754310D01*
X93298336Y-91755377D01*
X93072429Y-91755769D01*
X92820022Y-91755498D01*
X92545609Y-91754579D01*
X92253685Y-91753025D01*
X91948745Y-91750850D01*
X91635284Y-91748067D01*
X91317796Y-91744689D01*
X91000776Y-91740731D01*
X90688718Y-91736206D01*
X90477474Y-91732740D01*
X90226136Y-91728852D01*
X89933145Y-91725077D01*
X89610320Y-91721525D01*
X89269480Y-91718302D01*
X88922446Y-91715517D01*
X88581037Y-91713275D01*
X88257074Y-91711686D01*
X88106400Y-91711172D01*
X86764694Y-91707369D01*
X86709400Y-91629715D01*
X86672260Y-91569858D01*
X86654389Y-91525927D01*
X86654106Y-91522539D01*
X86666412Y-91487416D01*
X86700736Y-91413174D01*
X86753181Y-91307469D01*
X86773272Y-91268442D01*
X87166753Y-91268442D01*
X87170164Y-91361931D01*
X87209315Y-91433443D01*
X87215579Y-91440000D01*
X87239673Y-91460119D01*
X87271105Y-91474473D01*
X87318564Y-91484021D01*
X87390739Y-91489724D01*
X87496320Y-91492543D01*
X87643997Y-91493437D01*
X87699488Y-91493474D01*
X88129923Y-91493474D01*
X87994942Y-91339737D01*
X87822364Y-91146048D01*
X87694001Y-91007419D01*
X88386866Y-91007419D01*
X88417335Y-91030572D01*
X88494185Y-91047939D01*
X88505632Y-91050016D01*
X88566164Y-91067247D01*
X88598484Y-91098310D01*
X88604801Y-91153057D01*
X88587321Y-91241344D01*
X88565500Y-91317250D01*
X88542686Y-91396509D01*
X88528281Y-91454348D01*
X88525685Y-91470812D01*
X88551722Y-91474545D01*
X88627036Y-91478272D01*
X88747431Y-91481929D01*
X88908709Y-91485453D01*
X89106673Y-91488782D01*
X89337128Y-91491850D01*
X89595876Y-91494596D01*
X89878720Y-91496956D01*
X90181464Y-91498866D01*
X90470790Y-91500161D01*
X90792737Y-91501407D01*
X91102156Y-91502761D01*
X91394408Y-91504193D01*
X91664851Y-91505674D01*
X91908848Y-91507173D01*
X92121757Y-91508660D01*
X92298939Y-91510106D01*
X92435754Y-91511480D01*
X92527563Y-91512752D01*
X92566130Y-91513704D01*
X92665630Y-91511900D01*
X92792998Y-91501230D01*
X92923781Y-91483868D01*
X92948442Y-91479740D01*
X93070390Y-91452557D01*
X93196190Y-91414610D01*
X93315157Y-91370375D01*
X93416604Y-91324327D01*
X93489846Y-91280944D01*
X93524197Y-91244701D01*
X93525474Y-91238033D01*
X93512302Y-91203504D01*
X93475660Y-91130885D01*
X93419858Y-91027779D01*
X93349206Y-90901786D01*
X93268013Y-90760509D01*
X93180590Y-90611550D01*
X93091246Y-90462510D01*
X93018471Y-90343790D01*
X92944984Y-90224261D01*
X92898310Y-90141596D01*
X92877077Y-90087214D01*
X92879913Y-90052537D01*
X92905445Y-90028986D01*
X92952301Y-90007980D01*
X92964012Y-90003368D01*
X93029421Y-89973572D01*
X93067226Y-89948407D01*
X93070948Y-89941850D01*
X93052568Y-89915833D01*
X93003797Y-89864227D01*
X92934192Y-89796993D01*
X92914537Y-89778801D01*
X92829681Y-89697103D01*
X92752562Y-89616257D01*
X92710817Y-89566911D01*
X93124421Y-89566911D01*
X93143986Y-89594198D01*
X93201016Y-89654582D01*
X93293019Y-89745625D01*
X93417502Y-89864888D01*
X93571971Y-90009934D01*
X93679808Y-90109985D01*
X93778891Y-90210689D01*
X93833812Y-90293201D01*
X93846732Y-90366044D01*
X93819811Y-90437738D01*
X93777029Y-90493368D01*
X93688518Y-90621471D01*
X93653283Y-90748890D01*
X93671203Y-90877753D01*
X93742156Y-91010187D01*
X93746880Y-91016652D01*
X93807151Y-91075539D01*
X93875554Y-91089387D01*
X93966015Y-91061101D01*
X94004154Y-91039401D01*
X94029770Y-91008219D01*
X94047465Y-90955638D01*
X94061843Y-90869743D01*
X94072020Y-90786685D01*
X94089839Y-90684983D01*
X94121888Y-90605868D01*
X94176121Y-90541920D01*
X94260490Y-90485719D01*
X94382948Y-90429846D01*
X94503588Y-90384049D01*
X94682321Y-90302632D01*
X94815426Y-90205422D01*
X94899734Y-90094814D01*
X94907264Y-90078850D01*
X94922046Y-90017048D01*
X94934149Y-89911363D01*
X94943473Y-89771321D01*
X94949918Y-89606449D01*
X94953386Y-89426276D01*
X94953777Y-89240329D01*
X94950992Y-89058134D01*
X94944932Y-88889220D01*
X94935497Y-88743113D01*
X94922590Y-88629341D01*
X94922372Y-88627947D01*
X94879986Y-88438953D01*
X94817088Y-88265644D01*
X94739668Y-88122842D01*
X94694687Y-88064474D01*
X94637360Y-88008748D01*
X94593115Y-87996787D01*
X94544747Y-88028283D01*
X94512714Y-88061236D01*
X94398577Y-88148579D01*
X94261059Y-88197599D01*
X94185563Y-88204842D01*
X94122062Y-88196226D01*
X94023998Y-88173027D01*
X93906955Y-88139222D01*
X93830441Y-88114251D01*
X93651937Y-88056606D01*
X93510456Y-88018137D01*
X93409187Y-87999481D01*
X93351320Y-88001276D01*
X93338316Y-88016002D01*
X93349689Y-88052717D01*
X93379803Y-88123012D01*
X93422654Y-88213068D01*
X93432480Y-88232740D01*
X93579423Y-88556228D01*
X93682449Y-88857246D01*
X93743270Y-89141209D01*
X93756859Y-89259264D01*
X93764452Y-89343047D01*
X93765536Y-89401928D01*
X93752438Y-89441401D01*
X93717481Y-89466960D01*
X93652994Y-89484098D01*
X93551301Y-89498309D01*
X93404728Y-89515085D01*
X93398474Y-89515811D01*
X93284982Y-89530752D01*
X93194410Y-89545978D01*
X93137853Y-89559420D01*
X93124421Y-89566911D01*
X92710817Y-89566911D01*
X92698768Y-89552669D01*
X92695614Y-89548369D01*
X92633102Y-89461474D01*
X92693570Y-89379687D01*
X92731227Y-89319319D01*
X92734269Y-89279357D01*
X92722061Y-89259372D01*
X92682894Y-89226597D01*
X92664938Y-89220842D01*
X92629072Y-89209826D01*
X92561568Y-89181238D01*
X92493762Y-89149338D01*
X92406724Y-89101986D01*
X92356285Y-89055149D01*
X92330281Y-88990967D01*
X92325187Y-88954109D01*
X92713943Y-88954109D01*
X92746387Y-88972633D01*
X92817693Y-89006536D01*
X92917234Y-89050944D01*
X93030842Y-89099499D01*
X93151261Y-89149963D01*
X93257583Y-89194538D01*
X93337789Y-89228182D01*
X93378421Y-89245251D01*
X93433578Y-89252148D01*
X93474800Y-89232298D01*
X93484796Y-89196102D01*
X93479605Y-89184392D01*
X93456797Y-89152613D01*
X93406781Y-89086161D01*
X93335280Y-88992494D01*
X93248018Y-88879069D01*
X93150719Y-88753344D01*
X93049106Y-88622776D01*
X93017921Y-88582861D01*
X92975628Y-88543007D01*
X92942996Y-88535512D01*
X92942868Y-88535589D01*
X92911635Y-88569251D01*
X92868142Y-88633442D01*
X92819536Y-88715098D01*
X92772963Y-88801155D01*
X92735567Y-88878550D01*
X92714495Y-88934218D01*
X92713943Y-88954109D01*
X92325187Y-88954109D01*
X92316544Y-88891579D01*
X92316279Y-88888773D01*
X92305065Y-88839918D01*
X92273751Y-88806836D01*
X92208733Y-88777698D01*
X92175264Y-88766165D01*
X92082366Y-88723632D01*
X92033028Y-88674886D01*
X92031158Y-88624889D01*
X92046935Y-88603213D01*
X92081136Y-88591281D01*
X92157726Y-88575581D01*
X92265924Y-88558017D01*
X92394949Y-88540494D01*
X92417074Y-88537790D01*
X92553368Y-88520934D01*
X92675466Y-88505000D01*
X92770835Y-88491680D01*
X92826945Y-88482666D01*
X92830065Y-88482034D01*
X92867528Y-88471882D01*
X92871090Y-88457846D01*
X92836292Y-88431002D01*
X92789960Y-88401821D01*
X92669859Y-88331618D01*
X92541231Y-88263384D01*
X92418017Y-88203893D01*
X92314160Y-88159922D01*
X92250358Y-88139557D01*
X92181101Y-88130293D01*
X92126019Y-88139870D01*
X92081859Y-88174022D01*
X92045367Y-88238483D01*
X92013293Y-88338986D01*
X91982383Y-88481265D01*
X91949597Y-88669756D01*
X91913371Y-88857671D01*
X91871823Y-89014556D01*
X91828254Y-89128494D01*
X91733050Y-89273778D01*
X91598751Y-89411214D01*
X91439516Y-89528138D01*
X91302027Y-89599095D01*
X91201950Y-89640941D01*
X91073133Y-89694881D01*
X90936140Y-89752304D01*
X90865158Y-89782082D01*
X90556418Y-89908289D01*
X90288430Y-90009972D01*
X90055213Y-90088593D01*
X89850786Y-90145620D01*
X89669168Y-90182515D01*
X89504378Y-90200744D01*
X89350434Y-90201772D01*
X89207643Y-90187984D01*
X89066725Y-90160850D01*
X88913698Y-90120942D01*
X88780160Y-90076570D01*
X88772392Y-90073524D01*
X88662635Y-90032569D01*
X88588370Y-90012652D01*
X88537074Y-90011273D01*
X88506960Y-90020523D01*
X88461397Y-90050867D01*
X88449129Y-90092966D01*
X88469657Y-90158687D01*
X88498678Y-90216586D01*
X88566799Y-90387225D01*
X88582979Y-90551391D01*
X88546880Y-90713481D01*
X88458161Y-90877891D01*
X88446343Y-90894683D01*
X88398097Y-90966212D01*
X88386866Y-91007419D01*
X87694001Y-91007419D01*
X87678110Y-90990258D01*
X87563118Y-90873293D01*
X87478330Y-90796082D01*
X87424685Y-90759550D01*
X87405972Y-90758859D01*
X87381252Y-90793999D01*
X87339983Y-90864104D01*
X87289592Y-90956341D01*
X87269741Y-90994246D01*
X87199730Y-91147654D01*
X87166753Y-91268442D01*
X86773272Y-91268442D01*
X86819853Y-91177958D01*
X86896857Y-91032297D01*
X86980298Y-90878143D01*
X87002123Y-90838421D01*
X87050225Y-90750435D01*
X87111924Y-90636595D01*
X87175668Y-90518237D01*
X87190354Y-90490842D01*
X87249302Y-90380807D01*
X87305532Y-90275911D01*
X87349306Y-90194320D01*
X87358887Y-90176483D01*
X87412873Y-90076018D01*
X87360723Y-89968218D01*
X87857264Y-89968218D01*
X87864509Y-90071737D01*
X87884764Y-90136980D01*
X87911673Y-90156632D01*
X87940740Y-90141587D01*
X88002971Y-90100754D01*
X88088867Y-90040586D01*
X88177134Y-89976291D01*
X88420644Y-89795949D01*
X88313229Y-89750330D01*
X88221449Y-89716509D01*
X88131650Y-89691110D01*
X88116370Y-89687931D01*
X88056665Y-89682630D01*
X88010511Y-89700264D01*
X87957941Y-89749983D01*
X87942095Y-89767769D01*
X87882258Y-89851663D01*
X87858799Y-89934065D01*
X87857264Y-89968218D01*
X87360723Y-89968218D01*
X87321315Y-89886759D01*
X87275819Y-89795987D01*
X87237604Y-89725665D01*
X87213581Y-89688364D01*
X87210831Y-89685802D01*
X87189565Y-89702023D01*
X87154145Y-89763320D01*
X87107319Y-89864037D01*
X87051833Y-89998518D01*
X87024319Y-90069737D01*
X86991990Y-90146293D01*
X86964124Y-90197277D01*
X86950808Y-90210106D01*
X86922359Y-90185508D01*
X86887048Y-90117798D01*
X86849440Y-90016102D01*
X86842220Y-89993064D01*
X86826539Y-89854893D01*
X86855067Y-89705285D01*
X86922944Y-89554051D01*
X87025308Y-89411002D01*
X87157298Y-89285951D01*
X87212033Y-89246629D01*
X87295848Y-89194058D01*
X87347002Y-89171611D01*
X87375186Y-89176768D01*
X87388263Y-89200790D01*
X87430039Y-89324853D01*
X87473844Y-89441922D01*
X87515300Y-89541615D01*
X87550033Y-89613550D01*
X87573667Y-89647345D01*
X87577029Y-89648632D01*
X87596748Y-89624790D01*
X87626345Y-89560733D01*
X87661013Y-89467662D01*
X87681199Y-89405923D01*
X87717092Y-89293529D01*
X87743339Y-89223522D01*
X87765492Y-89187020D01*
X87789101Y-89175140D01*
X87819719Y-89179000D01*
X87822573Y-89179707D01*
X87908809Y-89207920D01*
X88034904Y-89259536D01*
X88202958Y-89335474D01*
X88415072Y-89436652D01*
X88458842Y-89457981D01*
X88767510Y-89597366D01*
X89041124Y-89696692D01*
X89279952Y-89756046D01*
X89391715Y-89771256D01*
X89589457Y-89775232D01*
X89812626Y-89756767D01*
X90039476Y-89718603D01*
X90248260Y-89663481D01*
X90249341Y-89663129D01*
X90444239Y-89589061D01*
X90655277Y-89490987D01*
X90869574Y-89376344D01*
X91074251Y-89252570D01*
X91256425Y-89127102D01*
X91403219Y-89007377D01*
X91431627Y-88980448D01*
X91481830Y-88929640D01*
X91524123Y-88881029D01*
X91560208Y-88828919D01*
X91591789Y-88767615D01*
X91620569Y-88691421D01*
X91648251Y-88594639D01*
X91676539Y-88471574D01*
X91707136Y-88316530D01*
X91741745Y-88123810D01*
X91782069Y-87887719D01*
X91812310Y-87707353D01*
X91853899Y-87492211D01*
X91901220Y-87318521D01*
X91958377Y-87174286D01*
X92029470Y-87047509D01*
X92046722Y-87021737D01*
X92108783Y-86952240D01*
X92168895Y-86920667D01*
X92216993Y-86932128D01*
X92219180Y-86934197D01*
X92218570Y-86963972D01*
X92206264Y-87033042D01*
X92184629Y-87129115D01*
X92171548Y-87181513D01*
X92130606Y-87369591D01*
X92113501Y-87520629D01*
X92120070Y-87631835D01*
X92150152Y-87700415D01*
X92202941Y-87723579D01*
X92225329Y-87710869D01*
X92237595Y-87666315D01*
X92241977Y-87580284D01*
X92242106Y-87554900D01*
X92246934Y-87432653D01*
X92267534Y-87353489D01*
X92313081Y-87308665D01*
X92392748Y-87289441D01*
X92515709Y-87287076D01*
X92523015Y-87287240D01*
X92625587Y-87288937D01*
X92686562Y-87282832D01*
X92708710Y-87260913D01*
X92694802Y-87215168D01*
X92647608Y-87137584D01*
X92599743Y-87065304D01*
X92552187Y-86989329D01*
X92521802Y-86932222D01*
X92515149Y-86906887D01*
X92546079Y-86895833D01*
X92613778Y-86879715D01*
X92685595Y-86865430D01*
X92770715Y-86848738D01*
X92831407Y-86834909D01*
X92852166Y-86828087D01*
X92845887Y-86801851D01*
X92820739Y-86743010D01*
X92795112Y-86690185D01*
X92753289Y-86599366D01*
X92704704Y-86481981D01*
X92659345Y-86362248D01*
X92656163Y-86353316D01*
X92621359Y-86258119D01*
X92592938Y-86185982D01*
X92575632Y-86148729D01*
X92573185Y-86146106D01*
X92554629Y-86166549D01*
X92518465Y-86218396D01*
X92497223Y-86251283D01*
X92418581Y-86360875D01*
X92343056Y-86428800D01*
X92258243Y-86464559D01*
X92207195Y-86473499D01*
X92098799Y-86504885D01*
X91963085Y-86575446D01*
X91907895Y-86610436D01*
X91807605Y-86674829D01*
X91740710Y-86710425D01*
X91697146Y-86719587D01*
X91666853Y-86704681D01*
X91642690Y-86672751D01*
X91637348Y-86649889D01*
X91649624Y-86617412D01*
X91684111Y-86569472D01*
X91745403Y-86500222D01*
X91838094Y-86403812D01*
X91914832Y-86326345D01*
X92016948Y-86222590D01*
X92104188Y-86131377D01*
X92170138Y-86059620D01*
X92208383Y-86014233D01*
X92215369Y-86002396D01*
X92190919Y-85992747D01*
X92126392Y-85988120D01*
X92035022Y-85989360D01*
X92021527Y-85990014D01*
X91881328Y-86005163D01*
X91756101Y-86039331D01*
X91641248Y-86087901D01*
X91550558Y-86132226D01*
X91480125Y-86169749D01*
X91442942Y-86193477D01*
X91440722Y-86195830D01*
X91409546Y-86225440D01*
X91370812Y-86254603D01*
X91224957Y-86368852D01*
X91063792Y-86521233D01*
X90885335Y-86713934D01*
X90687604Y-86949142D01*
X90468617Y-87229046D01*
X90373844Y-87355063D01*
X90276554Y-87479830D01*
X90157173Y-87624142D01*
X90031268Y-87769581D01*
X89921105Y-87890626D01*
X89778731Y-88043430D01*
X89665435Y-88169060D01*
X89572541Y-88278215D01*
X89491373Y-88381592D01*
X89413257Y-88489886D01*
X89329516Y-88613797D01*
X89307523Y-88647190D01*
X89190861Y-88811357D01*
X89080235Y-88934649D01*
X88964785Y-89026928D01*
X88833653Y-89098054D01*
X88791035Y-89116175D01*
X88596355Y-89169295D01*
X88408074Y-89171385D01*
X88230534Y-89124848D01*
X88068076Y-89032087D01*
X87925041Y-88895507D01*
X87805770Y-88717510D01*
X87722579Y-88524610D01*
X87696936Y-88442836D01*
X87681123Y-88369440D01*
X87673827Y-88289294D01*
X87673736Y-88187268D01*
X87675386Y-88147709D01*
X87990948Y-88147709D01*
X88002770Y-88290670D01*
X88034759Y-88439233D01*
X88081696Y-88576366D01*
X88138363Y-88685037D01*
X88166639Y-88721184D01*
X88268511Y-88799635D01*
X88402603Y-88860081D01*
X88548495Y-88893930D01*
X88584988Y-88897264D01*
X88624015Y-88881682D01*
X88691165Y-88837576D01*
X88775278Y-88772700D01*
X88826312Y-88729593D01*
X88927235Y-88637388D01*
X89026431Y-88539724D01*
X89107081Y-88453372D01*
X89127915Y-88428803D01*
X89271809Y-88253907D01*
X89398076Y-88103931D01*
X89502716Y-87983500D01*
X89581729Y-87897240D01*
X89622310Y-87857264D01*
X89660126Y-87805770D01*
X89695275Y-87730734D01*
X89700240Y-87716512D01*
X89717825Y-87646987D01*
X89713610Y-87588922D01*
X89684802Y-87515990D01*
X89677301Y-87500308D01*
X89633666Y-87424463D01*
X89581900Y-87370271D01*
X89513804Y-87335581D01*
X89421176Y-87318238D01*
X89295815Y-87316092D01*
X89129521Y-87326989D01*
X89046748Y-87334813D01*
X88934441Y-87344229D01*
X88857692Y-87344052D01*
X88799138Y-87332357D01*
X88741416Y-87307217D01*
X88726302Y-87299261D01*
X88645968Y-87263750D01*
X88573644Y-87243858D01*
X88555973Y-87242316D01*
X88456509Y-87267347D01*
X88354684Y-87336733D01*
X88255841Y-87441912D01*
X88165322Y-87574324D01*
X88088470Y-87725407D01*
X88030628Y-87886601D01*
X87997138Y-88049343D01*
X87990948Y-88147709D01*
X87675386Y-88147709D01*
X87679537Y-88048232D01*
X87680180Y-88035757D01*
X87685935Y-87861238D01*
X87682417Y-87738308D01*
X87669643Y-87667471D01*
X87666966Y-87661441D01*
X87634392Y-87614507D01*
X87577389Y-87547263D01*
X87506110Y-87470089D01*
X87430708Y-87393360D01*
X87361335Y-87327456D01*
X87308145Y-87282753D01*
X87283194Y-87269177D01*
X87248259Y-87286186D01*
X87193159Y-87328772D01*
X87170240Y-87349387D01*
X87098073Y-87410087D01*
X87053958Y-87426328D01*
X87033291Y-87395995D01*
X87031471Y-87316975D01*
X87033643Y-87286656D01*
X87056846Y-87166369D01*
X87108030Y-87064264D01*
X87192051Y-86976697D01*
X87313763Y-86900020D01*
X87478022Y-86830589D01*
X87689682Y-86764759D01*
X87750316Y-86748503D01*
X87862922Y-86718404D01*
X87965241Y-86689075D01*
X88064642Y-86657724D01*
X88168497Y-86621559D01*
X88284174Y-86577788D01*
X88419046Y-86523620D01*
X88580482Y-86456262D01*
X88775853Y-86372923D01*
X89012528Y-86270812D01*
X89020316Y-86267441D01*
X89093135Y-86238786D01*
X89189014Y-86204581D01*
X89241235Y-86187153D01*
X89338316Y-86147054D01*
X89451357Y-86087885D01*
X89544091Y-86030212D01*
X89703909Y-85922927D01*
X89832478Y-85842795D01*
X89940364Y-85783640D01*
X90038134Y-85739284D01*
X90049685Y-85734665D01*
X90178878Y-85681006D01*
X90271708Y-85633475D01*
X90342780Y-85582022D01*
X90406698Y-85516597D01*
X90457307Y-85454141D01*
X90506638Y-85395545D01*
X90513329Y-85388921D01*
X91602588Y-85388921D01*
X91628796Y-85507832D01*
X91698530Y-85604000D01*
X91743904Y-85638257D01*
X91812068Y-85661497D01*
X91921966Y-85676603D01*
X92062530Y-85683900D01*
X92222695Y-85683712D01*
X92391392Y-85676363D01*
X92557556Y-85662177D01*
X92710118Y-85641477D01*
X92838013Y-85614589D01*
X92870210Y-85605273D01*
X93000475Y-85537378D01*
X93113838Y-85424667D01*
X93203179Y-85274896D01*
X93226917Y-85216639D01*
X93267151Y-85124006D01*
X93311553Y-85048330D01*
X93345452Y-85010475D01*
X93409382Y-84981868D01*
X93482191Y-84970346D01*
X93542040Y-84977642D01*
X93563555Y-84993146D01*
X93557540Y-85023171D01*
X93533102Y-85095581D01*
X93492833Y-85203589D01*
X93439326Y-85340410D01*
X93375172Y-85499256D01*
X93311133Y-85653872D01*
X93220494Y-85872894D01*
X93150683Y-86048803D01*
X93100247Y-86187098D01*
X93067735Y-86293276D01*
X93051696Y-86372837D01*
X93050679Y-86431279D01*
X93063232Y-86474101D01*
X93086401Y-86505318D01*
X93150127Y-86556784D01*
X93212025Y-86587806D01*
X93254404Y-86589547D01*
X93254695Y-86589371D01*
X93271821Y-86558873D01*
X93297875Y-86489793D01*
X93328069Y-86395234D01*
X93337613Y-86362470D01*
X93381920Y-86233834D01*
X93431758Y-86133324D01*
X93482412Y-86067925D01*
X93529165Y-86044624D01*
X93548433Y-86050192D01*
X93568159Y-86083706D01*
X93591052Y-86152929D01*
X93606671Y-86217697D01*
X93618406Y-86390501D01*
X93585796Y-86585537D01*
X93508336Y-86805334D01*
X93475081Y-86879015D01*
X93390638Y-87082743D01*
X93346133Y-87254054D01*
X93341572Y-87396096D01*
X93376959Y-87512016D01*
X93452299Y-87604960D01*
X93476254Y-87624144D01*
X93556790Y-87669504D01*
X93673080Y-87717462D01*
X93808002Y-87762652D01*
X93944433Y-87799709D01*
X94065251Y-87823269D01*
X94129579Y-87828841D01*
X94228688Y-87822731D01*
X94297790Y-87797223D01*
X94333517Y-87770369D01*
X94367722Y-87732847D01*
X95806663Y-87732847D01*
X95809984Y-87761245D01*
X95829412Y-87823940D01*
X95852939Y-87887208D01*
X95917967Y-88088827D01*
X95959747Y-88309401D01*
X95978802Y-88556265D01*
X95975658Y-88836753D01*
X95950836Y-89158200D01*
X95946603Y-89198240D01*
X95928087Y-89381183D01*
X95913874Y-89546272D01*
X95904585Y-89684467D01*
X95900836Y-89786728D01*
X95902677Y-89840319D01*
X95906257Y-89846343D01*
X95919141Y-89848025D01*
X95947606Y-89843824D01*
X95997928Y-89832198D01*
X96076385Y-89811606D01*
X96189253Y-89780508D01*
X96342809Y-89737362D01*
X96479895Y-89698592D01*
X96622024Y-89657012D01*
X96753130Y-89616224D01*
X96860924Y-89580221D01*
X96933115Y-89552998D01*
X96946088Y-89547092D01*
X97030002Y-89480448D01*
X97111495Y-89369892D01*
X97186577Y-89224963D01*
X97251255Y-89055198D01*
X97301537Y-88870136D01*
X97333431Y-88679316D01*
X97339991Y-88605895D01*
X97342412Y-88420305D01*
X97327368Y-88233182D01*
X97297255Y-88054373D01*
X97254470Y-87893724D01*
X97201410Y-87761082D01*
X97140474Y-87666293D01*
X97103116Y-87632963D01*
X97078716Y-87619946D01*
X97047178Y-87611446D01*
X97001439Y-87607712D01*
X96934434Y-87608995D01*
X96839099Y-87615544D01*
X96708372Y-87627609D01*
X96535187Y-87645439D01*
X96428363Y-87656819D01*
X96253706Y-87675931D01*
X96097595Y-87693760D01*
X95967626Y-87709379D01*
X95871398Y-87721856D01*
X95816509Y-87730264D01*
X95806663Y-87732847D01*
X94367722Y-87732847D01*
X94400624Y-87696755D01*
X94447050Y-87619269D01*
X94461264Y-87564916D01*
X94436336Y-87548592D01*
X94368403Y-87538631D01*
X94300842Y-87536421D01*
X94211121Y-87534410D01*
X94162638Y-87525728D01*
X94143227Y-87506406D01*
X94140421Y-87484074D01*
X94158026Y-87436362D01*
X94203262Y-87369808D01*
X94243229Y-87323652D01*
X94315707Y-87257865D01*
X94386097Y-87223403D01*
X94467876Y-87218591D01*
X94574519Y-87241751D01*
X94664288Y-87271271D01*
X94745221Y-87296749D01*
X94821996Y-87311879D01*
X94910565Y-87318152D01*
X95026881Y-87317056D01*
X95116316Y-87313497D01*
X95210448Y-87306188D01*
X95342689Y-87291808D01*
X95359482Y-87289716D01*
X97462580Y-87289716D01*
X97719869Y-87349668D01*
X97868926Y-87384977D01*
X98034419Y-87425068D01*
X98185853Y-87462536D01*
X98217790Y-87470587D01*
X98340986Y-87498667D01*
X98460103Y-87520498D01*
X98554981Y-87532550D01*
X98578737Y-87533805D01*
X98658101Y-87530499D01*
X98707370Y-87509501D01*
X98749489Y-87459913D01*
X98756603Y-87449344D01*
X98810900Y-87335018D01*
X98853122Y-87181265D01*
X98882061Y-87001012D01*
X98896508Y-86807191D01*
X98895255Y-86612730D01*
X98877093Y-86430559D01*
X98860027Y-86342680D01*
X98824550Y-86221304D01*
X98775401Y-86090251D01*
X98720411Y-85968000D01*
X98667412Y-85873025D01*
X98651326Y-85850343D01*
X98627252Y-85824548D01*
X98595046Y-85804248D01*
X98546837Y-85787779D01*
X98474751Y-85773477D01*
X98370918Y-85759677D01*
X98227464Y-85744715D01*
X98091136Y-85731914D01*
X97914692Y-85716575D01*
X97785700Y-85707823D01*
X97698515Y-85705936D01*
X97647487Y-85711190D01*
X97626970Y-85723862D01*
X97631317Y-85744228D01*
X97638373Y-85754118D01*
X97656802Y-85794274D01*
X97681850Y-85870503D01*
X97708266Y-85966738D01*
X97709660Y-85972316D01*
X97736363Y-86101781D01*
X97748197Y-86225432D01*
X97743801Y-86352622D01*
X97721814Y-86492701D01*
X97680876Y-86655024D01*
X97619625Y-86848941D01*
X97555460Y-87032069D01*
X97462580Y-87289716D01*
X95359482Y-87289716D01*
X95503203Y-87271812D01*
X95682159Y-87247656D01*
X95869721Y-87220797D01*
X96056055Y-87192689D01*
X96231329Y-87164790D01*
X96385708Y-87138555D01*
X96509358Y-87115439D01*
X96592446Y-87096900D01*
X96606808Y-87092819D01*
X96654274Y-87056149D01*
X96709793Y-86979220D01*
X96766958Y-86873253D01*
X96819362Y-86749469D01*
X96843944Y-86677503D01*
X96874101Y-86549083D01*
X96890275Y-86396170D01*
X96894316Y-86236444D01*
X96889607Y-86058441D01*
X96872007Y-85924608D01*
X96836312Y-85826199D01*
X96777314Y-85754466D01*
X96689809Y-85700661D01*
X96568590Y-85656035D01*
X96544614Y-85648838D01*
X96442711Y-85613620D01*
X96345692Y-85571664D01*
X96306106Y-85550645D01*
X96259764Y-85521681D01*
X96181499Y-85471293D01*
X96080249Y-85405377D01*
X95964953Y-85329826D01*
X95844548Y-85250534D01*
X95727972Y-85173396D01*
X95624163Y-85104305D01*
X95542061Y-85049157D01*
X95490602Y-85013844D01*
X95478276Y-85004737D01*
X95480740Y-84976873D01*
X95497857Y-84942849D01*
X95510079Y-84874318D01*
X95481370Y-84778957D01*
X95414033Y-84661404D01*
X95310372Y-84526297D01*
X95265887Y-84475669D01*
X95166750Y-84353288D01*
X95071244Y-84213386D01*
X95002966Y-84093082D01*
X94959680Y-84002839D01*
X94930586Y-83930099D01*
X94912423Y-83859470D01*
X94901930Y-83775559D01*
X94895846Y-83662975D01*
X94892904Y-83573523D01*
X94886521Y-83422775D01*
X94874579Y-83318070D01*
X94851972Y-83251979D01*
X94813591Y-83217071D01*
X94754331Y-83205919D01*
X94669083Y-83211093D01*
X94645600Y-83213772D01*
X94464327Y-83258106D01*
X94317112Y-83343170D01*
X94205361Y-83467347D01*
X94130480Y-83629020D01*
X94093875Y-83826571D01*
X94092257Y-83850234D01*
X94080085Y-84060502D01*
X94181538Y-84153430D01*
X94300426Y-84235002D01*
X94467965Y-84307649D01*
X94497867Y-84317918D01*
X94636641Y-84370984D01*
X94743262Y-84430213D01*
X94838759Y-84507361D01*
X94841876Y-84510267D01*
X94904186Y-84574181D01*
X94942984Y-84625228D01*
X94949900Y-84652164D01*
X94916826Y-84655962D01*
X94842195Y-84650815D01*
X94736971Y-84637836D01*
X94612115Y-84618140D01*
X94608133Y-84617449D01*
X94495164Y-84599291D01*
X94384406Y-84585282D01*
X94266272Y-84574872D01*
X94131178Y-84567513D01*
X93969537Y-84562654D01*
X93771764Y-84559745D01*
X93578948Y-84558444D01*
X93326738Y-84558263D01*
X93118497Y-84560801D01*
X92944749Y-84566941D01*
X92796020Y-84577568D01*
X92662837Y-84593566D01*
X92535724Y-84615819D01*
X92405207Y-84645211D01*
X92268842Y-84680712D01*
X92103566Y-84731101D01*
X91979291Y-84783549D01*
X91883755Y-84844816D01*
X91804693Y-84921662D01*
X91782170Y-84948996D01*
X91679571Y-85104177D01*
X91619612Y-85252594D01*
X91602588Y-85388921D01*
X90513329Y-85388921D01*
X90564554Y-85338209D01*
X90638182Y-85276643D01*
X90734650Y-85205356D01*
X90861088Y-85118856D01*
X91024624Y-85011653D01*
X91068618Y-84983242D01*
X91284942Y-84844657D01*
X91463410Y-84732702D01*
X91610490Y-84644093D01*
X91732649Y-84575547D01*
X91836355Y-84523778D01*
X91928074Y-84485503D01*
X92014275Y-84457437D01*
X92101424Y-84436297D01*
X92172082Y-84422873D01*
X92281059Y-84404225D01*
X92371036Y-84389479D01*
X92428223Y-84380866D01*
X92439450Y-84379595D01*
X92443245Y-84369970D01*
X92415895Y-84354737D01*
X92372882Y-84347300D01*
X92285960Y-84340640D01*
X92164695Y-84335192D01*
X92018650Y-84331394D01*
X91867790Y-84329719D01*
X91624904Y-84327213D01*
X91411466Y-84321988D01*
X91231825Y-84314313D01*
X91090328Y-84304457D01*
X90991326Y-84292690D01*
X90939167Y-84279281D01*
X90932000Y-84271727D01*
X90956461Y-84251626D01*
X91022972Y-84223663D01*
X91121227Y-84190848D01*
X91240919Y-84156194D01*
X91371744Y-84122710D01*
X91503393Y-84093407D01*
X91609201Y-84073882D01*
X91848977Y-84043547D01*
X92076456Y-84034454D01*
X92304930Y-84047659D01*
X92547688Y-84084216D01*
X92818021Y-84145180D01*
X92950363Y-84180349D01*
X93094709Y-84217147D01*
X93208839Y-84237709D01*
X93312577Y-84244652D01*
X93412997Y-84241450D01*
X93539199Y-84229548D01*
X93613825Y-84214572D01*
X93636541Y-84198374D01*
X93607014Y-84182808D01*
X93524909Y-84169726D01*
X93427193Y-84162589D01*
X93267547Y-84147880D01*
X93156215Y-84121189D01*
X93089083Y-84081068D01*
X93063553Y-84034660D01*
X93066695Y-83980577D01*
X93086656Y-83898249D01*
X93117155Y-83807656D01*
X93151911Y-83728780D01*
X93168622Y-83700420D01*
X93197303Y-83655394D01*
X93209388Y-83625754D01*
X93200908Y-83612999D01*
X93167892Y-83618629D01*
X93106370Y-83644142D01*
X93012371Y-83691039D01*
X92881925Y-83760817D01*
X92711062Y-83854977D01*
X92609301Y-83911630D01*
X92518397Y-83958000D01*
X92442284Y-83988978D01*
X92395112Y-83998973D01*
X92390594Y-83998040D01*
X92364298Y-83964882D01*
X92341518Y-83897830D01*
X92334471Y-83861334D01*
X92318712Y-83785275D01*
X92300035Y-83734113D01*
X92292151Y-83724303D01*
X92260310Y-83732022D01*
X92203733Y-83767605D01*
X92157201Y-83804447D01*
X92042498Y-83885164D01*
X91935013Y-83918355D01*
X91821370Y-83905842D01*
X91717459Y-83864358D01*
X91600122Y-83817521D01*
X91511937Y-83807627D01*
X91498097Y-83809718D01*
X91430963Y-83810802D01*
X91336693Y-83797733D01*
X91260687Y-83779956D01*
X91170620Y-83756170D01*
X91111382Y-83748375D01*
X91062528Y-83757391D01*
X91003610Y-83784039D01*
X90990308Y-83790798D01*
X90890385Y-83834502D01*
X90828245Y-83844870D01*
X90805461Y-83821821D01*
X90808638Y-83799948D01*
X90819322Y-83753590D01*
X90836049Y-83669421D01*
X90855909Y-83562347D01*
X90864765Y-83512527D01*
X90884922Y-83398868D01*
X90902797Y-83300347D01*
X90915560Y-83232472D01*
X90918721Y-83216806D01*
X90935630Y-83185131D01*
X90977868Y-83158964D01*
X91055804Y-83133315D01*
X91131764Y-83114262D01*
X91226787Y-83089728D01*
X91297522Y-83067401D01*
X91331396Y-83051363D01*
X91332652Y-83049036D01*
X91310090Y-83029873D01*
X91250841Y-82995538D01*
X91166934Y-82952909D01*
X91152179Y-82945851D01*
X90954963Y-82852086D01*
X90801139Y-82778336D01*
X90685638Y-82722013D01*
X90603392Y-82680529D01*
X90549330Y-82651297D01*
X90518383Y-82631729D01*
X90505482Y-82619236D01*
X90504211Y-82615051D01*
X90527890Y-82597495D01*
X90590538Y-82570938D01*
X90679570Y-82540581D01*
X90698053Y-82534926D01*
X90878452Y-82479593D01*
X91014934Y-82434067D01*
X91115222Y-82394266D01*
X91187040Y-82356111D01*
X91238110Y-82315523D01*
X91276154Y-82268421D01*
X91307856Y-82212771D01*
X91340254Y-82125208D01*
X91357228Y-82029493D01*
X91358278Y-81941200D01*
X91342902Y-81875903D01*
X91319478Y-81851064D01*
X91287449Y-81847434D01*
X91246489Y-81862330D01*
X91190332Y-81900295D01*
X91112710Y-81965871D01*
X91007356Y-82063600D01*
X90948718Y-82119770D01*
X90832697Y-82225431D01*
X90739753Y-82292256D01*
X90659965Y-82323487D01*
X90583409Y-82322364D01*
X90500162Y-82292128D01*
X90469462Y-82276275D01*
X90368021Y-82242827D01*
X90222224Y-82229742D01*
X90196737Y-82229486D01*
X90057617Y-82221247D01*
X89931923Y-82192692D01*
X89826780Y-82153852D01*
X89709070Y-82110912D01*
X89584658Y-82074121D01*
X89492569Y-82053743D01*
X89371119Y-82039052D01*
X89236962Y-82031107D01*
X89103619Y-82029753D01*
X88984606Y-82034836D01*
X88893445Y-82046204D01*
X88847296Y-82061093D01*
X88804393Y-82077603D01*
X88762706Y-82060374D01*
X88729618Y-82031833D01*
X88700228Y-82005619D01*
X88672231Y-81989863D01*
X88637578Y-81986539D01*
X88588222Y-81997621D01*
X88516116Y-82025084D01*
X88413211Y-82070903D01*
X88271462Y-82137052D01*
X88239400Y-82152116D01*
X88120509Y-82206337D01*
X88018219Y-82249913D01*
X87942590Y-82278777D01*
X87903683Y-82288861D01*
X87901845Y-82288580D01*
X87887623Y-82258363D01*
X87880585Y-82187801D01*
X87881029Y-82113906D01*
X87882329Y-82027855D01*
X87879005Y-81968013D01*
X87872714Y-81948421D01*
X87851232Y-81968480D01*
X87806358Y-82022196D01*
X87746010Y-82099878D01*
X87713946Y-82142733D01*
X87628060Y-82256501D01*
X87562840Y-82333490D01*
X87508450Y-82380848D01*
X87455056Y-82405719D01*
X87392824Y-82415250D01*
X87336997Y-82416624D01*
X87282419Y-82417161D01*
X87238797Y-82421812D01*
X87196942Y-82435557D01*
X87147665Y-82463378D01*
X87081775Y-82510257D01*
X86990084Y-82581175D01*
X86894826Y-82656316D01*
X86848736Y-82696613D01*
X86775926Y-82764674D01*
X86687248Y-82850212D01*
X86612803Y-82923685D01*
X86540135Y-82997175D01*
X86479405Y-83062922D01*
X86427125Y-83127596D01*
X86379810Y-83197872D01*
X86333976Y-83280421D01*
X86286136Y-83381917D01*
X86232804Y-83509031D01*
X86170497Y-83668437D01*
X86095727Y-83866807D01*
X86035229Y-84029401D01*
X86012079Y-84091749D01*
X85887297Y-84022007D01*
X85814966Y-83986750D01*
X85762125Y-83970508D01*
X85745281Y-83973027D01*
X85730177Y-84006830D01*
X85705118Y-84078539D01*
X85674745Y-84174618D01*
X85664842Y-84207685D01*
X85633100Y-84309481D01*
X85604319Y-84391927D01*
X85583470Y-84441070D01*
X85579462Y-84447283D01*
X85546092Y-84456367D01*
X85468804Y-84464148D01*
X85357151Y-84470036D01*
X85220685Y-84473439D01*
X85147567Y-84474020D01*
X84991198Y-84474691D01*
X84878249Y-84476794D01*
X84798668Y-84481838D01*
X84742400Y-84491332D01*
X84699393Y-84506785D01*
X84659593Y-84529705D01*
X84626503Y-84552216D01*
X84562746Y-84600559D01*
X84522457Y-84639106D01*
X84515158Y-84652311D01*
X84535017Y-84679786D01*
X84585942Y-84725447D01*
X84628790Y-84758570D01*
X84742421Y-84841896D01*
X85034505Y-84824822D01*
X85179151Y-84814830D01*
X85327420Y-84802038D01*
X85457022Y-84788471D01*
X85513071Y-84781300D01*
X85606958Y-84769920D01*
X85678078Y-84764923D01*
X85711878Y-84767302D01*
X85712431Y-84767729D01*
X85714278Y-84799085D01*
X85703802Y-84862928D01*
X85696441Y-84894335D01*
X85680339Y-84964543D01*
X85673535Y-85008425D01*
X85674252Y-85014743D01*
X85701372Y-85011991D01*
X85760457Y-84996850D01*
X85779579Y-84991145D01*
X85886959Y-84974830D01*
X85966312Y-85002883D01*
X86021858Y-85077738D01*
X86045001Y-85144202D01*
X86097602Y-85262921D01*
X86165374Y-85333320D01*
X86233870Y-85404963D01*
X86253053Y-85465801D01*
X86241309Y-85515762D01*
X86209518Y-85600149D01*
X86162844Y-85706229D01*
X86118396Y-85797882D01*
X86058200Y-85914926D01*
X86013653Y-85993078D01*
X85977206Y-86041625D01*
X85941312Y-86069856D01*
X85898422Y-86087059D01*
X85878893Y-86092590D01*
X85792546Y-86123453D01*
X85756325Y-86158655D01*
X85766886Y-86203019D01*
X85785708Y-86226924D01*
X85818433Y-86295919D01*
X85802939Y-86367503D01*
X85742785Y-86430912D01*
X85712265Y-86448966D01*
X85649471Y-86473980D01*
X85550040Y-86505823D01*
X85429541Y-86539740D01*
X85344000Y-86561443D01*
X85225403Y-86590469D01*
X85124239Y-86615874D01*
X85053030Y-86634475D01*
X85026623Y-86642112D01*
X85025145Y-86665549D01*
X85065804Y-86718855D01*
X85147429Y-86800534D01*
X85160307Y-86812529D01*
X85247340Y-86898475D01*
X85296522Y-86959610D01*
X85305315Y-86992725D01*
X85303895Y-86994354D01*
X85270502Y-87005650D01*
X85192471Y-87023390D01*
X85078033Y-87045973D01*
X84935415Y-87071801D01*
X84772845Y-87099272D01*
X84722369Y-87107442D01*
X84557563Y-87134735D01*
X84412230Y-87160499D01*
X84294091Y-87183225D01*
X84210872Y-87201402D01*
X84170296Y-87213520D01*
X84167579Y-87215891D01*
X84192484Y-87225010D01*
X84259926Y-87234591D01*
X84358996Y-87243376D01*
X84455000Y-87249047D01*
X84585701Y-87259332D01*
X84726353Y-87277203D01*
X84867065Y-87300560D01*
X84997949Y-87327303D01*
X85109115Y-87355333D01*
X85190675Y-87382550D01*
X85232739Y-87406856D01*
X85236309Y-87414920D01*
X85220502Y-87455772D01*
X85173401Y-87523460D01*
X85093244Y-87620048D01*
X84978265Y-87747602D01*
X84826701Y-87908190D01*
X84726867Y-88011589D01*
X84618329Y-88125185D01*
X84526175Y-88225289D01*
X84455632Y-88305912D01*
X84411928Y-88361063D01*
X84400292Y-88384752D01*
X84400884Y-88385102D01*
X84435702Y-88378383D01*
X84506655Y-88352743D01*
X84601838Y-88312744D01*
X84665812Y-88283660D01*
X84889963Y-88196760D01*
X85091847Y-88156518D01*
X85274445Y-88162457D01*
X85336861Y-88176032D01*
X85431040Y-88213111D01*
X85480731Y-88266495D01*
X85489998Y-88345017D01*
X85464332Y-88453174D01*
X85412154Y-88590498D01*
X85344007Y-88739199D01*
X85269845Y-88879262D01*
X85199627Y-88990675D01*
X85191300Y-89002020D01*
X85152734Y-89059462D01*
X85135904Y-89097162D01*
X85136849Y-89102814D01*
X85163138Y-89094762D01*
X85228798Y-89065001D01*
X85326172Y-89017275D01*
X85447605Y-88955333D01*
X85577470Y-88887163D01*
X85715413Y-88814396D01*
X85837165Y-88751246D01*
X85934859Y-88701706D01*
X86000629Y-88669770D01*
X86026246Y-88659369D01*
X86036057Y-88683662D01*
X86035677Y-88749288D01*
X86026451Y-88845363D01*
X86009723Y-88961004D01*
X85986836Y-89085329D01*
X85959134Y-89207454D01*
X85958011Y-89211880D01*
X85911535Y-89366545D01*
X85853266Y-89518545D01*
X85787847Y-89659372D01*
X85719922Y-89780518D01*
X85654134Y-89873474D01*
X85595127Y-89929732D01*
X85559172Y-89942737D01*
X85540809Y-89932572D01*
X85534082Y-89898225D01*
X85539760Y-89833921D01*
X85558612Y-89733885D01*
X85591409Y-89592341D01*
X85622448Y-89467938D01*
X85653595Y-89337838D01*
X85676535Y-89226991D01*
X85689502Y-89145243D01*
X85690731Y-89102435D01*
X85688671Y-89098729D01*
X85674358Y-89092683D01*
X85655768Y-89095173D01*
X85626545Y-89110640D01*
X85580335Y-89143527D01*
X85510782Y-89198276D01*
X85411531Y-89279330D01*
X85308126Y-89364732D01*
X85193496Y-89459152D01*
X85112109Y-89523749D01*
X85056063Y-89562856D01*
X85017458Y-89580804D01*
X84988389Y-89581924D01*
X84960957Y-89570549D01*
X84947179Y-89562589D01*
X84886703Y-89510795D01*
X84830518Y-89438124D01*
X84823336Y-89425910D01*
X84803165Y-89388823D01*
X84790309Y-89355842D01*
X84786252Y-89318763D01*
X84792477Y-89269380D01*
X84810466Y-89199490D01*
X84841704Y-89100887D01*
X84887675Y-88965366D01*
X84927526Y-88849624D01*
X84976744Y-88702125D01*
X85007034Y-88597558D01*
X85019267Y-88529184D01*
X85014317Y-88490262D01*
X84993056Y-88474053D01*
X84976369Y-88472360D01*
X84890005Y-88484869D01*
X84774764Y-88518260D01*
X84648239Y-88566957D01*
X84582286Y-88597229D01*
X84395228Y-88684174D01*
X84243720Y-88743822D01*
X84119152Y-88779033D01*
X84012914Y-88792664D01*
X83992522Y-88793053D01*
X83855145Y-88787405D01*
X83754834Y-88771346D01*
X83697590Y-88746205D01*
X83686316Y-88725270D01*
X83705366Y-88675365D01*
X83759966Y-88593699D01*
X83846292Y-88484690D01*
X83960518Y-88352757D01*
X84098820Y-88202320D01*
X84257372Y-88037797D01*
X84430942Y-87864982D01*
X84737974Y-87565227D01*
X84659987Y-87535377D01*
X84605051Y-87522805D01*
X84509088Y-87509243D01*
X84384493Y-87496135D01*
X84243657Y-87484928D01*
X84207685Y-87482613D01*
X84004550Y-87466632D01*
X83844814Y-87445037D01*
X83718500Y-87415442D01*
X83615629Y-87375463D01*
X83526226Y-87322713D01*
X83519804Y-87318189D01*
X83437035Y-87259253D01*
X83527683Y-87183576D01*
X83640540Y-87110722D01*
X83790725Y-87044739D01*
X83962096Y-86992070D01*
X84060632Y-86970911D01*
X84225418Y-86939361D01*
X84365742Y-86908865D01*
X84474471Y-86881233D01*
X84544474Y-86858274D01*
X84568632Y-86842076D01*
X84548776Y-86816869D01*
X84496050Y-86769162D01*
X84420713Y-86708063D01*
X84397866Y-86690482D01*
X84279384Y-86594979D01*
X84207656Y-86522269D01*
X84182691Y-86469179D01*
X84204495Y-86432540D01*
X84273076Y-86409179D01*
X84388441Y-86395926D01*
X84398547Y-86395278D01*
X84666584Y-86378237D01*
X84882628Y-86363362D01*
X85048115Y-86350532D01*
X85164477Y-86339630D01*
X85233147Y-86330535D01*
X85255038Y-86324191D01*
X85256623Y-86293213D01*
X85248795Y-86223076D01*
X85233865Y-86126794D01*
X85214140Y-86017382D01*
X85191930Y-85907853D01*
X85169543Y-85811223D01*
X85154119Y-85755342D01*
X85139581Y-85714786D01*
X85118795Y-85689095D01*
X85079964Y-85673509D01*
X85011292Y-85663266D01*
X84902340Y-85653715D01*
X84651171Y-85623106D01*
X84441656Y-85573530D01*
X84264228Y-85501379D01*
X84109322Y-85403042D01*
X84009295Y-85316818D01*
X83866542Y-85143746D01*
X83759215Y-84934547D01*
X83690557Y-84695803D01*
X83683515Y-84656148D01*
X83669380Y-84421783D01*
X83705813Y-84203888D01*
X83792394Y-84003864D01*
X83928704Y-83823111D01*
X83934505Y-83817011D01*
X84067471Y-83701351D01*
X84214967Y-83620492D01*
X84383791Y-83572948D01*
X84580740Y-83557234D01*
X84812613Y-83571865D01*
X84960755Y-83592843D01*
X85102162Y-83614292D01*
X85223543Y-83626276D01*
X85330944Y-83625750D01*
X85430411Y-83609668D01*
X85527992Y-83574986D01*
X85629731Y-83518658D01*
X85741677Y-83437641D01*
X85869875Y-83328889D01*
X86020373Y-83189357D01*
X86199216Y-83016000D01*
X86296679Y-82920102D01*
X86493685Y-82723752D01*
X86654598Y-82558636D01*
X86783315Y-82420489D01*
X86883732Y-82305046D01*
X86959748Y-82208041D01*
X86998521Y-82151927D01*
X87058011Y-82058199D01*
X87104434Y-81981177D01*
X87131290Y-81931845D01*
X87135369Y-81920625D01*
X87154234Y-81894782D01*
X87204342Y-81844233D01*
X87275957Y-81778634D01*
X87298051Y-81759305D01*
X87389519Y-81684836D01*
X87450404Y-81650772D01*
X87486675Y-81658492D01*
X87504304Y-81709374D01*
X87509261Y-81804795D01*
X87509275Y-81808053D01*
X87514942Y-81877461D01*
X87528710Y-81917663D01*
X87535528Y-81921685D01*
X87564354Y-81906063D01*
X87627601Y-81862851D01*
X87717669Y-81797525D01*
X87826956Y-81715562D01*
X87910297Y-81651629D01*
X88051828Y-81544003D01*
X88158364Y-81468528D01*
X88235595Y-81422659D01*
X88289214Y-81403850D01*
X88324913Y-81409553D01*
X88348383Y-81437223D01*
X88355146Y-81452621D01*
X88354979Y-81497441D01*
X88339332Y-81574756D01*
X88314434Y-81658945D01*
X88285629Y-81747381D01*
X88265384Y-81815535D01*
X88258316Y-81847116D01*
X88279600Y-81848246D01*
X88334628Y-81828349D01*
X88390911Y-81801921D01*
X88581613Y-81727672D01*
X88786341Y-81693598D01*
X89014621Y-81698629D01*
X89149060Y-81716894D01*
X89393507Y-81750886D01*
X89596844Y-81761201D01*
X89766745Y-81746065D01*
X89910884Y-81703698D01*
X90036935Y-81632325D01*
X90152572Y-81530169D01*
X90204199Y-81472566D01*
X90382414Y-81278777D01*
X90551537Y-81133492D01*
X90717981Y-81034038D01*
X90888162Y-80977745D01*
X91068492Y-80961940D01*
X91265385Y-80983950D01*
X91265385Y-80983950D01*
G37*
X91265385Y-80983950D02*
X91338687Y-80999921D01*
X91566265Y-81069470D01*
X91749220Y-81159522D01*
X91893981Y-81274668D01*
X92006975Y-81419499D01*
X92057969Y-81513594D01*
X92098924Y-81603858D01*
X92122712Y-81675437D01*
X92132848Y-81748265D01*
X92132846Y-81842274D01*
X92129361Y-81918628D01*
X92104631Y-82110741D01*
X92048006Y-82291591D01*
X91954275Y-82474278D01*
X91842320Y-82639724D01*
X91750352Y-82794680D01*
X91710686Y-82942526D01*
X91723343Y-83087375D01*
X91788343Y-83233342D01*
X91845613Y-83314582D01*
X91952698Y-83450054D01*
X92028935Y-83364663D01*
X92091512Y-83282827D01*
X92145257Y-83193822D01*
X92151075Y-83182005D01*
X92240471Y-83016682D01*
X92332684Y-82896841D01*
X92428938Y-82817574D01*
X92520961Y-82764844D01*
X92578106Y-82749414D01*
X92606496Y-82774257D01*
X92612255Y-82842345D01*
X92607491Y-82904264D01*
X92593763Y-83048205D01*
X92582100Y-83190673D01*
X92573080Y-83321896D01*
X92567277Y-83432098D01*
X92565270Y-83511508D01*
X92567633Y-83550350D01*
X92569252Y-83552632D01*
X92596763Y-83541709D01*
X92663672Y-83511637D01*
X92761192Y-83466461D01*
X92880540Y-83410226D01*
X92940333Y-83381767D01*
X93159791Y-83277326D01*
X93356352Y-83184449D01*
X93525575Y-83105194D01*
X93663019Y-83041622D01*
X93764240Y-82995791D01*
X93824798Y-82969761D01*
X93840514Y-82964421D01*
X93845287Y-82988689D01*
X93844928Y-83052117D01*
X93839924Y-83135258D01*
X93825715Y-83235977D01*
X93796624Y-83327380D01*
X93746763Y-83419636D01*
X93670246Y-83522917D01*
X93561184Y-83647390D01*
X93514205Y-83697876D01*
X93444979Y-83774006D01*
X93392832Y-83836141D01*
X93366570Y-83873625D01*
X93365053Y-83878349D01*
X93389655Y-83888585D01*
X93454949Y-83896255D01*
X93548170Y-83900031D01*
X93575070Y-83900211D01*
X93785087Y-83900211D01*
X93800706Y-83713902D01*
X93840310Y-83493111D01*
X93918960Y-83308821D01*
X94036525Y-83161139D01*
X94192875Y-83050171D01*
X94387878Y-82976022D01*
X94621404Y-82938800D01*
X94761742Y-82934083D01*
X94940781Y-82947364D01*
X95076387Y-82986634D01*
X95172649Y-83053372D01*
X95205213Y-83094262D01*
X95223200Y-83130662D01*
X95235806Y-83181874D01*
X95243890Y-83256930D01*
X95248312Y-83364864D01*
X95249932Y-83514709D01*
X95250000Y-83564845D01*
X95251118Y-83739999D01*
X95257521Y-83873461D01*
X95273787Y-83977006D01*
X95304490Y-84062409D01*
X95354209Y-84141448D01*
X95427519Y-84225897D01*
X95528996Y-84327534D01*
X95556963Y-84354737D01*
X95704291Y-84511473D01*
X95814443Y-84661917D01*
X95864500Y-84749468D01*
X96003113Y-84963272D01*
X96174124Y-85134563D01*
X96376911Y-85262891D01*
X96610855Y-85347805D01*
X96720527Y-85370800D01*
X96781829Y-85377236D01*
X96888336Y-85384191D01*
X97031786Y-85391300D01*
X97203917Y-85398203D01*
X97396468Y-85404539D01*
X97601176Y-85409945D01*
X97629579Y-85410590D01*
X97856394Y-85416036D01*
X98091285Y-85422378D01*
X98321572Y-85429227D01*
X98534578Y-85436188D01*
X98717623Y-85442871D01*
X98840655Y-85448061D01*
X99004390Y-85456176D01*
X99123408Y-85463919D01*
X99206438Y-85472686D01*
X99262207Y-85483872D01*
X99299443Y-85498875D01*
X99326875Y-85519088D01*
X99335287Y-85527164D01*
X99350685Y-85543710D01*
X99363187Y-85563065D01*
X99373148Y-85590677D01*
X99380922Y-85631990D01*
X99386864Y-85692452D01*
X99391328Y-85777507D01*
X99394669Y-85892603D01*
X99397242Y-86043184D01*
X99399400Y-86234697D01*
X99401500Y-86472588D01*
X99402177Y-86554556D01*
X99403864Y-86855073D01*
X99403517Y-87104207D01*
X99401094Y-87304010D01*
X99396551Y-87456536D01*
X99389845Y-87563838D01*
X99380934Y-87627969D01*
X99379474Y-87633742D01*
X99362888Y-87717309D01*
X99371447Y-87784505D01*
X99394618Y-87840978D01*
X99422309Y-87907187D01*
X99424552Y-87950887D01*
X99401885Y-87996306D01*
X99398175Y-88002018D01*
X99362524Y-88044557D01*
X99316663Y-88071381D01*
X99253242Y-88082376D01*
X99164910Y-88077431D01*
X99044316Y-88056434D01*
X98884109Y-88019272D01*
X98778998Y-87992562D01*
X98635136Y-87955832D01*
X98508296Y-87924416D01*
X98408014Y-87900601D01*
X98343825Y-87886671D01*
X98326118Y-87884000D01*
X98306359Y-87909703D01*
X98278069Y-87984435D01*
X98242390Y-88104637D01*
X98200463Y-88266746D01*
X98191134Y-88305106D01*
X98150922Y-88471752D01*
X98109590Y-88642537D01*
X98071177Y-88800799D01*
X98039725Y-88929879D01*
X98030676Y-88966842D01*
X98006765Y-89072256D01*
X97991479Y-89155854D01*
X97986788Y-89205833D01*
X97989294Y-89214665D01*
X98019040Y-89210529D01*
X98093543Y-89195138D01*
X98205659Y-89170115D01*
X98348248Y-89137084D01*
X98514164Y-89097666D01*
X98665848Y-89060928D01*
X98885746Y-89007558D01*
X99059398Y-88966389D01*
X99192377Y-88936409D01*
X99290255Y-88916609D01*
X99358601Y-88905979D01*
X99402989Y-88903509D01*
X99428989Y-88908188D01*
X99442172Y-88919006D01*
X99442809Y-88920053D01*
X99442602Y-88955396D01*
X99428985Y-89022750D01*
X99417438Y-89065056D01*
X99390616Y-89135362D01*
X99351565Y-89192336D01*
X99292643Y-89240552D01*
X99206210Y-89284579D01*
X99084624Y-89328989D01*
X98920242Y-89378355D01*
X98870367Y-89392339D01*
X98708601Y-89438168D01*
X98520369Y-89492898D01*
X98330196Y-89549332D01*
X98177685Y-89595620D01*
X98038315Y-89638340D01*
X97909457Y-89677476D01*
X97803631Y-89709252D01*
X97733355Y-89729888D01*
X97723158Y-89732767D01*
X97651154Y-89753721D01*
X97549211Y-89784546D01*
X97438341Y-89818883D01*
X97429053Y-89821799D01*
X97313446Y-89857722D01*
X97169612Y-89901813D01*
X97020588Y-89947027D01*
X96947790Y-89968916D01*
X96814028Y-90009445D01*
X96681797Y-90050307D01*
X96570134Y-90085584D01*
X96520000Y-90101916D01*
X96447749Y-90125513D01*
X96357423Y-90154139D01*
X96243025Y-90189634D01*
X96098557Y-90233840D01*
X95918019Y-90288596D01*
X95695413Y-90355744D01*
X95557474Y-90397241D01*
X95251354Y-90494573D01*
X94988841Y-90590675D01*
X94760403Y-90690317D01*
X94556512Y-90798268D01*
X94367636Y-90919297D01*
X94184245Y-91058173D01*
X94105477Y-91123901D01*
X93996623Y-91210933D01*
X93914976Y-91261321D01*
X93853371Y-91279380D01*
X93846980Y-91279579D01*
X93749469Y-91290107D01*
X93695513Y-91320419D01*
X93685895Y-91348362D01*
X93698131Y-91388525D01*
X93730332Y-91460081D01*
X93775738Y-91548107D01*
X93779474Y-91554932D01*
X93825210Y-91640429D01*
X93858547Y-91707113D01*
X93872913Y-91741776D01*
X93873053Y-91743010D01*
X93847068Y-91746917D01*
X93772109Y-91750093D01*
X93652671Y-91752553D01*
X93493248Y-91754310D01*
X93298336Y-91755377D01*
X93072429Y-91755769D01*
X92820022Y-91755498D01*
X92545609Y-91754579D01*
X92253685Y-91753025D01*
X91948745Y-91750850D01*
X91635284Y-91748067D01*
X91317796Y-91744689D01*
X91000776Y-91740731D01*
X90688718Y-91736206D01*
X90477474Y-91732740D01*
X90226136Y-91728852D01*
X89933145Y-91725077D01*
X89610320Y-91721525D01*
X89269480Y-91718302D01*
X88922446Y-91715517D01*
X88581037Y-91713275D01*
X88257074Y-91711686D01*
X88106400Y-91711172D01*
X86764694Y-91707369D01*
X86709400Y-91629715D01*
X86672260Y-91569858D01*
X86654389Y-91525927D01*
X86654106Y-91522539D01*
X86666412Y-91487416D01*
X86700736Y-91413174D01*
X86753181Y-91307469D01*
X86773272Y-91268442D01*
X87166753Y-91268442D01*
X87170164Y-91361931D01*
X87209315Y-91433443D01*
X87215579Y-91440000D01*
X87239673Y-91460119D01*
X87271105Y-91474473D01*
X87318564Y-91484021D01*
X87390739Y-91489724D01*
X87496320Y-91492543D01*
X87643997Y-91493437D01*
X87699488Y-91493474D01*
X88129923Y-91493474D01*
X87994942Y-91339737D01*
X87822364Y-91146048D01*
X87694001Y-91007419D01*
X88386866Y-91007419D01*
X88417335Y-91030572D01*
X88494185Y-91047939D01*
X88505632Y-91050016D01*
X88566164Y-91067247D01*
X88598484Y-91098310D01*
X88604801Y-91153057D01*
X88587321Y-91241344D01*
X88565500Y-91317250D01*
X88542686Y-91396509D01*
X88528281Y-91454348D01*
X88525685Y-91470812D01*
X88551722Y-91474545D01*
X88627036Y-91478272D01*
X88747431Y-91481929D01*
X88908709Y-91485453D01*
X89106673Y-91488782D01*
X89337128Y-91491850D01*
X89595876Y-91494596D01*
X89878720Y-91496956D01*
X90181464Y-91498866D01*
X90470790Y-91500161D01*
X90792737Y-91501407D01*
X91102156Y-91502761D01*
X91394408Y-91504193D01*
X91664851Y-91505674D01*
X91908848Y-91507173D01*
X92121757Y-91508660D01*
X92298939Y-91510106D01*
X92435754Y-91511480D01*
X92527563Y-91512752D01*
X92566130Y-91513704D01*
X92665630Y-91511900D01*
X92792998Y-91501230D01*
X92923781Y-91483868D01*
X92948442Y-91479740D01*
X93070390Y-91452557D01*
X93196190Y-91414610D01*
X93315157Y-91370375D01*
X93416604Y-91324327D01*
X93489846Y-91280944D01*
X93524197Y-91244701D01*
X93525474Y-91238033D01*
X93512302Y-91203504D01*
X93475660Y-91130885D01*
X93419858Y-91027779D01*
X93349206Y-90901786D01*
X93268013Y-90760509D01*
X93180590Y-90611550D01*
X93091246Y-90462510D01*
X93018471Y-90343790D01*
X92944984Y-90224261D01*
X92898310Y-90141596D01*
X92877077Y-90087214D01*
X92879913Y-90052537D01*
X92905445Y-90028986D01*
X92952301Y-90007980D01*
X92964012Y-90003368D01*
X93029421Y-89973572D01*
X93067226Y-89948407D01*
X93070948Y-89941850D01*
X93052568Y-89915833D01*
X93003797Y-89864227D01*
X92934192Y-89796993D01*
X92914537Y-89778801D01*
X92829681Y-89697103D01*
X92752562Y-89616257D01*
X92710817Y-89566911D01*
X93124421Y-89566911D01*
X93143986Y-89594198D01*
X93201016Y-89654582D01*
X93293019Y-89745625D01*
X93417502Y-89864888D01*
X93571971Y-90009934D01*
X93679808Y-90109985D01*
X93778891Y-90210689D01*
X93833812Y-90293201D01*
X93846732Y-90366044D01*
X93819811Y-90437738D01*
X93777029Y-90493368D01*
X93688518Y-90621471D01*
X93653283Y-90748890D01*
X93671203Y-90877753D01*
X93742156Y-91010187D01*
X93746880Y-91016652D01*
X93807151Y-91075539D01*
X93875554Y-91089387D01*
X93966015Y-91061101D01*
X94004154Y-91039401D01*
X94029770Y-91008219D01*
X94047465Y-90955638D01*
X94061843Y-90869743D01*
X94072020Y-90786685D01*
X94089839Y-90684983D01*
X94121888Y-90605868D01*
X94176121Y-90541920D01*
X94260490Y-90485719D01*
X94382948Y-90429846D01*
X94503588Y-90384049D01*
X94682321Y-90302632D01*
X94815426Y-90205422D01*
X94899734Y-90094814D01*
X94907264Y-90078850D01*
X94922046Y-90017048D01*
X94934149Y-89911363D01*
X94943473Y-89771321D01*
X94949918Y-89606449D01*
X94953386Y-89426276D01*
X94953777Y-89240329D01*
X94950992Y-89058134D01*
X94944932Y-88889220D01*
X94935497Y-88743113D01*
X94922590Y-88629341D01*
X94922372Y-88627947D01*
X94879986Y-88438953D01*
X94817088Y-88265644D01*
X94739668Y-88122842D01*
X94694687Y-88064474D01*
X94637360Y-88008748D01*
X94593115Y-87996787D01*
X94544747Y-88028283D01*
X94512714Y-88061236D01*
X94398577Y-88148579D01*
X94261059Y-88197599D01*
X94185563Y-88204842D01*
X94122062Y-88196226D01*
X94023998Y-88173027D01*
X93906955Y-88139222D01*
X93830441Y-88114251D01*
X93651937Y-88056606D01*
X93510456Y-88018137D01*
X93409187Y-87999481D01*
X93351320Y-88001276D01*
X93338316Y-88016002D01*
X93349689Y-88052717D01*
X93379803Y-88123012D01*
X93422654Y-88213068D01*
X93432480Y-88232740D01*
X93579423Y-88556228D01*
X93682449Y-88857246D01*
X93743270Y-89141209D01*
X93756859Y-89259264D01*
X93764452Y-89343047D01*
X93765536Y-89401928D01*
X93752438Y-89441401D01*
X93717481Y-89466960D01*
X93652994Y-89484098D01*
X93551301Y-89498309D01*
X93404728Y-89515085D01*
X93398474Y-89515811D01*
X93284982Y-89530752D01*
X93194410Y-89545978D01*
X93137853Y-89559420D01*
X93124421Y-89566911D01*
X92710817Y-89566911D01*
X92698768Y-89552669D01*
X92695614Y-89548369D01*
X92633102Y-89461474D01*
X92693570Y-89379687D01*
X92731227Y-89319319D01*
X92734269Y-89279357D01*
X92722061Y-89259372D01*
X92682894Y-89226597D01*
X92664938Y-89220842D01*
X92629072Y-89209826D01*
X92561568Y-89181238D01*
X92493762Y-89149338D01*
X92406724Y-89101986D01*
X92356285Y-89055149D01*
X92330281Y-88990967D01*
X92325187Y-88954109D01*
X92713943Y-88954109D01*
X92746387Y-88972633D01*
X92817693Y-89006536D01*
X92917234Y-89050944D01*
X93030842Y-89099499D01*
X93151261Y-89149963D01*
X93257583Y-89194538D01*
X93337789Y-89228182D01*
X93378421Y-89245251D01*
X93433578Y-89252148D01*
X93474800Y-89232298D01*
X93484796Y-89196102D01*
X93479605Y-89184392D01*
X93456797Y-89152613D01*
X93406781Y-89086161D01*
X93335280Y-88992494D01*
X93248018Y-88879069D01*
X93150719Y-88753344D01*
X93049106Y-88622776D01*
X93017921Y-88582861D01*
X92975628Y-88543007D01*
X92942996Y-88535512D01*
X92942868Y-88535589D01*
X92911635Y-88569251D01*
X92868142Y-88633442D01*
X92819536Y-88715098D01*
X92772963Y-88801155D01*
X92735567Y-88878550D01*
X92714495Y-88934218D01*
X92713943Y-88954109D01*
X92325187Y-88954109D01*
X92316544Y-88891579D01*
X92316279Y-88888773D01*
X92305065Y-88839918D01*
X92273751Y-88806836D01*
X92208733Y-88777698D01*
X92175264Y-88766165D01*
X92082366Y-88723632D01*
X92033028Y-88674886D01*
X92031158Y-88624889D01*
X92046935Y-88603213D01*
X92081136Y-88591281D01*
X92157726Y-88575581D01*
X92265924Y-88558017D01*
X92394949Y-88540494D01*
X92417074Y-88537790D01*
X92553368Y-88520934D01*
X92675466Y-88505000D01*
X92770835Y-88491680D01*
X92826945Y-88482666D01*
X92830065Y-88482034D01*
X92867528Y-88471882D01*
X92871090Y-88457846D01*
X92836292Y-88431002D01*
X92789960Y-88401821D01*
X92669859Y-88331618D01*
X92541231Y-88263384D01*
X92418017Y-88203893D01*
X92314160Y-88159922D01*
X92250358Y-88139557D01*
X92181101Y-88130293D01*
X92126019Y-88139870D01*
X92081859Y-88174022D01*
X92045367Y-88238483D01*
X92013293Y-88338986D01*
X91982383Y-88481265D01*
X91949597Y-88669756D01*
X91913371Y-88857671D01*
X91871823Y-89014556D01*
X91828254Y-89128494D01*
X91733050Y-89273778D01*
X91598751Y-89411214D01*
X91439516Y-89528138D01*
X91302027Y-89599095D01*
X91201950Y-89640941D01*
X91073133Y-89694881D01*
X90936140Y-89752304D01*
X90865158Y-89782082D01*
X90556418Y-89908289D01*
X90288430Y-90009972D01*
X90055213Y-90088593D01*
X89850786Y-90145620D01*
X89669168Y-90182515D01*
X89504378Y-90200744D01*
X89350434Y-90201772D01*
X89207643Y-90187984D01*
X89066725Y-90160850D01*
X88913698Y-90120942D01*
X88780160Y-90076570D01*
X88772392Y-90073524D01*
X88662635Y-90032569D01*
X88588370Y-90012652D01*
X88537074Y-90011273D01*
X88506960Y-90020523D01*
X88461397Y-90050867D01*
X88449129Y-90092966D01*
X88469657Y-90158687D01*
X88498678Y-90216586D01*
X88566799Y-90387225D01*
X88582979Y-90551391D01*
X88546880Y-90713481D01*
X88458161Y-90877891D01*
X88446343Y-90894683D01*
X88398097Y-90966212D01*
X88386866Y-91007419D01*
X87694001Y-91007419D01*
X87678110Y-90990258D01*
X87563118Y-90873293D01*
X87478330Y-90796082D01*
X87424685Y-90759550D01*
X87405972Y-90758859D01*
X87381252Y-90793999D01*
X87339983Y-90864104D01*
X87289592Y-90956341D01*
X87269741Y-90994246D01*
X87199730Y-91147654D01*
X87166753Y-91268442D01*
X86773272Y-91268442D01*
X86819853Y-91177958D01*
X86896857Y-91032297D01*
X86980298Y-90878143D01*
X87002123Y-90838421D01*
X87050225Y-90750435D01*
X87111924Y-90636595D01*
X87175668Y-90518237D01*
X87190354Y-90490842D01*
X87249302Y-90380807D01*
X87305532Y-90275911D01*
X87349306Y-90194320D01*
X87358887Y-90176483D01*
X87412873Y-90076018D01*
X87360723Y-89968218D01*
X87857264Y-89968218D01*
X87864509Y-90071737D01*
X87884764Y-90136980D01*
X87911673Y-90156632D01*
X87940740Y-90141587D01*
X88002971Y-90100754D01*
X88088867Y-90040586D01*
X88177134Y-89976291D01*
X88420644Y-89795949D01*
X88313229Y-89750330D01*
X88221449Y-89716509D01*
X88131650Y-89691110D01*
X88116370Y-89687931D01*
X88056665Y-89682630D01*
X88010511Y-89700264D01*
X87957941Y-89749983D01*
X87942095Y-89767769D01*
X87882258Y-89851663D01*
X87858799Y-89934065D01*
X87857264Y-89968218D01*
X87360723Y-89968218D01*
X87321315Y-89886759D01*
X87275819Y-89795987D01*
X87237604Y-89725665D01*
X87213581Y-89688364D01*
X87210831Y-89685802D01*
X87189565Y-89702023D01*
X87154145Y-89763320D01*
X87107319Y-89864037D01*
X87051833Y-89998518D01*
X87024319Y-90069737D01*
X86991990Y-90146293D01*
X86964124Y-90197277D01*
X86950808Y-90210106D01*
X86922359Y-90185508D01*
X86887048Y-90117798D01*
X86849440Y-90016102D01*
X86842220Y-89993064D01*
X86826539Y-89854893D01*
X86855067Y-89705285D01*
X86922944Y-89554051D01*
X87025308Y-89411002D01*
X87157298Y-89285951D01*
X87212033Y-89246629D01*
X87295848Y-89194058D01*
X87347002Y-89171611D01*
X87375186Y-89176768D01*
X87388263Y-89200790D01*
X87430039Y-89324853D01*
X87473844Y-89441922D01*
X87515300Y-89541615D01*
X87550033Y-89613550D01*
X87573667Y-89647345D01*
X87577029Y-89648632D01*
X87596748Y-89624790D01*
X87626345Y-89560733D01*
X87661013Y-89467662D01*
X87681199Y-89405923D01*
X87717092Y-89293529D01*
X87743339Y-89223522D01*
X87765492Y-89187020D01*
X87789101Y-89175140D01*
X87819719Y-89179000D01*
X87822573Y-89179707D01*
X87908809Y-89207920D01*
X88034904Y-89259536D01*
X88202958Y-89335474D01*
X88415072Y-89436652D01*
X88458842Y-89457981D01*
X88767510Y-89597366D01*
X89041124Y-89696692D01*
X89279952Y-89756046D01*
X89391715Y-89771256D01*
X89589457Y-89775232D01*
X89812626Y-89756767D01*
X90039476Y-89718603D01*
X90248260Y-89663481D01*
X90249341Y-89663129D01*
X90444239Y-89589061D01*
X90655277Y-89490987D01*
X90869574Y-89376344D01*
X91074251Y-89252570D01*
X91256425Y-89127102D01*
X91403219Y-89007377D01*
X91431627Y-88980448D01*
X91481830Y-88929640D01*
X91524123Y-88881029D01*
X91560208Y-88828919D01*
X91591789Y-88767615D01*
X91620569Y-88691421D01*
X91648251Y-88594639D01*
X91676539Y-88471574D01*
X91707136Y-88316530D01*
X91741745Y-88123810D01*
X91782069Y-87887719D01*
X91812310Y-87707353D01*
X91853899Y-87492211D01*
X91901220Y-87318521D01*
X91958377Y-87174286D01*
X92029470Y-87047509D01*
X92046722Y-87021737D01*
X92108783Y-86952240D01*
X92168895Y-86920667D01*
X92216993Y-86932128D01*
X92219180Y-86934197D01*
X92218570Y-86963972D01*
X92206264Y-87033042D01*
X92184629Y-87129115D01*
X92171548Y-87181513D01*
X92130606Y-87369591D01*
X92113501Y-87520629D01*
X92120070Y-87631835D01*
X92150152Y-87700415D01*
X92202941Y-87723579D01*
X92225329Y-87710869D01*
X92237595Y-87666315D01*
X92241977Y-87580284D01*
X92242106Y-87554900D01*
X92246934Y-87432653D01*
X92267534Y-87353489D01*
X92313081Y-87308665D01*
X92392748Y-87289441D01*
X92515709Y-87287076D01*
X92523015Y-87287240D01*
X92625587Y-87288937D01*
X92686562Y-87282832D01*
X92708710Y-87260913D01*
X92694802Y-87215168D01*
X92647608Y-87137584D01*
X92599743Y-87065304D01*
X92552187Y-86989329D01*
X92521802Y-86932222D01*
X92515149Y-86906887D01*
X92546079Y-86895833D01*
X92613778Y-86879715D01*
X92685595Y-86865430D01*
X92770715Y-86848738D01*
X92831407Y-86834909D01*
X92852166Y-86828087D01*
X92845887Y-86801851D01*
X92820739Y-86743010D01*
X92795112Y-86690185D01*
X92753289Y-86599366D01*
X92704704Y-86481981D01*
X92659345Y-86362248D01*
X92656163Y-86353316D01*
X92621359Y-86258119D01*
X92592938Y-86185982D01*
X92575632Y-86148729D01*
X92573185Y-86146106D01*
X92554629Y-86166549D01*
X92518465Y-86218396D01*
X92497223Y-86251283D01*
X92418581Y-86360875D01*
X92343056Y-86428800D01*
X92258243Y-86464559D01*
X92207195Y-86473499D01*
X92098799Y-86504885D01*
X91963085Y-86575446D01*
X91907895Y-86610436D01*
X91807605Y-86674829D01*
X91740710Y-86710425D01*
X91697146Y-86719587D01*
X91666853Y-86704681D01*
X91642690Y-86672751D01*
X91637348Y-86649889D01*
X91649624Y-86617412D01*
X91684111Y-86569472D01*
X91745403Y-86500222D01*
X91838094Y-86403812D01*
X91914832Y-86326345D01*
X92016948Y-86222590D01*
X92104188Y-86131377D01*
X92170138Y-86059620D01*
X92208383Y-86014233D01*
X92215369Y-86002396D01*
X92190919Y-85992747D01*
X92126392Y-85988120D01*
X92035022Y-85989360D01*
X92021527Y-85990014D01*
X91881328Y-86005163D01*
X91756101Y-86039331D01*
X91641248Y-86087901D01*
X91550558Y-86132226D01*
X91480125Y-86169749D01*
X91442942Y-86193477D01*
X91440722Y-86195830D01*
X91409546Y-86225440D01*
X91370812Y-86254603D01*
X91224957Y-86368852D01*
X91063792Y-86521233D01*
X90885335Y-86713934D01*
X90687604Y-86949142D01*
X90468617Y-87229046D01*
X90373844Y-87355063D01*
X90276554Y-87479830D01*
X90157173Y-87624142D01*
X90031268Y-87769581D01*
X89921105Y-87890626D01*
X89778731Y-88043430D01*
X89665435Y-88169060D01*
X89572541Y-88278215D01*
X89491373Y-88381592D01*
X89413257Y-88489886D01*
X89329516Y-88613797D01*
X89307523Y-88647190D01*
X89190861Y-88811357D01*
X89080235Y-88934649D01*
X88964785Y-89026928D01*
X88833653Y-89098054D01*
X88791035Y-89116175D01*
X88596355Y-89169295D01*
X88408074Y-89171385D01*
X88230534Y-89124848D01*
X88068076Y-89032087D01*
X87925041Y-88895507D01*
X87805770Y-88717510D01*
X87722579Y-88524610D01*
X87696936Y-88442836D01*
X87681123Y-88369440D01*
X87673827Y-88289294D01*
X87673736Y-88187268D01*
X87675386Y-88147709D01*
X87990948Y-88147709D01*
X88002770Y-88290670D01*
X88034759Y-88439233D01*
X88081696Y-88576366D01*
X88138363Y-88685037D01*
X88166639Y-88721184D01*
X88268511Y-88799635D01*
X88402603Y-88860081D01*
X88548495Y-88893930D01*
X88584988Y-88897264D01*
X88624015Y-88881682D01*
X88691165Y-88837576D01*
X88775278Y-88772700D01*
X88826312Y-88729593D01*
X88927235Y-88637388D01*
X89026431Y-88539724D01*
X89107081Y-88453372D01*
X89127915Y-88428803D01*
X89271809Y-88253907D01*
X89398076Y-88103931D01*
X89502716Y-87983500D01*
X89581729Y-87897240D01*
X89622310Y-87857264D01*
X89660126Y-87805770D01*
X89695275Y-87730734D01*
X89700240Y-87716512D01*
X89717825Y-87646987D01*
X89713610Y-87588922D01*
X89684802Y-87515990D01*
X89677301Y-87500308D01*
X89633666Y-87424463D01*
X89581900Y-87370271D01*
X89513804Y-87335581D01*
X89421176Y-87318238D01*
X89295815Y-87316092D01*
X89129521Y-87326989D01*
X89046748Y-87334813D01*
X88934441Y-87344229D01*
X88857692Y-87344052D01*
X88799138Y-87332357D01*
X88741416Y-87307217D01*
X88726302Y-87299261D01*
X88645968Y-87263750D01*
X88573644Y-87243858D01*
X88555973Y-87242316D01*
X88456509Y-87267347D01*
X88354684Y-87336733D01*
X88255841Y-87441912D01*
X88165322Y-87574324D01*
X88088470Y-87725407D01*
X88030628Y-87886601D01*
X87997138Y-88049343D01*
X87990948Y-88147709D01*
X87675386Y-88147709D01*
X87679537Y-88048232D01*
X87680180Y-88035757D01*
X87685935Y-87861238D01*
X87682417Y-87738308D01*
X87669643Y-87667471D01*
X87666966Y-87661441D01*
X87634392Y-87614507D01*
X87577389Y-87547263D01*
X87506110Y-87470089D01*
X87430708Y-87393360D01*
X87361335Y-87327456D01*
X87308145Y-87282753D01*
X87283194Y-87269177D01*
X87248259Y-87286186D01*
X87193159Y-87328772D01*
X87170240Y-87349387D01*
X87098073Y-87410087D01*
X87053958Y-87426328D01*
X87033291Y-87395995D01*
X87031471Y-87316975D01*
X87033643Y-87286656D01*
X87056846Y-87166369D01*
X87108030Y-87064264D01*
X87192051Y-86976697D01*
X87313763Y-86900020D01*
X87478022Y-86830589D01*
X87689682Y-86764759D01*
X87750316Y-86748503D01*
X87862922Y-86718404D01*
X87965241Y-86689075D01*
X88064642Y-86657724D01*
X88168497Y-86621559D01*
X88284174Y-86577788D01*
X88419046Y-86523620D01*
X88580482Y-86456262D01*
X88775853Y-86372923D01*
X89012528Y-86270812D01*
X89020316Y-86267441D01*
X89093135Y-86238786D01*
X89189014Y-86204581D01*
X89241235Y-86187153D01*
X89338316Y-86147054D01*
X89451357Y-86087885D01*
X89544091Y-86030212D01*
X89703909Y-85922927D01*
X89832478Y-85842795D01*
X89940364Y-85783640D01*
X90038134Y-85739284D01*
X90049685Y-85734665D01*
X90178878Y-85681006D01*
X90271708Y-85633475D01*
X90342780Y-85582022D01*
X90406698Y-85516597D01*
X90457307Y-85454141D01*
X90506638Y-85395545D01*
X90513329Y-85388921D01*
X91602588Y-85388921D01*
X91628796Y-85507832D01*
X91698530Y-85604000D01*
X91743904Y-85638257D01*
X91812068Y-85661497D01*
X91921966Y-85676603D01*
X92062530Y-85683900D01*
X92222695Y-85683712D01*
X92391392Y-85676363D01*
X92557556Y-85662177D01*
X92710118Y-85641477D01*
X92838013Y-85614589D01*
X92870210Y-85605273D01*
X93000475Y-85537378D01*
X93113838Y-85424667D01*
X93203179Y-85274896D01*
X93226917Y-85216639D01*
X93267151Y-85124006D01*
X93311553Y-85048330D01*
X93345452Y-85010475D01*
X93409382Y-84981868D01*
X93482191Y-84970346D01*
X93542040Y-84977642D01*
X93563555Y-84993146D01*
X93557540Y-85023171D01*
X93533102Y-85095581D01*
X93492833Y-85203589D01*
X93439326Y-85340410D01*
X93375172Y-85499256D01*
X93311133Y-85653872D01*
X93220494Y-85872894D01*
X93150683Y-86048803D01*
X93100247Y-86187098D01*
X93067735Y-86293276D01*
X93051696Y-86372837D01*
X93050679Y-86431279D01*
X93063232Y-86474101D01*
X93086401Y-86505318D01*
X93150127Y-86556784D01*
X93212025Y-86587806D01*
X93254404Y-86589547D01*
X93254695Y-86589371D01*
X93271821Y-86558873D01*
X93297875Y-86489793D01*
X93328069Y-86395234D01*
X93337613Y-86362470D01*
X93381920Y-86233834D01*
X93431758Y-86133324D01*
X93482412Y-86067925D01*
X93529165Y-86044624D01*
X93548433Y-86050192D01*
X93568159Y-86083706D01*
X93591052Y-86152929D01*
X93606671Y-86217697D01*
X93618406Y-86390501D01*
X93585796Y-86585537D01*
X93508336Y-86805334D01*
X93475081Y-86879015D01*
X93390638Y-87082743D01*
X93346133Y-87254054D01*
X93341572Y-87396096D01*
X93376959Y-87512016D01*
X93452299Y-87604960D01*
X93476254Y-87624144D01*
X93556790Y-87669504D01*
X93673080Y-87717462D01*
X93808002Y-87762652D01*
X93944433Y-87799709D01*
X94065251Y-87823269D01*
X94129579Y-87828841D01*
X94228688Y-87822731D01*
X94297790Y-87797223D01*
X94333517Y-87770369D01*
X94367722Y-87732847D01*
X95806663Y-87732847D01*
X95809984Y-87761245D01*
X95829412Y-87823940D01*
X95852939Y-87887208D01*
X95917967Y-88088827D01*
X95959747Y-88309401D01*
X95978802Y-88556265D01*
X95975658Y-88836753D01*
X95950836Y-89158200D01*
X95946603Y-89198240D01*
X95928087Y-89381183D01*
X95913874Y-89546272D01*
X95904585Y-89684467D01*
X95900836Y-89786728D01*
X95902677Y-89840319D01*
X95906257Y-89846343D01*
X95919141Y-89848025D01*
X95947606Y-89843824D01*
X95997928Y-89832198D01*
X96076385Y-89811606D01*
X96189253Y-89780508D01*
X96342809Y-89737362D01*
X96479895Y-89698592D01*
X96622024Y-89657012D01*
X96753130Y-89616224D01*
X96860924Y-89580221D01*
X96933115Y-89552998D01*
X96946088Y-89547092D01*
X97030002Y-89480448D01*
X97111495Y-89369892D01*
X97186577Y-89224963D01*
X97251255Y-89055198D01*
X97301537Y-88870136D01*
X97333431Y-88679316D01*
X97339991Y-88605895D01*
X97342412Y-88420305D01*
X97327368Y-88233182D01*
X97297255Y-88054373D01*
X97254470Y-87893724D01*
X97201410Y-87761082D01*
X97140474Y-87666293D01*
X97103116Y-87632963D01*
X97078716Y-87619946D01*
X97047178Y-87611446D01*
X97001439Y-87607712D01*
X96934434Y-87608995D01*
X96839099Y-87615544D01*
X96708372Y-87627609D01*
X96535187Y-87645439D01*
X96428363Y-87656819D01*
X96253706Y-87675931D01*
X96097595Y-87693760D01*
X95967626Y-87709379D01*
X95871398Y-87721856D01*
X95816509Y-87730264D01*
X95806663Y-87732847D01*
X94367722Y-87732847D01*
X94400624Y-87696755D01*
X94447050Y-87619269D01*
X94461264Y-87564916D01*
X94436336Y-87548592D01*
X94368403Y-87538631D01*
X94300842Y-87536421D01*
X94211121Y-87534410D01*
X94162638Y-87525728D01*
X94143227Y-87506406D01*
X94140421Y-87484074D01*
X94158026Y-87436362D01*
X94203262Y-87369808D01*
X94243229Y-87323652D01*
X94315707Y-87257865D01*
X94386097Y-87223403D01*
X94467876Y-87218591D01*
X94574519Y-87241751D01*
X94664288Y-87271271D01*
X94745221Y-87296749D01*
X94821996Y-87311879D01*
X94910565Y-87318152D01*
X95026881Y-87317056D01*
X95116316Y-87313497D01*
X95210448Y-87306188D01*
X95342689Y-87291808D01*
X95359482Y-87289716D01*
X97462580Y-87289716D01*
X97719869Y-87349668D01*
X97868926Y-87384977D01*
X98034419Y-87425068D01*
X98185853Y-87462536D01*
X98217790Y-87470587D01*
X98340986Y-87498667D01*
X98460103Y-87520498D01*
X98554981Y-87532550D01*
X98578737Y-87533805D01*
X98658101Y-87530499D01*
X98707370Y-87509501D01*
X98749489Y-87459913D01*
X98756603Y-87449344D01*
X98810900Y-87335018D01*
X98853122Y-87181265D01*
X98882061Y-87001012D01*
X98896508Y-86807191D01*
X98895255Y-86612730D01*
X98877093Y-86430559D01*
X98860027Y-86342680D01*
X98824550Y-86221304D01*
X98775401Y-86090251D01*
X98720411Y-85968000D01*
X98667412Y-85873025D01*
X98651326Y-85850343D01*
X98627252Y-85824548D01*
X98595046Y-85804248D01*
X98546837Y-85787779D01*
X98474751Y-85773477D01*
X98370918Y-85759677D01*
X98227464Y-85744715D01*
X98091136Y-85731914D01*
X97914692Y-85716575D01*
X97785700Y-85707823D01*
X97698515Y-85705936D01*
X97647487Y-85711190D01*
X97626970Y-85723862D01*
X97631317Y-85744228D01*
X97638373Y-85754118D01*
X97656802Y-85794274D01*
X97681850Y-85870503D01*
X97708266Y-85966738D01*
X97709660Y-85972316D01*
X97736363Y-86101781D01*
X97748197Y-86225432D01*
X97743801Y-86352622D01*
X97721814Y-86492701D01*
X97680876Y-86655024D01*
X97619625Y-86848941D01*
X97555460Y-87032069D01*
X97462580Y-87289716D01*
X95359482Y-87289716D01*
X95503203Y-87271812D01*
X95682159Y-87247656D01*
X95869721Y-87220797D01*
X96056055Y-87192689D01*
X96231329Y-87164790D01*
X96385708Y-87138555D01*
X96509358Y-87115439D01*
X96592446Y-87096900D01*
X96606808Y-87092819D01*
X96654274Y-87056149D01*
X96709793Y-86979220D01*
X96766958Y-86873253D01*
X96819362Y-86749469D01*
X96843944Y-86677503D01*
X96874101Y-86549083D01*
X96890275Y-86396170D01*
X96894316Y-86236444D01*
X96889607Y-86058441D01*
X96872007Y-85924608D01*
X96836312Y-85826199D01*
X96777314Y-85754466D01*
X96689809Y-85700661D01*
X96568590Y-85656035D01*
X96544614Y-85648838D01*
X96442711Y-85613620D01*
X96345692Y-85571664D01*
X96306106Y-85550645D01*
X96259764Y-85521681D01*
X96181499Y-85471293D01*
X96080249Y-85405377D01*
X95964953Y-85329826D01*
X95844548Y-85250534D01*
X95727972Y-85173396D01*
X95624163Y-85104305D01*
X95542061Y-85049157D01*
X95490602Y-85013844D01*
X95478276Y-85004737D01*
X95480740Y-84976873D01*
X95497857Y-84942849D01*
X95510079Y-84874318D01*
X95481370Y-84778957D01*
X95414033Y-84661404D01*
X95310372Y-84526297D01*
X95265887Y-84475669D01*
X95166750Y-84353288D01*
X95071244Y-84213386D01*
X95002966Y-84093082D01*
X94959680Y-84002839D01*
X94930586Y-83930099D01*
X94912423Y-83859470D01*
X94901930Y-83775559D01*
X94895846Y-83662975D01*
X94892904Y-83573523D01*
X94886521Y-83422775D01*
X94874579Y-83318070D01*
X94851972Y-83251979D01*
X94813591Y-83217071D01*
X94754331Y-83205919D01*
X94669083Y-83211093D01*
X94645600Y-83213772D01*
X94464327Y-83258106D01*
X94317112Y-83343170D01*
X94205361Y-83467347D01*
X94130480Y-83629020D01*
X94093875Y-83826571D01*
X94092257Y-83850234D01*
X94080085Y-84060502D01*
X94181538Y-84153430D01*
X94300426Y-84235002D01*
X94467965Y-84307649D01*
X94497867Y-84317918D01*
X94636641Y-84370984D01*
X94743262Y-84430213D01*
X94838759Y-84507361D01*
X94841876Y-84510267D01*
X94904186Y-84574181D01*
X94942984Y-84625228D01*
X94949900Y-84652164D01*
X94916826Y-84655962D01*
X94842195Y-84650815D01*
X94736971Y-84637836D01*
X94612115Y-84618140D01*
X94608133Y-84617449D01*
X94495164Y-84599291D01*
X94384406Y-84585282D01*
X94266272Y-84574872D01*
X94131178Y-84567513D01*
X93969537Y-84562654D01*
X93771764Y-84559745D01*
X93578948Y-84558444D01*
X93326738Y-84558263D01*
X93118497Y-84560801D01*
X92944749Y-84566941D01*
X92796020Y-84577568D01*
X92662837Y-84593566D01*
X92535724Y-84615819D01*
X92405207Y-84645211D01*
X92268842Y-84680712D01*
X92103566Y-84731101D01*
X91979291Y-84783549D01*
X91883755Y-84844816D01*
X91804693Y-84921662D01*
X91782170Y-84948996D01*
X91679571Y-85104177D01*
X91619612Y-85252594D01*
X91602588Y-85388921D01*
X90513329Y-85388921D01*
X90564554Y-85338209D01*
X90638182Y-85276643D01*
X90734650Y-85205356D01*
X90861088Y-85118856D01*
X91024624Y-85011653D01*
X91068618Y-84983242D01*
X91284942Y-84844657D01*
X91463410Y-84732702D01*
X91610490Y-84644093D01*
X91732649Y-84575547D01*
X91836355Y-84523778D01*
X91928074Y-84485503D01*
X92014275Y-84457437D01*
X92101424Y-84436297D01*
X92172082Y-84422873D01*
X92281059Y-84404225D01*
X92371036Y-84389479D01*
X92428223Y-84380866D01*
X92439450Y-84379595D01*
X92443245Y-84369970D01*
X92415895Y-84354737D01*
X92372882Y-84347300D01*
X92285960Y-84340640D01*
X92164695Y-84335192D01*
X92018650Y-84331394D01*
X91867790Y-84329719D01*
X91624904Y-84327213D01*
X91411466Y-84321988D01*
X91231825Y-84314313D01*
X91090328Y-84304457D01*
X90991326Y-84292690D01*
X90939167Y-84279281D01*
X90932000Y-84271727D01*
X90956461Y-84251626D01*
X91022972Y-84223663D01*
X91121227Y-84190848D01*
X91240919Y-84156194D01*
X91371744Y-84122710D01*
X91503393Y-84093407D01*
X91609201Y-84073882D01*
X91848977Y-84043547D01*
X92076456Y-84034454D01*
X92304930Y-84047659D01*
X92547688Y-84084216D01*
X92818021Y-84145180D01*
X92950363Y-84180349D01*
X93094709Y-84217147D01*
X93208839Y-84237709D01*
X93312577Y-84244652D01*
X93412997Y-84241450D01*
X93539199Y-84229548D01*
X93613825Y-84214572D01*
X93636541Y-84198374D01*
X93607014Y-84182808D01*
X93524909Y-84169726D01*
X93427193Y-84162589D01*
X93267547Y-84147880D01*
X93156215Y-84121189D01*
X93089083Y-84081068D01*
X93063553Y-84034660D01*
X93066695Y-83980577D01*
X93086656Y-83898249D01*
X93117155Y-83807656D01*
X93151911Y-83728780D01*
X93168622Y-83700420D01*
X93197303Y-83655394D01*
X93209388Y-83625754D01*
X93200908Y-83612999D01*
X93167892Y-83618629D01*
X93106370Y-83644142D01*
X93012371Y-83691039D01*
X92881925Y-83760817D01*
X92711062Y-83854977D01*
X92609301Y-83911630D01*
X92518397Y-83958000D01*
X92442284Y-83988978D01*
X92395112Y-83998973D01*
X92390594Y-83998040D01*
X92364298Y-83964882D01*
X92341518Y-83897830D01*
X92334471Y-83861334D01*
X92318712Y-83785275D01*
X92300035Y-83734113D01*
X92292151Y-83724303D01*
X92260310Y-83732022D01*
X92203733Y-83767605D01*
X92157201Y-83804447D01*
X92042498Y-83885164D01*
X91935013Y-83918355D01*
X91821370Y-83905842D01*
X91717459Y-83864358D01*
X91600122Y-83817521D01*
X91511937Y-83807627D01*
X91498097Y-83809718D01*
X91430963Y-83810802D01*
X91336693Y-83797733D01*
X91260687Y-83779956D01*
X91170620Y-83756170D01*
X91111382Y-83748375D01*
X91062528Y-83757391D01*
X91003610Y-83784039D01*
X90990308Y-83790798D01*
X90890385Y-83834502D01*
X90828245Y-83844870D01*
X90805461Y-83821821D01*
X90808638Y-83799948D01*
X90819322Y-83753590D01*
X90836049Y-83669421D01*
X90855909Y-83562347D01*
X90864765Y-83512527D01*
X90884922Y-83398868D01*
X90902797Y-83300347D01*
X90915560Y-83232472D01*
X90918721Y-83216806D01*
X90935630Y-83185131D01*
X90977868Y-83158964D01*
X91055804Y-83133315D01*
X91131764Y-83114262D01*
X91226787Y-83089728D01*
X91297522Y-83067401D01*
X91331396Y-83051363D01*
X91332652Y-83049036D01*
X91310090Y-83029873D01*
X91250841Y-82995538D01*
X91166934Y-82952909D01*
X91152179Y-82945851D01*
X90954963Y-82852086D01*
X90801139Y-82778336D01*
X90685638Y-82722013D01*
X90603392Y-82680529D01*
X90549330Y-82651297D01*
X90518383Y-82631729D01*
X90505482Y-82619236D01*
X90504211Y-82615051D01*
X90527890Y-82597495D01*
X90590538Y-82570938D01*
X90679570Y-82540581D01*
X90698053Y-82534926D01*
X90878452Y-82479593D01*
X91014934Y-82434067D01*
X91115222Y-82394266D01*
X91187040Y-82356111D01*
X91238110Y-82315523D01*
X91276154Y-82268421D01*
X91307856Y-82212771D01*
X91340254Y-82125208D01*
X91357228Y-82029493D01*
X91358278Y-81941200D01*
X91342902Y-81875903D01*
X91319478Y-81851064D01*
X91287449Y-81847434D01*
X91246489Y-81862330D01*
X91190332Y-81900295D01*
X91112710Y-81965871D01*
X91007356Y-82063600D01*
X90948718Y-82119770D01*
X90832697Y-82225431D01*
X90739753Y-82292256D01*
X90659965Y-82323487D01*
X90583409Y-82322364D01*
X90500162Y-82292128D01*
X90469462Y-82276275D01*
X90368021Y-82242827D01*
X90222224Y-82229742D01*
X90196737Y-82229486D01*
X90057617Y-82221247D01*
X89931923Y-82192692D01*
X89826780Y-82153852D01*
X89709070Y-82110912D01*
X89584658Y-82074121D01*
X89492569Y-82053743D01*
X89371119Y-82039052D01*
X89236962Y-82031107D01*
X89103619Y-82029753D01*
X88984606Y-82034836D01*
X88893445Y-82046204D01*
X88847296Y-82061093D01*
X88804393Y-82077603D01*
X88762706Y-82060374D01*
X88729618Y-82031833D01*
X88700228Y-82005619D01*
X88672231Y-81989863D01*
X88637578Y-81986539D01*
X88588222Y-81997621D01*
X88516116Y-82025084D01*
X88413211Y-82070903D01*
X88271462Y-82137052D01*
X88239400Y-82152116D01*
X88120509Y-82206337D01*
X88018219Y-82249913D01*
X87942590Y-82278777D01*
X87903683Y-82288861D01*
X87901845Y-82288580D01*
X87887623Y-82258363D01*
X87880585Y-82187801D01*
X87881029Y-82113906D01*
X87882329Y-82027855D01*
X87879005Y-81968013D01*
X87872714Y-81948421D01*
X87851232Y-81968480D01*
X87806358Y-82022196D01*
X87746010Y-82099878D01*
X87713946Y-82142733D01*
X87628060Y-82256501D01*
X87562840Y-82333490D01*
X87508450Y-82380848D01*
X87455056Y-82405719D01*
X87392824Y-82415250D01*
X87336997Y-82416624D01*
X87282419Y-82417161D01*
X87238797Y-82421812D01*
X87196942Y-82435557D01*
X87147665Y-82463378D01*
X87081775Y-82510257D01*
X86990084Y-82581175D01*
X86894826Y-82656316D01*
X86848736Y-82696613D01*
X86775926Y-82764674D01*
X86687248Y-82850212D01*
X86612803Y-82923685D01*
X86540135Y-82997175D01*
X86479405Y-83062922D01*
X86427125Y-83127596D01*
X86379810Y-83197872D01*
X86333976Y-83280421D01*
X86286136Y-83381917D01*
X86232804Y-83509031D01*
X86170497Y-83668437D01*
X86095727Y-83866807D01*
X86035229Y-84029401D01*
X86012079Y-84091749D01*
X85887297Y-84022007D01*
X85814966Y-83986750D01*
X85762125Y-83970508D01*
X85745281Y-83973027D01*
X85730177Y-84006830D01*
X85705118Y-84078539D01*
X85674745Y-84174618D01*
X85664842Y-84207685D01*
X85633100Y-84309481D01*
X85604319Y-84391927D01*
X85583470Y-84441070D01*
X85579462Y-84447283D01*
X85546092Y-84456367D01*
X85468804Y-84464148D01*
X85357151Y-84470036D01*
X85220685Y-84473439D01*
X85147567Y-84474020D01*
X84991198Y-84474691D01*
X84878249Y-84476794D01*
X84798668Y-84481838D01*
X84742400Y-84491332D01*
X84699393Y-84506785D01*
X84659593Y-84529705D01*
X84626503Y-84552216D01*
X84562746Y-84600559D01*
X84522457Y-84639106D01*
X84515158Y-84652311D01*
X84535017Y-84679786D01*
X84585942Y-84725447D01*
X84628790Y-84758570D01*
X84742421Y-84841896D01*
X85034505Y-84824822D01*
X85179151Y-84814830D01*
X85327420Y-84802038D01*
X85457022Y-84788471D01*
X85513071Y-84781300D01*
X85606958Y-84769920D01*
X85678078Y-84764923D01*
X85711878Y-84767302D01*
X85712431Y-84767729D01*
X85714278Y-84799085D01*
X85703802Y-84862928D01*
X85696441Y-84894335D01*
X85680339Y-84964543D01*
X85673535Y-85008425D01*
X85674252Y-85014743D01*
X85701372Y-85011991D01*
X85760457Y-84996850D01*
X85779579Y-84991145D01*
X85886959Y-84974830D01*
X85966312Y-85002883D01*
X86021858Y-85077738D01*
X86045001Y-85144202D01*
X86097602Y-85262921D01*
X86165374Y-85333320D01*
X86233870Y-85404963D01*
X86253053Y-85465801D01*
X86241309Y-85515762D01*
X86209518Y-85600149D01*
X86162844Y-85706229D01*
X86118396Y-85797882D01*
X86058200Y-85914926D01*
X86013653Y-85993078D01*
X85977206Y-86041625D01*
X85941312Y-86069856D01*
X85898422Y-86087059D01*
X85878893Y-86092590D01*
X85792546Y-86123453D01*
X85756325Y-86158655D01*
X85766886Y-86203019D01*
X85785708Y-86226924D01*
X85818433Y-86295919D01*
X85802939Y-86367503D01*
X85742785Y-86430912D01*
X85712265Y-86448966D01*
X85649471Y-86473980D01*
X85550040Y-86505823D01*
X85429541Y-86539740D01*
X85344000Y-86561443D01*
X85225403Y-86590469D01*
X85124239Y-86615874D01*
X85053030Y-86634475D01*
X85026623Y-86642112D01*
X85025145Y-86665549D01*
X85065804Y-86718855D01*
X85147429Y-86800534D01*
X85160307Y-86812529D01*
X85247340Y-86898475D01*
X85296522Y-86959610D01*
X85305315Y-86992725D01*
X85303895Y-86994354D01*
X85270502Y-87005650D01*
X85192471Y-87023390D01*
X85078033Y-87045973D01*
X84935415Y-87071801D01*
X84772845Y-87099272D01*
X84722369Y-87107442D01*
X84557563Y-87134735D01*
X84412230Y-87160499D01*
X84294091Y-87183225D01*
X84210872Y-87201402D01*
X84170296Y-87213520D01*
X84167579Y-87215891D01*
X84192484Y-87225010D01*
X84259926Y-87234591D01*
X84358996Y-87243376D01*
X84455000Y-87249047D01*
X84585701Y-87259332D01*
X84726353Y-87277203D01*
X84867065Y-87300560D01*
X84997949Y-87327303D01*
X85109115Y-87355333D01*
X85190675Y-87382550D01*
X85232739Y-87406856D01*
X85236309Y-87414920D01*
X85220502Y-87455772D01*
X85173401Y-87523460D01*
X85093244Y-87620048D01*
X84978265Y-87747602D01*
X84826701Y-87908190D01*
X84726867Y-88011589D01*
X84618329Y-88125185D01*
X84526175Y-88225289D01*
X84455632Y-88305912D01*
X84411928Y-88361063D01*
X84400292Y-88384752D01*
X84400884Y-88385102D01*
X84435702Y-88378383D01*
X84506655Y-88352743D01*
X84601838Y-88312744D01*
X84665812Y-88283660D01*
X84889963Y-88196760D01*
X85091847Y-88156518D01*
X85274445Y-88162457D01*
X85336861Y-88176032D01*
X85431040Y-88213111D01*
X85480731Y-88266495D01*
X85489998Y-88345017D01*
X85464332Y-88453174D01*
X85412154Y-88590498D01*
X85344007Y-88739199D01*
X85269845Y-88879262D01*
X85199627Y-88990675D01*
X85191300Y-89002020D01*
X85152734Y-89059462D01*
X85135904Y-89097162D01*
X85136849Y-89102814D01*
X85163138Y-89094762D01*
X85228798Y-89065001D01*
X85326172Y-89017275D01*
X85447605Y-88955333D01*
X85577470Y-88887163D01*
X85715413Y-88814396D01*
X85837165Y-88751246D01*
X85934859Y-88701706D01*
X86000629Y-88669770D01*
X86026246Y-88659369D01*
X86036057Y-88683662D01*
X86035677Y-88749288D01*
X86026451Y-88845363D01*
X86009723Y-88961004D01*
X85986836Y-89085329D01*
X85959134Y-89207454D01*
X85958011Y-89211880D01*
X85911535Y-89366545D01*
X85853266Y-89518545D01*
X85787847Y-89659372D01*
X85719922Y-89780518D01*
X85654134Y-89873474D01*
X85595127Y-89929732D01*
X85559172Y-89942737D01*
X85540809Y-89932572D01*
X85534082Y-89898225D01*
X85539760Y-89833921D01*
X85558612Y-89733885D01*
X85591409Y-89592341D01*
X85622448Y-89467938D01*
X85653595Y-89337838D01*
X85676535Y-89226991D01*
X85689502Y-89145243D01*
X85690731Y-89102435D01*
X85688671Y-89098729D01*
X85674358Y-89092683D01*
X85655768Y-89095173D01*
X85626545Y-89110640D01*
X85580335Y-89143527D01*
X85510782Y-89198276D01*
X85411531Y-89279330D01*
X85308126Y-89364732D01*
X85193496Y-89459152D01*
X85112109Y-89523749D01*
X85056063Y-89562856D01*
X85017458Y-89580804D01*
X84988389Y-89581924D01*
X84960957Y-89570549D01*
X84947179Y-89562589D01*
X84886703Y-89510795D01*
X84830518Y-89438124D01*
X84823336Y-89425910D01*
X84803165Y-89388823D01*
X84790309Y-89355842D01*
X84786252Y-89318763D01*
X84792477Y-89269380D01*
X84810466Y-89199490D01*
X84841704Y-89100887D01*
X84887675Y-88965366D01*
X84927526Y-88849624D01*
X84976744Y-88702125D01*
X85007034Y-88597558D01*
X85019267Y-88529184D01*
X85014317Y-88490262D01*
X84993056Y-88474053D01*
X84976369Y-88472360D01*
X84890005Y-88484869D01*
X84774764Y-88518260D01*
X84648239Y-88566957D01*
X84582286Y-88597229D01*
X84395228Y-88684174D01*
X84243720Y-88743822D01*
X84119152Y-88779033D01*
X84012914Y-88792664D01*
X83992522Y-88793053D01*
X83855145Y-88787405D01*
X83754834Y-88771346D01*
X83697590Y-88746205D01*
X83686316Y-88725270D01*
X83705366Y-88675365D01*
X83759966Y-88593699D01*
X83846292Y-88484690D01*
X83960518Y-88352757D01*
X84098820Y-88202320D01*
X84257372Y-88037797D01*
X84430942Y-87864982D01*
X84737974Y-87565227D01*
X84659987Y-87535377D01*
X84605051Y-87522805D01*
X84509088Y-87509243D01*
X84384493Y-87496135D01*
X84243657Y-87484928D01*
X84207685Y-87482613D01*
X84004550Y-87466632D01*
X83844814Y-87445037D01*
X83718500Y-87415442D01*
X83615629Y-87375463D01*
X83526226Y-87322713D01*
X83519804Y-87318189D01*
X83437035Y-87259253D01*
X83527683Y-87183576D01*
X83640540Y-87110722D01*
X83790725Y-87044739D01*
X83962096Y-86992070D01*
X84060632Y-86970911D01*
X84225418Y-86939361D01*
X84365742Y-86908865D01*
X84474471Y-86881233D01*
X84544474Y-86858274D01*
X84568632Y-86842076D01*
X84548776Y-86816869D01*
X84496050Y-86769162D01*
X84420713Y-86708063D01*
X84397866Y-86690482D01*
X84279384Y-86594979D01*
X84207656Y-86522269D01*
X84182691Y-86469179D01*
X84204495Y-86432540D01*
X84273076Y-86409179D01*
X84388441Y-86395926D01*
X84398547Y-86395278D01*
X84666584Y-86378237D01*
X84882628Y-86363362D01*
X85048115Y-86350532D01*
X85164477Y-86339630D01*
X85233147Y-86330535D01*
X85255038Y-86324191D01*
X85256623Y-86293213D01*
X85248795Y-86223076D01*
X85233865Y-86126794D01*
X85214140Y-86017382D01*
X85191930Y-85907853D01*
X85169543Y-85811223D01*
X85154119Y-85755342D01*
X85139581Y-85714786D01*
X85118795Y-85689095D01*
X85079964Y-85673509D01*
X85011292Y-85663266D01*
X84902340Y-85653715D01*
X84651171Y-85623106D01*
X84441656Y-85573530D01*
X84264228Y-85501379D01*
X84109322Y-85403042D01*
X84009295Y-85316818D01*
X83866542Y-85143746D01*
X83759215Y-84934547D01*
X83690557Y-84695803D01*
X83683515Y-84656148D01*
X83669380Y-84421783D01*
X83705813Y-84203888D01*
X83792394Y-84003864D01*
X83928704Y-83823111D01*
X83934505Y-83817011D01*
X84067471Y-83701351D01*
X84214967Y-83620492D01*
X84383791Y-83572948D01*
X84580740Y-83557234D01*
X84812613Y-83571865D01*
X84960755Y-83592843D01*
X85102162Y-83614292D01*
X85223543Y-83626276D01*
X85330944Y-83625750D01*
X85430411Y-83609668D01*
X85527992Y-83574986D01*
X85629731Y-83518658D01*
X85741677Y-83437641D01*
X85869875Y-83328889D01*
X86020373Y-83189357D01*
X86199216Y-83016000D01*
X86296679Y-82920102D01*
X86493685Y-82723752D01*
X86654598Y-82558636D01*
X86783315Y-82420489D01*
X86883732Y-82305046D01*
X86959748Y-82208041D01*
X86998521Y-82151927D01*
X87058011Y-82058199D01*
X87104434Y-81981177D01*
X87131290Y-81931845D01*
X87135369Y-81920625D01*
X87154234Y-81894782D01*
X87204342Y-81844233D01*
X87275957Y-81778634D01*
X87298051Y-81759305D01*
X87389519Y-81684836D01*
X87450404Y-81650772D01*
X87486675Y-81658492D01*
X87504304Y-81709374D01*
X87509261Y-81804795D01*
X87509275Y-81808053D01*
X87514942Y-81877461D01*
X87528710Y-81917663D01*
X87535528Y-81921685D01*
X87564354Y-81906063D01*
X87627601Y-81862851D01*
X87717669Y-81797525D01*
X87826956Y-81715562D01*
X87910297Y-81651629D01*
X88051828Y-81544003D01*
X88158364Y-81468528D01*
X88235595Y-81422659D01*
X88289214Y-81403850D01*
X88324913Y-81409553D01*
X88348383Y-81437223D01*
X88355146Y-81452621D01*
X88354979Y-81497441D01*
X88339332Y-81574756D01*
X88314434Y-81658945D01*
X88285629Y-81747381D01*
X88265384Y-81815535D01*
X88258316Y-81847116D01*
X88279600Y-81848246D01*
X88334628Y-81828349D01*
X88390911Y-81801921D01*
X88581613Y-81727672D01*
X88786341Y-81693598D01*
X89014621Y-81698629D01*
X89149060Y-81716894D01*
X89393507Y-81750886D01*
X89596844Y-81761201D01*
X89766745Y-81746065D01*
X89910884Y-81703698D01*
X90036935Y-81632325D01*
X90152572Y-81530169D01*
X90204199Y-81472566D01*
X90382414Y-81278777D01*
X90551537Y-81133492D01*
X90717981Y-81034038D01*
X90888162Y-80977745D01*
X91068492Y-80961940D01*
X91265385Y-80983950D01*
D12*
X70411801Y-57529000D02*
X70411801Y-57129000D01*
X70611801Y-57329000D02*
X70211801Y-57329000D01*
X66261000Y-56504000D02*
X66261000Y-55764000D01*
X66301000Y-56671000D02*
X66301000Y-55597000D01*
X66341000Y-56798000D02*
X66341000Y-55470000D01*
X66381000Y-56902000D02*
X66381000Y-55366000D01*
X66421000Y-56993000D02*
X66421000Y-55275000D01*
X66461000Y-57074000D02*
X66461000Y-55194000D01*
X66501000Y-57147000D02*
X66501000Y-55121000D01*
X66541000Y-55294000D02*
X66541000Y-55054000D01*
X66541000Y-57214000D02*
X66541000Y-56974000D01*
X66581000Y-55294000D02*
X66581000Y-54992000D01*
X66581000Y-57276000D02*
X66581000Y-56974000D01*
X66621000Y-55294000D02*
X66621000Y-54934000D01*
X66621000Y-57334000D02*
X66621000Y-56974000D01*
X66661000Y-55294000D02*
X66661000Y-54880000D01*
X66661000Y-57388000D02*
X66661000Y-56974000D01*
X66701000Y-55294000D02*
X66701000Y-54830000D01*
X66701000Y-57438000D02*
X66701000Y-56974000D01*
X66741000Y-55294000D02*
X66741000Y-54783000D01*
X66741000Y-57485000D02*
X66741000Y-56974000D01*
X66781000Y-55294000D02*
X66781000Y-54738000D01*
X66781000Y-57530000D02*
X66781000Y-56974000D01*
X66821000Y-55294000D02*
X66821000Y-54696000D01*
X66821000Y-57572000D02*
X66821000Y-56974000D01*
X66861000Y-55294000D02*
X66861000Y-54656000D01*
X66861000Y-57612000D02*
X66861000Y-56974000D01*
X66901000Y-55294000D02*
X66901000Y-54618000D01*
X66901000Y-57650000D02*
X66901000Y-56974000D01*
X66941000Y-55294000D02*
X66941000Y-54582000D01*
X66941000Y-57686000D02*
X66941000Y-56974000D01*
X66981000Y-55294000D02*
X66981000Y-54547000D01*
X66981000Y-57721000D02*
X66981000Y-56974000D01*
X67021000Y-55294000D02*
X67021000Y-54515000D01*
X67021000Y-57753000D02*
X67021000Y-56974000D01*
X67061000Y-55294000D02*
X67061000Y-54484000D01*
X67061000Y-57784000D02*
X67061000Y-56974000D01*
X67101000Y-55294000D02*
X67101000Y-54454000D01*
X67101000Y-57814000D02*
X67101000Y-56974000D01*
X67141000Y-55294000D02*
X67141000Y-54426000D01*
X67141000Y-57842000D02*
X67141000Y-56974000D01*
X67181000Y-55294000D02*
X67181000Y-54399000D01*
X67181000Y-57869000D02*
X67181000Y-56974000D01*
X67221000Y-55294000D02*
X67221000Y-54374000D01*
X67221000Y-57894000D02*
X67221000Y-56974000D01*
X67261000Y-55294000D02*
X67261000Y-54349000D01*
X67261000Y-57919000D02*
X67261000Y-56974000D01*
X67301000Y-55294000D02*
X67301000Y-54326000D01*
X67301000Y-57942000D02*
X67301000Y-56974000D01*
X67341000Y-55294000D02*
X67341000Y-54304000D01*
X67341000Y-57964000D02*
X67341000Y-56974000D01*
X67381000Y-55294000D02*
X67381000Y-54283000D01*
X67381000Y-57985000D02*
X67381000Y-56974000D01*
X67421000Y-55294000D02*
X67421000Y-54264000D01*
X67421000Y-58004000D02*
X67421000Y-56974000D01*
X67461000Y-55294000D02*
X67461000Y-54245000D01*
X67461000Y-58023000D02*
X67461000Y-56974000D01*
X67501000Y-55294000D02*
X67501000Y-54227000D01*
X67501000Y-58041000D02*
X67501000Y-56974000D01*
X67541000Y-55294000D02*
X67541000Y-54210000D01*
X67541000Y-58058000D02*
X67541000Y-56974000D01*
X67581000Y-55294000D02*
X67581000Y-54194000D01*
X67581000Y-58074000D02*
X67581000Y-56974000D01*
X67621000Y-55294000D02*
X67621000Y-54180000D01*
X67621000Y-58088000D02*
X67621000Y-56974000D01*
X67662000Y-55294000D02*
X67662000Y-54166000D01*
X67662000Y-58102000D02*
X67662000Y-56974000D01*
X67702000Y-55294000D02*
X67702000Y-54152000D01*
X67702000Y-58116000D02*
X67702000Y-56974000D01*
X67742000Y-55294000D02*
X67742000Y-54140000D01*
X67742000Y-58128000D02*
X67742000Y-56974000D01*
X67782000Y-55294000D02*
X67782000Y-54129000D01*
X67782000Y-58139000D02*
X67782000Y-56974000D01*
X67822000Y-55294000D02*
X67822000Y-54118000D01*
X67822000Y-58150000D02*
X67822000Y-56974000D01*
X67862000Y-55294000D02*
X67862000Y-54109000D01*
X67862000Y-58159000D02*
X67862000Y-56974000D01*
X67902000Y-55294000D02*
X67902000Y-54100000D01*
X67902000Y-58168000D02*
X67902000Y-56974000D01*
X67942000Y-55294000D02*
X67942000Y-54092000D01*
X67942000Y-58176000D02*
X67942000Y-56974000D01*
X67982000Y-55294000D02*
X67982000Y-54084000D01*
X67982000Y-58184000D02*
X67982000Y-56974000D01*
X68022000Y-55294000D02*
X68022000Y-54078000D01*
X68022000Y-58190000D02*
X68022000Y-56974000D01*
X68062000Y-55294000D02*
X68062000Y-54072000D01*
X68062000Y-58196000D02*
X68062000Y-56974000D01*
X68102000Y-55294000D02*
X68102000Y-54067000D01*
X68102000Y-58201000D02*
X68102000Y-56974000D01*
X68142000Y-55294000D02*
X68142000Y-54063000D01*
X68142000Y-58205000D02*
X68142000Y-56974000D01*
X68182000Y-58208000D02*
X68182000Y-54060000D01*
X68222000Y-58211000D02*
X68222000Y-54057000D01*
X68262000Y-58213000D02*
X68262000Y-54055000D01*
X68302000Y-58214000D02*
X68302000Y-54054000D01*
X68342000Y-58214000D02*
X68342000Y-54054000D01*
X70462000Y-56134000D02*
G75*
G03X70462000Y-56134000I-2120000J0D01*
G01*
X97850000Y-78800000D02*
X97850000Y-76140000D01*
X85090000Y-78800000D02*
X97850000Y-78800000D01*
X85090000Y-76140000D02*
X97850000Y-76140000D01*
X85090000Y-78800000D02*
X85090000Y-76140000D01*
X83820000Y-78800000D02*
X82490000Y-78800000D01*
X82490000Y-78800000D02*
X82490000Y-77470000D01*
X97850000Y-71060000D02*
X97850000Y-72390000D01*
X96520000Y-71060000D02*
X97850000Y-71060000D01*
X95250000Y-71060000D02*
X95250000Y-73720000D01*
X95250000Y-73720000D02*
X82490000Y-73720000D01*
X95250000Y-71060000D02*
X82490000Y-71060000D01*
X82490000Y-71060000D02*
X82490000Y-73720000D01*
X30430000Y-81860000D02*
X30430000Y-71010000D01*
X25330000Y-81860000D02*
X30430000Y-81860000D01*
X25630000Y-81360000D02*
X25330000Y-81860000D01*
X20230000Y-81360000D02*
X25630000Y-81360000D01*
X20480000Y-81860000D02*
X20230000Y-81360000D01*
X20430000Y-81860000D02*
X20480000Y-81860000D01*
X18530000Y-81860000D02*
X20430000Y-81860000D01*
X18780000Y-81360000D02*
X18530000Y-81860000D01*
X17830000Y-81360000D02*
X18780000Y-81360000D01*
X17830000Y-71010000D02*
X17830000Y-81360000D01*
X30430000Y-71010000D02*
X17830000Y-71010000D01*
X26780000Y-30684000D02*
X26780000Y-18084000D01*
X26780000Y-18084000D02*
X16430000Y-18084000D01*
X16430000Y-18084000D02*
X16430000Y-19034000D01*
X16430000Y-19034000D02*
X15930000Y-18784000D01*
X15930000Y-18784000D02*
X15930000Y-20684000D01*
X15930000Y-20684000D02*
X15930000Y-20734000D01*
X15930000Y-20734000D02*
X16430000Y-20484000D01*
X16430000Y-20484000D02*
X16430000Y-25884000D01*
X16430000Y-25884000D02*
X15930000Y-25584000D01*
X15930000Y-25584000D02*
X15930000Y-30684000D01*
X15930000Y-30684000D02*
X26780000Y-30684000D01*
X62170000Y-82490000D02*
X62170000Y-87690000D01*
X69850000Y-82490000D02*
X62170000Y-82490000D01*
X72450000Y-87690000D02*
X62170000Y-87690000D01*
X69850000Y-82490000D02*
X69850000Y-85090000D01*
X69850000Y-85090000D02*
X72450000Y-85090000D01*
X72450000Y-85090000D02*
X72450000Y-87690000D01*
X71120000Y-82490000D02*
X72450000Y-82490000D01*
X72450000Y-82490000D02*
X72450000Y-83820000D01*
X76260000Y-90110000D02*
X71060000Y-90110000D01*
X76260000Y-90170000D02*
X76260000Y-90110000D01*
X71060000Y-92770000D02*
X71060000Y-90110000D01*
X76260000Y-90170000D02*
X73660000Y-90170000D01*
X73660000Y-90170000D02*
X73660000Y-92770000D01*
X73660000Y-92770000D02*
X71060000Y-92770000D01*
X76260000Y-91440000D02*
X76260000Y-92770000D01*
X76260000Y-92770000D02*
X74930000Y-92770000D01*
X59630000Y-78680000D02*
X59630000Y-81340000D01*
X62230000Y-78680000D02*
X59630000Y-78680000D01*
X62230000Y-81340000D02*
X59630000Y-81340000D01*
X62230000Y-78680000D02*
X62230000Y-81340000D01*
X63500000Y-78680000D02*
X64830000Y-78680000D01*
X64830000Y-78680000D02*
X64830000Y-80010000D01*
X109625000Y-31490000D02*
G75*
G03X109625000Y-31490000I-9250000J0D01*
G01*
X89260000Y-31750000D02*
G75*
G03X89260000Y-31750000I-9250000J0D01*
G01*
X66400000Y-31750000D02*
G75*
G03X66400000Y-31750000I-9250000J0D01*
G01*
X46080000Y-31750000D02*
G75*
G03X46080000Y-31750000I-9250000J0D01*
G01*
X56230000Y-83200000D02*
X56230000Y-79360000D01*
X58070000Y-83200000D02*
X58070000Y-79360000D01*
X77820000Y-84470000D02*
X77820000Y-80630000D01*
X79660000Y-84470000D02*
X79660000Y-80630000D01*
X79660000Y-92090000D02*
X79660000Y-88250000D01*
X77820000Y-92090000D02*
X77820000Y-88250000D01*
X95870000Y-19400000D02*
X99710000Y-19400000D01*
X95870000Y-21240000D02*
X99710000Y-21240000D01*
X84470000Y-19400000D02*
X80630000Y-19400000D01*
X84470000Y-21240000D02*
X80630000Y-21240000D01*
X52690000Y-19400000D02*
X56530000Y-19400000D01*
X52690000Y-21240000D02*
X56530000Y-21240000D01*
X41290000Y-19400000D02*
X37450000Y-19400000D01*
X41290000Y-21240000D02*
X37450000Y-21240000D01*
X47840000Y-73390000D02*
X47840000Y-77890000D01*
X51840000Y-72140000D02*
X50340000Y-72140000D01*
X54340000Y-77890000D02*
X54340000Y-73390000D01*
X50340000Y-79140000D02*
X51840000Y-79140000D01*
X46930000Y-62500000D02*
G75*
G02X46930000Y-64500000I0J-1000000D01*
G01*
X46930000Y-64500000D02*
X46930000Y-66150000D01*
X46930000Y-66150000D02*
X82610000Y-66150000D01*
X82610000Y-66150000D02*
X82610000Y-60850000D01*
X82610000Y-60850000D02*
X46930000Y-60850000D01*
X46930000Y-60850000D02*
X46930000Y-62500000D01*
X37265000Y-76422000D02*
X37265000Y-74912000D01*
X40966000Y-76422000D02*
X40966000Y-74912000D01*
X44236000Y-74912000D02*
X33996000Y-74912000D01*
X33996000Y-76422000D02*
X33996000Y-71781000D01*
X44236000Y-76422000D02*
X44236000Y-71781000D01*
X44236000Y-71781000D02*
X33996000Y-71781000D01*
X44236000Y-76422000D02*
X33996000Y-76422000D01*
X50324000Y-91226000D02*
X50324000Y-80986000D01*
X54965000Y-91226000D02*
X54965000Y-80986000D01*
X50324000Y-91226000D02*
X54965000Y-91226000D01*
X50324000Y-80986000D02*
X54965000Y-80986000D01*
X51834000Y-91226000D02*
X51834000Y-80986000D01*
X50324000Y-87956000D02*
X51834000Y-87956000D01*
X50324000Y-84255000D02*
X51834000Y-84255000D01*
X110550000Y-64500000D02*
G75*
G02X110550000Y-62500000I0J1000000D01*
G01*
X110550000Y-62500000D02*
X110550000Y-60850000D01*
X110550000Y-60850000D02*
X90110000Y-60850000D01*
X90110000Y-60850000D02*
X90110000Y-66150000D01*
X90110000Y-66150000D02*
X110550000Y-66150000D01*
X110550000Y-66150000D02*
X110550000Y-64500000D01*
X90110000Y-45610000D02*
X90110000Y-47260000D01*
X110550000Y-45610000D02*
X90110000Y-45610000D01*
X110550000Y-50910000D02*
X110550000Y-45610000D01*
X90110000Y-50910000D02*
X110550000Y-50910000D01*
X90110000Y-49260000D02*
X90110000Y-50910000D01*
X90110000Y-47260000D02*
G75*
G02X90110000Y-49260000I0J-1000000D01*
G01*
X65980000Y-45610000D02*
X65980000Y-47260000D01*
X86420000Y-45610000D02*
X65980000Y-45610000D01*
X86420000Y-50910000D02*
X86420000Y-45610000D01*
X65980000Y-50910000D02*
X86420000Y-50910000D01*
X65980000Y-49260000D02*
X65980000Y-50910000D01*
X65980000Y-47260000D02*
G75*
G02X65980000Y-49260000I0J-1000000D01*
G01*
X40700000Y-66150000D02*
X40700000Y-64500000D01*
X20260000Y-66150000D02*
X40700000Y-66150000D01*
X20260000Y-60850000D02*
X20260000Y-66150000D01*
X40700000Y-60850000D02*
X20260000Y-60850000D01*
X40700000Y-62500000D02*
X40700000Y-60850000D01*
X40700000Y-64500000D02*
G75*
G02X40700000Y-62500000I0J1000000D01*
G01*
X41850000Y-47260000D02*
G75*
G02X41850000Y-49260000I0J-1000000D01*
G01*
X41850000Y-49260000D02*
X41850000Y-50910000D01*
X41850000Y-50910000D02*
X62290000Y-50910000D01*
X62290000Y-50910000D02*
X62290000Y-45610000D01*
X62290000Y-45610000D02*
X41850000Y-45610000D01*
X41850000Y-45610000D02*
X41850000Y-47260000D01*
X17720000Y-47260000D02*
G75*
G02X17720000Y-49260000I0J-1000000D01*
G01*
X17720000Y-49260000D02*
X17720000Y-50910000D01*
X17720000Y-50910000D02*
X38160000Y-50910000D01*
X38160000Y-50910000D02*
X38160000Y-45610000D01*
X38160000Y-45610000D02*
X17720000Y-45610000D01*
X17720000Y-45610000D02*
X17720000Y-47260000D01*
X70435000Y-69865000D02*
X76685000Y-69865000D01*
X70435000Y-74915000D02*
X76685000Y-74915000D01*
X70435000Y-74915000D02*
G75*
G02X70435000Y-69865000I0J2525000D01*
G01*
X76685000Y-74915000D02*
G75*
G03X76685000Y-69865000I0J2525000D01*
G01*
X67960000Y-92360000D02*
X64120000Y-92360000D01*
X67960000Y-90520000D02*
X64120000Y-90520000D01*
X66620000Y-73660000D02*
G75*
G03X66620000Y-73660000I-2120000J0D01*
G01*
X64500000Y-71580000D02*
X64500000Y-75740000D01*
X64540000Y-71580000D02*
X64540000Y-75740000D01*
X64580000Y-71581000D02*
X64580000Y-75739000D01*
X64620000Y-71583000D02*
X64620000Y-75737000D01*
X64660000Y-71586000D02*
X64660000Y-75734000D01*
X64700000Y-71589000D02*
X64700000Y-72820000D01*
X64700000Y-74500000D02*
X64700000Y-75731000D01*
X64740000Y-71593000D02*
X64740000Y-72820000D01*
X64740000Y-74500000D02*
X64740000Y-75727000D01*
X64780000Y-71598000D02*
X64780000Y-72820000D01*
X64780000Y-74500000D02*
X64780000Y-75722000D01*
X64820000Y-71604000D02*
X64820000Y-72820000D01*
X64820000Y-74500000D02*
X64820000Y-75716000D01*
X64860000Y-71610000D02*
X64860000Y-72820000D01*
X64860000Y-74500000D02*
X64860000Y-75710000D01*
X64900000Y-71618000D02*
X64900000Y-72820000D01*
X64900000Y-74500000D02*
X64900000Y-75702000D01*
X64940000Y-71626000D02*
X64940000Y-72820000D01*
X64940000Y-74500000D02*
X64940000Y-75694000D01*
X64980000Y-71635000D02*
X64980000Y-72820000D01*
X64980000Y-74500000D02*
X64980000Y-75685000D01*
X65020000Y-71644000D02*
X65020000Y-72820000D01*
X65020000Y-74500000D02*
X65020000Y-75676000D01*
X65060000Y-71655000D02*
X65060000Y-72820000D01*
X65060000Y-74500000D02*
X65060000Y-75665000D01*
X65100000Y-71666000D02*
X65100000Y-72820000D01*
X65100000Y-74500000D02*
X65100000Y-75654000D01*
X65140000Y-71678000D02*
X65140000Y-72820000D01*
X65140000Y-74500000D02*
X65140000Y-75642000D01*
X65180000Y-71692000D02*
X65180000Y-72820000D01*
X65180000Y-74500000D02*
X65180000Y-75628000D01*
X65221000Y-71706000D02*
X65221000Y-72820000D01*
X65221000Y-74500000D02*
X65221000Y-75614000D01*
X65261000Y-71720000D02*
X65261000Y-72820000D01*
X65261000Y-74500000D02*
X65261000Y-75600000D01*
X65301000Y-71736000D02*
X65301000Y-72820000D01*
X65301000Y-74500000D02*
X65301000Y-75584000D01*
X65341000Y-71753000D02*
X65341000Y-72820000D01*
X65341000Y-74500000D02*
X65341000Y-75567000D01*
X65381000Y-71771000D02*
X65381000Y-72820000D01*
X65381000Y-74500000D02*
X65381000Y-75549000D01*
X65421000Y-71790000D02*
X65421000Y-72820000D01*
X65421000Y-74500000D02*
X65421000Y-75530000D01*
X65461000Y-71809000D02*
X65461000Y-72820000D01*
X65461000Y-74500000D02*
X65461000Y-75511000D01*
X65501000Y-71830000D02*
X65501000Y-72820000D01*
X65501000Y-74500000D02*
X65501000Y-75490000D01*
X65541000Y-71852000D02*
X65541000Y-72820000D01*
X65541000Y-74500000D02*
X65541000Y-75468000D01*
X65581000Y-71875000D02*
X65581000Y-72820000D01*
X65581000Y-74500000D02*
X65581000Y-75445000D01*
X65621000Y-71900000D02*
X65621000Y-72820000D01*
X65621000Y-74500000D02*
X65621000Y-75420000D01*
X65661000Y-71925000D02*
X65661000Y-72820000D01*
X65661000Y-74500000D02*
X65661000Y-75395000D01*
X65701000Y-71952000D02*
X65701000Y-72820000D01*
X65701000Y-74500000D02*
X65701000Y-75368000D01*
X65741000Y-71980000D02*
X65741000Y-72820000D01*
X65741000Y-74500000D02*
X65741000Y-75340000D01*
X65781000Y-72010000D02*
X65781000Y-72820000D01*
X65781000Y-74500000D02*
X65781000Y-75310000D01*
X65821000Y-72041000D02*
X65821000Y-72820000D01*
X65821000Y-74500000D02*
X65821000Y-75279000D01*
X65861000Y-72073000D02*
X65861000Y-72820000D01*
X65861000Y-74500000D02*
X65861000Y-75247000D01*
X65901000Y-72108000D02*
X65901000Y-72820000D01*
X65901000Y-74500000D02*
X65901000Y-75212000D01*
X65941000Y-72144000D02*
X65941000Y-72820000D01*
X65941000Y-74500000D02*
X65941000Y-75176000D01*
X65981000Y-72182000D02*
X65981000Y-72820000D01*
X65981000Y-74500000D02*
X65981000Y-75138000D01*
X66021000Y-72222000D02*
X66021000Y-72820000D01*
X66021000Y-74500000D02*
X66021000Y-75098000D01*
X66061000Y-72264000D02*
X66061000Y-72820000D01*
X66061000Y-74500000D02*
X66061000Y-75056000D01*
X66101000Y-72309000D02*
X66101000Y-72820000D01*
X66101000Y-74500000D02*
X66101000Y-75011000D01*
X66141000Y-72356000D02*
X66141000Y-72820000D01*
X66141000Y-74500000D02*
X66141000Y-74964000D01*
X66181000Y-72406000D02*
X66181000Y-72820000D01*
X66181000Y-74500000D02*
X66181000Y-74914000D01*
X66221000Y-72460000D02*
X66221000Y-72820000D01*
X66221000Y-74500000D02*
X66221000Y-74860000D01*
X66261000Y-72518000D02*
X66261000Y-72820000D01*
X66261000Y-74500000D02*
X66261000Y-74802000D01*
X66301000Y-72580000D02*
X66301000Y-72820000D01*
X66301000Y-74500000D02*
X66301000Y-74740000D01*
X66341000Y-72647000D02*
X66341000Y-74673000D01*
X66381000Y-72720000D02*
X66381000Y-74600000D01*
X66421000Y-72801000D02*
X66421000Y-74519000D01*
X66461000Y-72892000D02*
X66461000Y-74428000D01*
X66501000Y-72996000D02*
X66501000Y-74324000D01*
X66541000Y-73123000D02*
X66541000Y-74197000D01*
X66581000Y-73290000D02*
X66581000Y-74030000D01*
X62230199Y-72465000D02*
X62630199Y-72465000D01*
X62430199Y-72265000D02*
X62430199Y-72665000D01*
X65636000Y-56134000D02*
G75*
G03X65636000Y-56134000I-2120000J0D01*
G01*
X63516000Y-58214000D02*
X63516000Y-54054000D01*
X63476000Y-58214000D02*
X63476000Y-54054000D01*
X63436000Y-58213000D02*
X63436000Y-54055000D01*
X63396000Y-58211000D02*
X63396000Y-54057000D01*
X63356000Y-58208000D02*
X63356000Y-54060000D01*
X63316000Y-58205000D02*
X63316000Y-56974000D01*
X63316000Y-55294000D02*
X63316000Y-54063000D01*
X63276000Y-58201000D02*
X63276000Y-56974000D01*
X63276000Y-55294000D02*
X63276000Y-54067000D01*
X63236000Y-58196000D02*
X63236000Y-56974000D01*
X63236000Y-55294000D02*
X63236000Y-54072000D01*
X63196000Y-58190000D02*
X63196000Y-56974000D01*
X63196000Y-55294000D02*
X63196000Y-54078000D01*
X63156000Y-58184000D02*
X63156000Y-56974000D01*
X63156000Y-55294000D02*
X63156000Y-54084000D01*
X63116000Y-58176000D02*
X63116000Y-56974000D01*
X63116000Y-55294000D02*
X63116000Y-54092000D01*
X63076000Y-58168000D02*
X63076000Y-56974000D01*
X63076000Y-55294000D02*
X63076000Y-54100000D01*
X63036000Y-58159000D02*
X63036000Y-56974000D01*
X63036000Y-55294000D02*
X63036000Y-54109000D01*
X62996000Y-58150000D02*
X62996000Y-56974000D01*
X62996000Y-55294000D02*
X62996000Y-54118000D01*
X62956000Y-58139000D02*
X62956000Y-56974000D01*
X62956000Y-55294000D02*
X62956000Y-54129000D01*
X62916000Y-58128000D02*
X62916000Y-56974000D01*
X62916000Y-55294000D02*
X62916000Y-54140000D01*
X62876000Y-58116000D02*
X62876000Y-56974000D01*
X62876000Y-55294000D02*
X62876000Y-54152000D01*
X62836000Y-58102000D02*
X62836000Y-56974000D01*
X62836000Y-55294000D02*
X62836000Y-54166000D01*
X62795000Y-58088000D02*
X62795000Y-56974000D01*
X62795000Y-55294000D02*
X62795000Y-54180000D01*
X62755000Y-58074000D02*
X62755000Y-56974000D01*
X62755000Y-55294000D02*
X62755000Y-54194000D01*
X62715000Y-58058000D02*
X62715000Y-56974000D01*
X62715000Y-55294000D02*
X62715000Y-54210000D01*
X62675000Y-58041000D02*
X62675000Y-56974000D01*
X62675000Y-55294000D02*
X62675000Y-54227000D01*
X62635000Y-58023000D02*
X62635000Y-56974000D01*
X62635000Y-55294000D02*
X62635000Y-54245000D01*
X62595000Y-58004000D02*
X62595000Y-56974000D01*
X62595000Y-55294000D02*
X62595000Y-54264000D01*
X62555000Y-57985000D02*
X62555000Y-56974000D01*
X62555000Y-55294000D02*
X62555000Y-54283000D01*
X62515000Y-57964000D02*
X62515000Y-56974000D01*
X62515000Y-55294000D02*
X62515000Y-54304000D01*
X62475000Y-57942000D02*
X62475000Y-56974000D01*
X62475000Y-55294000D02*
X62475000Y-54326000D01*
X62435000Y-57919000D02*
X62435000Y-56974000D01*
X62435000Y-55294000D02*
X62435000Y-54349000D01*
X62395000Y-57894000D02*
X62395000Y-56974000D01*
X62395000Y-55294000D02*
X62395000Y-54374000D01*
X62355000Y-57869000D02*
X62355000Y-56974000D01*
X62355000Y-55294000D02*
X62355000Y-54399000D01*
X62315000Y-57842000D02*
X62315000Y-56974000D01*
X62315000Y-55294000D02*
X62315000Y-54426000D01*
X62275000Y-57814000D02*
X62275000Y-56974000D01*
X62275000Y-55294000D02*
X62275000Y-54454000D01*
X62235000Y-57784000D02*
X62235000Y-56974000D01*
X62235000Y-55294000D02*
X62235000Y-54484000D01*
X62195000Y-57753000D02*
X62195000Y-56974000D01*
X62195000Y-55294000D02*
X62195000Y-54515000D01*
X62155000Y-57721000D02*
X62155000Y-56974000D01*
X62155000Y-55294000D02*
X62155000Y-54547000D01*
X62115000Y-57686000D02*
X62115000Y-56974000D01*
X62115000Y-55294000D02*
X62115000Y-54582000D01*
X62075000Y-57650000D02*
X62075000Y-56974000D01*
X62075000Y-55294000D02*
X62075000Y-54618000D01*
X62035000Y-57612000D02*
X62035000Y-56974000D01*
X62035000Y-55294000D02*
X62035000Y-54656000D01*
X61995000Y-57572000D02*
X61995000Y-56974000D01*
X61995000Y-55294000D02*
X61995000Y-54696000D01*
X61955000Y-57530000D02*
X61955000Y-56974000D01*
X61955000Y-55294000D02*
X61955000Y-54738000D01*
X61915000Y-57485000D02*
X61915000Y-56974000D01*
X61915000Y-55294000D02*
X61915000Y-54783000D01*
X61875000Y-57438000D02*
X61875000Y-56974000D01*
X61875000Y-55294000D02*
X61875000Y-54830000D01*
X61835000Y-57388000D02*
X61835000Y-56974000D01*
X61835000Y-55294000D02*
X61835000Y-54880000D01*
X61795000Y-57334000D02*
X61795000Y-56974000D01*
X61795000Y-55294000D02*
X61795000Y-54934000D01*
X61755000Y-57276000D02*
X61755000Y-56974000D01*
X61755000Y-55294000D02*
X61755000Y-54992000D01*
X61715000Y-57214000D02*
X61715000Y-56974000D01*
X61715000Y-55294000D02*
X61715000Y-55054000D01*
X61675000Y-57147000D02*
X61675000Y-55121000D01*
X61635000Y-57074000D02*
X61635000Y-55194000D01*
X61595000Y-56993000D02*
X61595000Y-55275000D01*
X61555000Y-56902000D02*
X61555000Y-55366000D01*
X61515000Y-56798000D02*
X61515000Y-55470000D01*
X61475000Y-56671000D02*
X61475000Y-55597000D01*
X61435000Y-56504000D02*
X61435000Y-55764000D01*
X65785801Y-57329000D02*
X65385801Y-57329000D01*
X65585801Y-57529000D02*
X65585801Y-57129000D01*
X74780000Y-78740000D02*
G75*
G03X74780000Y-78740000I-2120000J0D01*
G01*
X72660000Y-76660000D02*
X72660000Y-80820000D01*
X72700000Y-76660000D02*
X72700000Y-80820000D01*
X72740000Y-76661000D02*
X72740000Y-80819000D01*
X72780000Y-76663000D02*
X72780000Y-80817000D01*
X72820000Y-76666000D02*
X72820000Y-80814000D01*
X72860000Y-76669000D02*
X72860000Y-77900000D01*
X72860000Y-79580000D02*
X72860000Y-80811000D01*
X72900000Y-76673000D02*
X72900000Y-77900000D01*
X72900000Y-79580000D02*
X72900000Y-80807000D01*
X72940000Y-76678000D02*
X72940000Y-77900000D01*
X72940000Y-79580000D02*
X72940000Y-80802000D01*
X72980000Y-76684000D02*
X72980000Y-77900000D01*
X72980000Y-79580000D02*
X72980000Y-80796000D01*
X73020000Y-76690000D02*
X73020000Y-77900000D01*
X73020000Y-79580000D02*
X73020000Y-80790000D01*
X73060000Y-76698000D02*
X73060000Y-77900000D01*
X73060000Y-79580000D02*
X73060000Y-80782000D01*
X73100000Y-76706000D02*
X73100000Y-77900000D01*
X73100000Y-79580000D02*
X73100000Y-80774000D01*
X73140000Y-76715000D02*
X73140000Y-77900000D01*
X73140000Y-79580000D02*
X73140000Y-80765000D01*
X73180000Y-76724000D02*
X73180000Y-77900000D01*
X73180000Y-79580000D02*
X73180000Y-80756000D01*
X73220000Y-76735000D02*
X73220000Y-77900000D01*
X73220000Y-79580000D02*
X73220000Y-80745000D01*
X73260000Y-76746000D02*
X73260000Y-77900000D01*
X73260000Y-79580000D02*
X73260000Y-80734000D01*
X73300000Y-76758000D02*
X73300000Y-77900000D01*
X73300000Y-79580000D02*
X73300000Y-80722000D01*
X73340000Y-76772000D02*
X73340000Y-77900000D01*
X73340000Y-79580000D02*
X73340000Y-80708000D01*
X73381000Y-76786000D02*
X73381000Y-77900000D01*
X73381000Y-79580000D02*
X73381000Y-80694000D01*
X73421000Y-76800000D02*
X73421000Y-77900000D01*
X73421000Y-79580000D02*
X73421000Y-80680000D01*
X73461000Y-76816000D02*
X73461000Y-77900000D01*
X73461000Y-79580000D02*
X73461000Y-80664000D01*
X73501000Y-76833000D02*
X73501000Y-77900000D01*
X73501000Y-79580000D02*
X73501000Y-80647000D01*
X73541000Y-76851000D02*
X73541000Y-77900000D01*
X73541000Y-79580000D02*
X73541000Y-80629000D01*
X73581000Y-76870000D02*
X73581000Y-77900000D01*
X73581000Y-79580000D02*
X73581000Y-80610000D01*
X73621000Y-76889000D02*
X73621000Y-77900000D01*
X73621000Y-79580000D02*
X73621000Y-80591000D01*
X73661000Y-76910000D02*
X73661000Y-77900000D01*
X73661000Y-79580000D02*
X73661000Y-80570000D01*
X73701000Y-76932000D02*
X73701000Y-77900000D01*
X73701000Y-79580000D02*
X73701000Y-80548000D01*
X73741000Y-76955000D02*
X73741000Y-77900000D01*
X73741000Y-79580000D02*
X73741000Y-80525000D01*
X73781000Y-76980000D02*
X73781000Y-77900000D01*
X73781000Y-79580000D02*
X73781000Y-80500000D01*
X73821000Y-77005000D02*
X73821000Y-77900000D01*
X73821000Y-79580000D02*
X73821000Y-80475000D01*
X73861000Y-77032000D02*
X73861000Y-77900000D01*
X73861000Y-79580000D02*
X73861000Y-80448000D01*
X73901000Y-77060000D02*
X73901000Y-77900000D01*
X73901000Y-79580000D02*
X73901000Y-80420000D01*
X73941000Y-77090000D02*
X73941000Y-77900000D01*
X73941000Y-79580000D02*
X73941000Y-80390000D01*
X73981000Y-77121000D02*
X73981000Y-77900000D01*
X73981000Y-79580000D02*
X73981000Y-80359000D01*
X74021000Y-77153000D02*
X74021000Y-77900000D01*
X74021000Y-79580000D02*
X74021000Y-80327000D01*
X74061000Y-77188000D02*
X74061000Y-77900000D01*
X74061000Y-79580000D02*
X74061000Y-80292000D01*
X74101000Y-77224000D02*
X74101000Y-77900000D01*
X74101000Y-79580000D02*
X74101000Y-80256000D01*
X74141000Y-77262000D02*
X74141000Y-77900000D01*
X74141000Y-79580000D02*
X74141000Y-80218000D01*
X74181000Y-77302000D02*
X74181000Y-77900000D01*
X74181000Y-79580000D02*
X74181000Y-80178000D01*
X74221000Y-77344000D02*
X74221000Y-77900000D01*
X74221000Y-79580000D02*
X74221000Y-80136000D01*
X74261000Y-77389000D02*
X74261000Y-77900000D01*
X74261000Y-79580000D02*
X74261000Y-80091000D01*
X74301000Y-77436000D02*
X74301000Y-77900000D01*
X74301000Y-79580000D02*
X74301000Y-80044000D01*
X74341000Y-77486000D02*
X74341000Y-77900000D01*
X74341000Y-79580000D02*
X74341000Y-79994000D01*
X74381000Y-77540000D02*
X74381000Y-77900000D01*
X74381000Y-79580000D02*
X74381000Y-79940000D01*
X74421000Y-77598000D02*
X74421000Y-77900000D01*
X74421000Y-79580000D02*
X74421000Y-79882000D01*
X74461000Y-77660000D02*
X74461000Y-77900000D01*
X74461000Y-79580000D02*
X74461000Y-79820000D01*
X74501000Y-77727000D02*
X74501000Y-79753000D01*
X74541000Y-77800000D02*
X74541000Y-79680000D01*
X74581000Y-77881000D02*
X74581000Y-79599000D01*
X74621000Y-77972000D02*
X74621000Y-79508000D01*
X74661000Y-78076000D02*
X74661000Y-79404000D01*
X74701000Y-78203000D02*
X74701000Y-79277000D01*
X74741000Y-78370000D02*
X74741000Y-79110000D01*
X70390199Y-77545000D02*
X70790199Y-77545000D01*
X70590199Y-77345000D02*
X70590199Y-77745000D01*
X101670000Y-76270000D02*
X104070000Y-76270000D01*
X104070000Y-76270000D02*
X104070000Y-78670000D01*
X104070000Y-78670000D02*
X101670000Y-78670000D01*
X101670000Y-78670000D02*
X101670000Y-76270000D01*
X42615000Y-69145000D02*
X42615000Y-66745000D01*
X45015000Y-69145000D02*
X42615000Y-69145000D01*
X45015000Y-66745000D02*
X45015000Y-69145000D01*
X42615000Y-66745000D02*
X45015000Y-66745000D01*
X21660000Y-31820000D02*
X24060000Y-31820000D01*
X24060000Y-31820000D02*
X24060000Y-34220000D01*
X24060000Y-34220000D02*
X21660000Y-34220000D01*
X21660000Y-34220000D02*
X21660000Y-31820000D01*
X94685000Y-80080000D02*
X97085000Y-80080000D01*
X97085000Y-80080000D02*
X97085000Y-82480000D01*
X97085000Y-82480000D02*
X94685000Y-82480000D01*
X94685000Y-82480000D02*
X94685000Y-80080000D01*
X57220000Y-87065000D02*
X59620000Y-87065000D01*
X59620000Y-87065000D02*
X59620000Y-89465000D01*
X59620000Y-89465000D02*
X57220000Y-89465000D01*
X57220000Y-89465000D02*
X57220000Y-87065000D01*
X74365000Y-87560000D02*
X74365000Y-85160000D01*
X76765000Y-87560000D02*
X74365000Y-87560000D01*
X76765000Y-85160000D02*
X76765000Y-87560000D01*
X74365000Y-85160000D02*
X76765000Y-85160000D01*
X59620000Y-90240000D02*
X59620000Y-92640000D01*
X57220000Y-90240000D02*
X59620000Y-90240000D01*
X57220000Y-92640000D02*
X57220000Y-90240000D01*
X59620000Y-92640000D02*
X57220000Y-92640000D01*
D13*
X71461333Y-56491142D02*
X71413714Y-56538761D01*
X71270857Y-56586380D01*
X71175619Y-56586380D01*
X71032761Y-56538761D01*
X70937523Y-56443523D01*
X70889904Y-56348285D01*
X70842285Y-56157809D01*
X70842285Y-56014952D01*
X70889904Y-55824476D01*
X70937523Y-55729238D01*
X71032761Y-55634000D01*
X71175619Y-55586380D01*
X71270857Y-55586380D01*
X71413714Y-55634000D01*
X71461333Y-55681619D01*
X71842285Y-55681619D02*
X71889904Y-55634000D01*
X71985142Y-55586380D01*
X72223238Y-55586380D01*
X72318476Y-55634000D01*
X72366095Y-55681619D01*
X72413714Y-55776857D01*
X72413714Y-55872095D01*
X72366095Y-56014952D01*
X71794666Y-56586380D01*
X72413714Y-56586380D01*
X80942380Y-77803333D02*
X81656666Y-77803333D01*
X81799523Y-77850952D01*
X81894761Y-77946190D01*
X81942380Y-78089047D01*
X81942380Y-78184285D01*
X81942380Y-76803333D02*
X81942380Y-77374761D01*
X81942380Y-77089047D02*
X80942380Y-77089047D01*
X81085238Y-77184285D01*
X81180476Y-77279523D01*
X81228095Y-77374761D01*
X98302380Y-72723333D02*
X99016666Y-72723333D01*
X99159523Y-72770952D01*
X99254761Y-72866190D01*
X99302380Y-73009047D01*
X99302380Y-73104285D01*
X98397619Y-72294761D02*
X98350000Y-72247142D01*
X98302380Y-72151904D01*
X98302380Y-71913809D01*
X98350000Y-71818571D01*
X98397619Y-71770952D01*
X98492857Y-71723333D01*
X98588095Y-71723333D01*
X98730952Y-71770952D01*
X99302380Y-72342380D01*
X99302380Y-71723333D01*
X30572380Y-72073333D02*
X31286666Y-72073333D01*
X31429523Y-72120952D01*
X31524761Y-72216190D01*
X31572380Y-72359047D01*
X31572380Y-72454285D01*
X30572380Y-71692380D02*
X30572380Y-71073333D01*
X30953333Y-71406666D01*
X30953333Y-71263809D01*
X31000952Y-71168571D01*
X31048571Y-71120952D01*
X31143809Y-71073333D01*
X31381904Y-71073333D01*
X31477142Y-71120952D01*
X31524761Y-71168571D01*
X31572380Y-71263809D01*
X31572380Y-71549523D01*
X31524761Y-71644761D01*
X31477142Y-71692380D01*
X25716666Y-30826380D02*
X25716666Y-31540666D01*
X25669047Y-31683523D01*
X25573809Y-31778761D01*
X25430952Y-31826380D01*
X25335714Y-31826380D01*
X26621428Y-31159714D02*
X26621428Y-31826380D01*
X26383333Y-30778761D02*
X26145238Y-31493047D01*
X26764285Y-31493047D01*
X72902380Y-85423333D02*
X73616666Y-85423333D01*
X73759523Y-85470952D01*
X73854761Y-85566190D01*
X73902380Y-85709047D01*
X73902380Y-85804285D01*
X72902380Y-84470952D02*
X72902380Y-84947142D01*
X73378571Y-84994761D01*
X73330952Y-84947142D01*
X73283333Y-84851904D01*
X73283333Y-84613809D01*
X73330952Y-84518571D01*
X73378571Y-84470952D01*
X73473809Y-84423333D01*
X73711904Y-84423333D01*
X73807142Y-84470952D01*
X73854761Y-84518571D01*
X73902380Y-84613809D01*
X73902380Y-84851904D01*
X73854761Y-84947142D01*
X73807142Y-84994761D01*
X72826666Y-93222380D02*
X72826666Y-93936666D01*
X72779047Y-94079523D01*
X72683809Y-94174761D01*
X72540952Y-94222380D01*
X72445714Y-94222380D01*
X73302857Y-94222380D02*
X73302857Y-93222380D01*
X73683809Y-93222380D01*
X73779047Y-93270000D01*
X73826666Y-93317619D01*
X73874285Y-93412857D01*
X73874285Y-93555714D01*
X73826666Y-93650952D01*
X73779047Y-93698571D01*
X73683809Y-93746190D01*
X73302857Y-93746190D01*
X74826666Y-94222380D02*
X74255238Y-94222380D01*
X74540952Y-94222380D02*
X74540952Y-93222380D01*
X74445714Y-93365238D01*
X74350476Y-93460476D01*
X74255238Y-93508095D01*
X65282380Y-80843333D02*
X65996666Y-80843333D01*
X66139523Y-80890952D01*
X66234761Y-80986190D01*
X66282380Y-81129047D01*
X66282380Y-81224285D01*
X66282380Y-80367142D02*
X65282380Y-80367142D01*
X65282380Y-79986190D01*
X65330000Y-79890952D01*
X65377619Y-79843333D01*
X65472857Y-79795714D01*
X65615714Y-79795714D01*
X65710952Y-79843333D01*
X65758571Y-79890952D01*
X65806190Y-79986190D01*
X65806190Y-80367142D01*
X65377619Y-79414761D02*
X65330000Y-79367142D01*
X65282380Y-79271904D01*
X65282380Y-79033809D01*
X65330000Y-78938571D01*
X65377619Y-78890952D01*
X65472857Y-78843333D01*
X65568095Y-78843333D01*
X65710952Y-78890952D01*
X66282380Y-79462380D01*
X66282380Y-78843333D01*
X91363095Y-39692380D02*
X91363095Y-38692380D01*
X91934523Y-39692380D01*
X91934523Y-38692380D01*
X92934523Y-39692380D02*
X92363095Y-39692380D01*
X92648809Y-39692380D02*
X92648809Y-38692380D01*
X92553571Y-38835238D01*
X92458333Y-38930476D01*
X92363095Y-38978095D01*
X98589285Y-38918571D02*
X98255952Y-38918571D01*
X98255952Y-39442380D02*
X98255952Y-38442380D01*
X98732142Y-38442380D01*
X99684523Y-39442380D02*
X99351190Y-38966190D01*
X99113095Y-39442380D02*
X99113095Y-38442380D01*
X99494047Y-38442380D01*
X99589285Y-38490000D01*
X99636904Y-38537619D01*
X99684523Y-38632857D01*
X99684523Y-38775714D01*
X99636904Y-38870952D01*
X99589285Y-38918571D01*
X99494047Y-38966190D01*
X99113095Y-38966190D01*
X100303571Y-38442380D02*
X100494047Y-38442380D01*
X100589285Y-38490000D01*
X100684523Y-38585238D01*
X100732142Y-38775714D01*
X100732142Y-39109047D01*
X100684523Y-39299523D01*
X100589285Y-39394761D01*
X100494047Y-39442380D01*
X100303571Y-39442380D01*
X100208333Y-39394761D01*
X100113095Y-39299523D01*
X100065476Y-39109047D01*
X100065476Y-38775714D01*
X100113095Y-38585238D01*
X100208333Y-38490000D01*
X100303571Y-38442380D01*
X101160714Y-39442380D02*
X101160714Y-38442380D01*
X101732142Y-39442380D01*
X101732142Y-38442380D01*
X102065476Y-38442380D02*
X102636904Y-38442380D01*
X102351190Y-39442380D02*
X102351190Y-38442380D01*
X70998095Y-39952380D02*
X70998095Y-38952380D01*
X71569523Y-39952380D01*
X71569523Y-38952380D01*
X71998095Y-39047619D02*
X72045714Y-39000000D01*
X72140952Y-38952380D01*
X72379047Y-38952380D01*
X72474285Y-39000000D01*
X72521904Y-39047619D01*
X72569523Y-39142857D01*
X72569523Y-39238095D01*
X72521904Y-39380952D01*
X71950476Y-39952380D01*
X72569523Y-39952380D01*
X78224285Y-39178571D02*
X77890952Y-39178571D01*
X77890952Y-39702380D02*
X77890952Y-38702380D01*
X78367142Y-38702380D01*
X79319523Y-39702380D02*
X78986190Y-39226190D01*
X78748095Y-39702380D02*
X78748095Y-38702380D01*
X79129047Y-38702380D01*
X79224285Y-38750000D01*
X79271904Y-38797619D01*
X79319523Y-38892857D01*
X79319523Y-39035714D01*
X79271904Y-39130952D01*
X79224285Y-39178571D01*
X79129047Y-39226190D01*
X78748095Y-39226190D01*
X79938571Y-38702380D02*
X80129047Y-38702380D01*
X80224285Y-38750000D01*
X80319523Y-38845238D01*
X80367142Y-39035714D01*
X80367142Y-39369047D01*
X80319523Y-39559523D01*
X80224285Y-39654761D01*
X80129047Y-39702380D01*
X79938571Y-39702380D01*
X79843333Y-39654761D01*
X79748095Y-39559523D01*
X79700476Y-39369047D01*
X79700476Y-39035714D01*
X79748095Y-38845238D01*
X79843333Y-38750000D01*
X79938571Y-38702380D01*
X80795714Y-39702380D02*
X80795714Y-38702380D01*
X81367142Y-39702380D01*
X81367142Y-38702380D01*
X81700476Y-38702380D02*
X82271904Y-38702380D01*
X81986190Y-39702380D02*
X81986190Y-38702380D01*
X48138095Y-39952380D02*
X48138095Y-38952380D01*
X48709523Y-39952380D01*
X48709523Y-38952380D01*
X49090476Y-38952380D02*
X49709523Y-38952380D01*
X49376190Y-39333333D01*
X49519047Y-39333333D01*
X49614285Y-39380952D01*
X49661904Y-39428571D01*
X49709523Y-39523809D01*
X49709523Y-39761904D01*
X49661904Y-39857142D01*
X49614285Y-39904761D01*
X49519047Y-39952380D01*
X49233333Y-39952380D01*
X49138095Y-39904761D01*
X49090476Y-39857142D01*
X55364285Y-39178571D02*
X55030952Y-39178571D01*
X55030952Y-39702380D02*
X55030952Y-38702380D01*
X55507142Y-38702380D01*
X56459523Y-39702380D02*
X56126190Y-39226190D01*
X55888095Y-39702380D02*
X55888095Y-38702380D01*
X56269047Y-38702380D01*
X56364285Y-38750000D01*
X56411904Y-38797619D01*
X56459523Y-38892857D01*
X56459523Y-39035714D01*
X56411904Y-39130952D01*
X56364285Y-39178571D01*
X56269047Y-39226190D01*
X55888095Y-39226190D01*
X57078571Y-38702380D02*
X57269047Y-38702380D01*
X57364285Y-38750000D01*
X57459523Y-38845238D01*
X57507142Y-39035714D01*
X57507142Y-39369047D01*
X57459523Y-39559523D01*
X57364285Y-39654761D01*
X57269047Y-39702380D01*
X57078571Y-39702380D01*
X56983333Y-39654761D01*
X56888095Y-39559523D01*
X56840476Y-39369047D01*
X56840476Y-39035714D01*
X56888095Y-38845238D01*
X56983333Y-38750000D01*
X57078571Y-38702380D01*
X57935714Y-39702380D02*
X57935714Y-38702380D01*
X58507142Y-39702380D01*
X58507142Y-38702380D01*
X58840476Y-38702380D02*
X59411904Y-38702380D01*
X59126190Y-39702380D02*
X59126190Y-38702380D01*
X27818095Y-39952380D02*
X27818095Y-38952380D01*
X28389523Y-39952380D01*
X28389523Y-38952380D01*
X29294285Y-39285714D02*
X29294285Y-39952380D01*
X29056190Y-38904761D02*
X28818095Y-39619047D01*
X29437142Y-39619047D01*
X35044285Y-39178571D02*
X34710952Y-39178571D01*
X34710952Y-39702380D02*
X34710952Y-38702380D01*
X35187142Y-38702380D01*
X36139523Y-39702380D02*
X35806190Y-39226190D01*
X35568095Y-39702380D02*
X35568095Y-38702380D01*
X35949047Y-38702380D01*
X36044285Y-38750000D01*
X36091904Y-38797619D01*
X36139523Y-38892857D01*
X36139523Y-39035714D01*
X36091904Y-39130952D01*
X36044285Y-39178571D01*
X35949047Y-39226190D01*
X35568095Y-39226190D01*
X36758571Y-38702380D02*
X36949047Y-38702380D01*
X37044285Y-38750000D01*
X37139523Y-38845238D01*
X37187142Y-39035714D01*
X37187142Y-39369047D01*
X37139523Y-39559523D01*
X37044285Y-39654761D01*
X36949047Y-39702380D01*
X36758571Y-39702380D01*
X36663333Y-39654761D01*
X36568095Y-39559523D01*
X36520476Y-39369047D01*
X36520476Y-39035714D01*
X36568095Y-38845238D01*
X36663333Y-38750000D01*
X36758571Y-38702380D01*
X37615714Y-39702380D02*
X37615714Y-38702380D01*
X38187142Y-39702380D01*
X38187142Y-38702380D01*
X38520476Y-38702380D02*
X39091904Y-38702380D01*
X38806190Y-39702380D02*
X38806190Y-38702380D01*
X56983333Y-76652380D02*
X56650000Y-76176190D01*
X56411904Y-76652380D02*
X56411904Y-75652380D01*
X56792857Y-75652380D01*
X56888095Y-75700000D01*
X56935714Y-75747619D01*
X56983333Y-75842857D01*
X56983333Y-75985714D01*
X56935714Y-76080952D01*
X56888095Y-76128571D01*
X56792857Y-76176190D01*
X56411904Y-76176190D01*
X57935714Y-76652380D02*
X57364285Y-76652380D01*
X57650000Y-76652380D02*
X57650000Y-75652380D01*
X57554761Y-75795238D01*
X57459523Y-75890476D01*
X57364285Y-75938095D01*
X81097380Y-82716666D02*
X80621190Y-83050000D01*
X81097380Y-83288095D02*
X80097380Y-83288095D01*
X80097380Y-82907142D01*
X80145000Y-82811904D01*
X80192619Y-82764285D01*
X80287857Y-82716666D01*
X80430714Y-82716666D01*
X80525952Y-82764285D01*
X80573571Y-82811904D01*
X80621190Y-82907142D01*
X80621190Y-83288095D01*
X80192619Y-82335714D02*
X80145000Y-82288095D01*
X80097380Y-82192857D01*
X80097380Y-81954761D01*
X80145000Y-81859523D01*
X80192619Y-81811904D01*
X80287857Y-81764285D01*
X80383095Y-81764285D01*
X80525952Y-81811904D01*
X81097380Y-82383333D01*
X81097380Y-81764285D01*
X81097380Y-90336666D02*
X80621190Y-90670000D01*
X81097380Y-90908095D02*
X80097380Y-90908095D01*
X80097380Y-90527142D01*
X80145000Y-90431904D01*
X80192619Y-90384285D01*
X80287857Y-90336666D01*
X80430714Y-90336666D01*
X80525952Y-90384285D01*
X80573571Y-90431904D01*
X80621190Y-90527142D01*
X80621190Y-90908095D01*
X80097380Y-90003333D02*
X80097380Y-89384285D01*
X80478333Y-89717619D01*
X80478333Y-89574761D01*
X80525952Y-89479523D01*
X80573571Y-89431904D01*
X80668809Y-89384285D01*
X80906904Y-89384285D01*
X81002142Y-89431904D01*
X81049761Y-89479523D01*
X81097380Y-89574761D01*
X81097380Y-89860476D01*
X81049761Y-89955714D01*
X81002142Y-90003333D01*
X97623333Y-18852380D02*
X97290000Y-18376190D01*
X97051904Y-18852380D02*
X97051904Y-17852380D01*
X97432857Y-17852380D01*
X97528095Y-17900000D01*
X97575714Y-17947619D01*
X97623333Y-18042857D01*
X97623333Y-18185714D01*
X97575714Y-18280952D01*
X97528095Y-18328571D01*
X97432857Y-18376190D01*
X97051904Y-18376190D01*
X98480476Y-18185714D02*
X98480476Y-18852380D01*
X98242380Y-17804761D02*
X98004285Y-18519047D01*
X98623333Y-18519047D01*
X82383333Y-22692380D02*
X82050000Y-22216190D01*
X81811904Y-22692380D02*
X81811904Y-21692380D01*
X82192857Y-21692380D01*
X82288095Y-21740000D01*
X82335714Y-21787619D01*
X82383333Y-21882857D01*
X82383333Y-22025714D01*
X82335714Y-22120952D01*
X82288095Y-22168571D01*
X82192857Y-22216190D01*
X81811904Y-22216190D01*
X83288095Y-21692380D02*
X82811904Y-21692380D01*
X82764285Y-22168571D01*
X82811904Y-22120952D01*
X82907142Y-22073333D01*
X83145238Y-22073333D01*
X83240476Y-22120952D01*
X83288095Y-22168571D01*
X83335714Y-22263809D01*
X83335714Y-22501904D01*
X83288095Y-22597142D01*
X83240476Y-22644761D01*
X83145238Y-22692380D01*
X82907142Y-22692380D01*
X82811904Y-22644761D01*
X82764285Y-22597142D01*
X54443333Y-18852380D02*
X54110000Y-18376190D01*
X53871904Y-18852380D02*
X53871904Y-17852380D01*
X54252857Y-17852380D01*
X54348095Y-17900000D01*
X54395714Y-17947619D01*
X54443333Y-18042857D01*
X54443333Y-18185714D01*
X54395714Y-18280952D01*
X54348095Y-18328571D01*
X54252857Y-18376190D01*
X53871904Y-18376190D01*
X55300476Y-17852380D02*
X55110000Y-17852380D01*
X55014761Y-17900000D01*
X54967142Y-17947619D01*
X54871904Y-18090476D01*
X54824285Y-18280952D01*
X54824285Y-18661904D01*
X54871904Y-18757142D01*
X54919523Y-18804761D01*
X55014761Y-18852380D01*
X55205238Y-18852380D01*
X55300476Y-18804761D01*
X55348095Y-18757142D01*
X55395714Y-18661904D01*
X55395714Y-18423809D01*
X55348095Y-18328571D01*
X55300476Y-18280952D01*
X55205238Y-18233333D01*
X55014761Y-18233333D01*
X54919523Y-18280952D01*
X54871904Y-18328571D01*
X54824285Y-18423809D01*
X39203333Y-22692380D02*
X38870000Y-22216190D01*
X38631904Y-22692380D02*
X38631904Y-21692380D01*
X39012857Y-21692380D01*
X39108095Y-21740000D01*
X39155714Y-21787619D01*
X39203333Y-21882857D01*
X39203333Y-22025714D01*
X39155714Y-22120952D01*
X39108095Y-22168571D01*
X39012857Y-22216190D01*
X38631904Y-22216190D01*
X39536666Y-21692380D02*
X40203333Y-21692380D01*
X39774761Y-22692380D01*
X49466666Y-70254761D02*
X49609523Y-70302380D01*
X49847619Y-70302380D01*
X49942857Y-70254761D01*
X49990476Y-70207142D01*
X50038095Y-70111904D01*
X50038095Y-70016666D01*
X49990476Y-69921428D01*
X49942857Y-69873809D01*
X49847619Y-69826190D01*
X49657142Y-69778571D01*
X49561904Y-69730952D01*
X49514285Y-69683333D01*
X49466666Y-69588095D01*
X49466666Y-69492857D01*
X49514285Y-69397619D01*
X49561904Y-69350000D01*
X49657142Y-69302380D01*
X49895238Y-69302380D01*
X50038095Y-69350000D01*
X50371428Y-69302380D02*
X50609523Y-70302380D01*
X50800000Y-69588095D01*
X50990476Y-70302380D01*
X51228571Y-69302380D01*
X52133333Y-70302380D02*
X51561904Y-70302380D01*
X51847619Y-70302380D02*
X51847619Y-69302380D01*
X51752380Y-69445238D01*
X51657142Y-69540476D01*
X51561904Y-69588095D01*
X45382380Y-64261904D02*
X46191904Y-64261904D01*
X46287142Y-64214285D01*
X46334761Y-64166666D01*
X46382380Y-64071428D01*
X46382380Y-63880952D01*
X46334761Y-63785714D01*
X46287142Y-63738095D01*
X46191904Y-63690476D01*
X45382380Y-63690476D01*
X46382380Y-62690476D02*
X46382380Y-63261904D01*
X46382380Y-62976190D02*
X45382380Y-62976190D01*
X45525238Y-63071428D01*
X45620476Y-63166666D01*
X45668095Y-63261904D01*
X38354095Y-76874380D02*
X38354095Y-77683904D01*
X38401714Y-77779142D01*
X38449333Y-77826761D01*
X38544571Y-77874380D01*
X38735047Y-77874380D01*
X38830285Y-77826761D01*
X38877904Y-77779142D01*
X38925523Y-77683904D01*
X38925523Y-76874380D01*
X39354095Y-76969619D02*
X39401714Y-76922000D01*
X39496952Y-76874380D01*
X39735047Y-76874380D01*
X39830285Y-76922000D01*
X39877904Y-76969619D01*
X39925523Y-77064857D01*
X39925523Y-77160095D01*
X39877904Y-77302952D01*
X39306476Y-77874380D01*
X39925523Y-77874380D01*
X48776380Y-86867904D02*
X49585904Y-86867904D01*
X49681142Y-86820285D01*
X49728761Y-86772666D01*
X49776380Y-86677428D01*
X49776380Y-86486952D01*
X49728761Y-86391714D01*
X49681142Y-86344095D01*
X49585904Y-86296476D01*
X48776380Y-86296476D01*
X48776380Y-85915523D02*
X48776380Y-85296476D01*
X49157333Y-85629809D01*
X49157333Y-85486952D01*
X49204952Y-85391714D01*
X49252571Y-85344095D01*
X49347809Y-85296476D01*
X49585904Y-85296476D01*
X49681142Y-85344095D01*
X49728761Y-85391714D01*
X49776380Y-85486952D01*
X49776380Y-85772666D01*
X49728761Y-85867904D01*
X49681142Y-85915523D01*
X111002380Y-64261904D02*
X111811904Y-64261904D01*
X111907142Y-64214285D01*
X111954761Y-64166666D01*
X112002380Y-64071428D01*
X112002380Y-63880952D01*
X111954761Y-63785714D01*
X111907142Y-63738095D01*
X111811904Y-63690476D01*
X111002380Y-63690476D01*
X111335714Y-62785714D02*
X112002380Y-62785714D01*
X110954761Y-63023809D02*
X111669047Y-63261904D01*
X111669047Y-62642857D01*
X88562380Y-49021904D02*
X89371904Y-49021904D01*
X89467142Y-48974285D01*
X89514761Y-48926666D01*
X89562380Y-48831428D01*
X89562380Y-48640952D01*
X89514761Y-48545714D01*
X89467142Y-48498095D01*
X89371904Y-48450476D01*
X88562380Y-48450476D01*
X88562380Y-47498095D02*
X88562380Y-47974285D01*
X89038571Y-48021904D01*
X88990952Y-47974285D01*
X88943333Y-47879047D01*
X88943333Y-47640952D01*
X88990952Y-47545714D01*
X89038571Y-47498095D01*
X89133809Y-47450476D01*
X89371904Y-47450476D01*
X89467142Y-47498095D01*
X89514761Y-47545714D01*
X89562380Y-47640952D01*
X89562380Y-47879047D01*
X89514761Y-47974285D01*
X89467142Y-48021904D01*
X64432380Y-49021904D02*
X65241904Y-49021904D01*
X65337142Y-48974285D01*
X65384761Y-48926666D01*
X65432380Y-48831428D01*
X65432380Y-48640952D01*
X65384761Y-48545714D01*
X65337142Y-48498095D01*
X65241904Y-48450476D01*
X64432380Y-48450476D01*
X64432380Y-47545714D02*
X64432380Y-47736190D01*
X64480000Y-47831428D01*
X64527619Y-47879047D01*
X64670476Y-47974285D01*
X64860952Y-48021904D01*
X65241904Y-48021904D01*
X65337142Y-47974285D01*
X65384761Y-47926666D01*
X65432380Y-47831428D01*
X65432380Y-47640952D01*
X65384761Y-47545714D01*
X65337142Y-47498095D01*
X65241904Y-47450476D01*
X65003809Y-47450476D01*
X64908571Y-47498095D01*
X64860952Y-47545714D01*
X64813333Y-47640952D01*
X64813333Y-47831428D01*
X64860952Y-47926666D01*
X64908571Y-47974285D01*
X65003809Y-48021904D01*
X41152380Y-64261904D02*
X41961904Y-64261904D01*
X42057142Y-64214285D01*
X42104761Y-64166666D01*
X42152380Y-64071428D01*
X42152380Y-63880952D01*
X42104761Y-63785714D01*
X42057142Y-63738095D01*
X41961904Y-63690476D01*
X41152380Y-63690476D01*
X41152380Y-63309523D02*
X41152380Y-62642857D01*
X42152380Y-63071428D01*
X40302380Y-49021904D02*
X41111904Y-49021904D01*
X41207142Y-48974285D01*
X41254761Y-48926666D01*
X41302380Y-48831428D01*
X41302380Y-48640952D01*
X41254761Y-48545714D01*
X41207142Y-48498095D01*
X41111904Y-48450476D01*
X40302380Y-48450476D01*
X40730952Y-47831428D02*
X40683333Y-47926666D01*
X40635714Y-47974285D01*
X40540476Y-48021904D01*
X40492857Y-48021904D01*
X40397619Y-47974285D01*
X40350000Y-47926666D01*
X40302380Y-47831428D01*
X40302380Y-47640952D01*
X40350000Y-47545714D01*
X40397619Y-47498095D01*
X40492857Y-47450476D01*
X40540476Y-47450476D01*
X40635714Y-47498095D01*
X40683333Y-47545714D01*
X40730952Y-47640952D01*
X40730952Y-47831428D01*
X40778571Y-47926666D01*
X40826190Y-47974285D01*
X40921428Y-48021904D01*
X41111904Y-48021904D01*
X41207142Y-47974285D01*
X41254761Y-47926666D01*
X41302380Y-47831428D01*
X41302380Y-47640952D01*
X41254761Y-47545714D01*
X41207142Y-47498095D01*
X41111904Y-47450476D01*
X40921428Y-47450476D01*
X40826190Y-47498095D01*
X40778571Y-47545714D01*
X40730952Y-47640952D01*
X16172380Y-49021904D02*
X16981904Y-49021904D01*
X17077142Y-48974285D01*
X17124761Y-48926666D01*
X17172380Y-48831428D01*
X17172380Y-48640952D01*
X17124761Y-48545714D01*
X17077142Y-48498095D01*
X16981904Y-48450476D01*
X16172380Y-48450476D01*
X17172380Y-47926666D02*
X17172380Y-47736190D01*
X17124761Y-47640952D01*
X17077142Y-47593333D01*
X16934285Y-47498095D01*
X16743809Y-47450476D01*
X16362857Y-47450476D01*
X16267619Y-47498095D01*
X16220000Y-47545714D01*
X16172380Y-47640952D01*
X16172380Y-47831428D01*
X16220000Y-47926666D01*
X16267619Y-47974285D01*
X16362857Y-48021904D01*
X16600952Y-48021904D01*
X16696190Y-47974285D01*
X16743809Y-47926666D01*
X16791428Y-47831428D01*
X16791428Y-47640952D01*
X16743809Y-47545714D01*
X16696190Y-47498095D01*
X16600952Y-47450476D01*
X73083809Y-68841190D02*
X73083809Y-69317380D01*
X72750476Y-68317380D02*
X73083809Y-68841190D01*
X73417142Y-68317380D01*
X74274285Y-69317380D02*
X73702857Y-69317380D01*
X73988571Y-69317380D02*
X73988571Y-68317380D01*
X73893333Y-68460238D01*
X73798095Y-68555476D01*
X73702857Y-68603095D01*
X65873333Y-93812380D02*
X65540000Y-93336190D01*
X65301904Y-93812380D02*
X65301904Y-92812380D01*
X65682857Y-92812380D01*
X65778095Y-92860000D01*
X65825714Y-92907619D01*
X65873333Y-93002857D01*
X65873333Y-93145714D01*
X65825714Y-93240952D01*
X65778095Y-93288571D01*
X65682857Y-93336190D01*
X65301904Y-93336190D01*
X66444761Y-93240952D02*
X66349523Y-93193333D01*
X66301904Y-93145714D01*
X66254285Y-93050476D01*
X66254285Y-93002857D01*
X66301904Y-92907619D01*
X66349523Y-92860000D01*
X66444761Y-92812380D01*
X66635238Y-92812380D01*
X66730476Y-92860000D01*
X66778095Y-92907619D01*
X66825714Y-93002857D01*
X66825714Y-93050476D01*
X66778095Y-93145714D01*
X66730476Y-93193333D01*
X66635238Y-93240952D01*
X66444761Y-93240952D01*
X66349523Y-93288571D01*
X66301904Y-93336190D01*
X66254285Y-93431428D01*
X66254285Y-93621904D01*
X66301904Y-93717142D01*
X66349523Y-93764761D01*
X66444761Y-93812380D01*
X66635238Y-93812380D01*
X66730476Y-93764761D01*
X66778095Y-93717142D01*
X66825714Y-93621904D01*
X66825714Y-93431428D01*
X66778095Y-93336190D01*
X66730476Y-93288571D01*
X66635238Y-93240952D01*
X64333333Y-70767142D02*
X64285714Y-70814761D01*
X64142857Y-70862380D01*
X64047619Y-70862380D01*
X63904761Y-70814761D01*
X63809523Y-70719523D01*
X63761904Y-70624285D01*
X63714285Y-70433809D01*
X63714285Y-70290952D01*
X63761904Y-70100476D01*
X63809523Y-70005238D01*
X63904761Y-69910000D01*
X64047619Y-69862380D01*
X64142857Y-69862380D01*
X64285714Y-69910000D01*
X64333333Y-69957619D01*
X64666666Y-69862380D02*
X65285714Y-69862380D01*
X64952380Y-70243333D01*
X65095238Y-70243333D01*
X65190476Y-70290952D01*
X65238095Y-70338571D01*
X65285714Y-70433809D01*
X65285714Y-70671904D01*
X65238095Y-70767142D01*
X65190476Y-70814761D01*
X65095238Y-70862380D01*
X64809523Y-70862380D01*
X64714285Y-70814761D01*
X64666666Y-70767142D01*
X60031333Y-56491142D02*
X59983714Y-56538761D01*
X59840857Y-56586380D01*
X59745619Y-56586380D01*
X59602761Y-56538761D01*
X59507523Y-56443523D01*
X59459904Y-56348285D01*
X59412285Y-56157809D01*
X59412285Y-56014952D01*
X59459904Y-55824476D01*
X59507523Y-55729238D01*
X59602761Y-55634000D01*
X59745619Y-55586380D01*
X59840857Y-55586380D01*
X59983714Y-55634000D01*
X60031333Y-55681619D01*
X60983714Y-56586380D02*
X60412285Y-56586380D01*
X60698000Y-56586380D02*
X60698000Y-55586380D01*
X60602761Y-55729238D01*
X60507523Y-55824476D01*
X60412285Y-55872095D01*
X68413333Y-79097142D02*
X68365714Y-79144761D01*
X68222857Y-79192380D01*
X68127619Y-79192380D01*
X67984761Y-79144761D01*
X67889523Y-79049523D01*
X67841904Y-78954285D01*
X67794285Y-78763809D01*
X67794285Y-78620952D01*
X67841904Y-78430476D01*
X67889523Y-78335238D01*
X67984761Y-78240000D01*
X68127619Y-78192380D01*
X68222857Y-78192380D01*
X68365714Y-78240000D01*
X68413333Y-78287619D01*
X69270476Y-78525714D02*
X69270476Y-79192380D01*
X69032380Y-78144761D02*
X68794285Y-78859047D01*
X69413333Y-78859047D01*
X20574095Y-84644380D02*
X20574095Y-83644380D01*
X20574095Y-84120571D02*
X21145523Y-84120571D01*
X21145523Y-84644380D02*
X21145523Y-83644380D01*
X22145523Y-84644380D02*
X21574095Y-84644380D01*
X21859809Y-84644380D02*
X21859809Y-83644380D01*
X21764571Y-83787238D01*
X21669333Y-83882476D01*
X21574095Y-83930095D01*
X105918095Y-84390380D02*
X105918095Y-83390380D01*
X105918095Y-83866571D02*
X106489523Y-83866571D01*
X106489523Y-84390380D02*
X106489523Y-83390380D01*
X106870476Y-83390380D02*
X107489523Y-83390380D01*
X107156190Y-83771333D01*
X107299047Y-83771333D01*
X107394285Y-83818952D01*
X107441904Y-83866571D01*
X107489523Y-83961809D01*
X107489523Y-84199904D01*
X107441904Y-84295142D01*
X107394285Y-84342761D01*
X107299047Y-84390380D01*
X107013333Y-84390380D01*
X106918095Y-84342761D01*
X106870476Y-84295142D01*
X67818095Y-20128380D02*
X67818095Y-19128380D01*
X67818095Y-19604571D02*
X68389523Y-19604571D01*
X68389523Y-20128380D02*
X68389523Y-19128380D01*
X69294285Y-19461714D02*
X69294285Y-20128380D01*
X69056190Y-19080761D02*
X68818095Y-19795047D01*
X69437142Y-19795047D01*
X101512857Y-74557000D02*
X102512857Y-74557000D01*
X102322380Y-75924380D02*
X101989047Y-75448190D01*
X101750952Y-75924380D02*
X101750952Y-74924380D01*
X102131904Y-74924380D01*
X102227142Y-74972000D01*
X102274761Y-75019619D01*
X102322380Y-75114857D01*
X102322380Y-75257714D01*
X102274761Y-75352952D01*
X102227142Y-75400571D01*
X102131904Y-75448190D01*
X101750952Y-75448190D01*
X102512857Y-74557000D02*
X103465238Y-74557000D01*
X102703333Y-75876761D02*
X102846190Y-75924380D01*
X103084285Y-75924380D01*
X103179523Y-75876761D01*
X103227142Y-75829142D01*
X103274761Y-75733904D01*
X103274761Y-75638666D01*
X103227142Y-75543428D01*
X103179523Y-75495809D01*
X103084285Y-75448190D01*
X102893809Y-75400571D01*
X102798571Y-75352952D01*
X102750952Y-75305333D01*
X102703333Y-75210095D01*
X102703333Y-75114857D01*
X102750952Y-75019619D01*
X102798571Y-74972000D01*
X102893809Y-74924380D01*
X103131904Y-74924380D01*
X103274761Y-74972000D01*
X103465238Y-74557000D02*
X104227142Y-74557000D01*
X103560476Y-74924380D02*
X104131904Y-74924380D01*
X103846190Y-75924380D02*
X103846190Y-74924380D01*
X42053095Y-66018428D02*
X42815000Y-66018428D01*
X42434047Y-66399380D02*
X42434047Y-65637476D01*
X43815000Y-66399380D02*
X43243571Y-66399380D01*
X43529285Y-66399380D02*
X43529285Y-65399380D01*
X43434047Y-65542238D01*
X43338809Y-65637476D01*
X43243571Y-65685095D01*
X44195952Y-65494619D02*
X44243571Y-65447000D01*
X44338809Y-65399380D01*
X44576904Y-65399380D01*
X44672142Y-65447000D01*
X44719761Y-65494619D01*
X44767380Y-65589857D01*
X44767380Y-65685095D01*
X44719761Y-65827952D01*
X44148333Y-66399380D01*
X44767380Y-66399380D01*
X45053095Y-65399380D02*
X45386428Y-66399380D01*
X45719761Y-65399380D01*
X16811904Y-33091428D02*
X17573809Y-33091428D01*
X17192857Y-33472380D02*
X17192857Y-32710476D01*
X18573809Y-33472380D02*
X18002380Y-33472380D01*
X18288095Y-33472380D02*
X18288095Y-32472380D01*
X18192857Y-32615238D01*
X18097619Y-32710476D01*
X18002380Y-32758095D01*
X18907142Y-32472380D02*
X19573809Y-32472380D01*
X19145238Y-33472380D01*
X20145238Y-32472380D02*
X20240476Y-32472380D01*
X20335714Y-32520000D01*
X20383333Y-32567619D01*
X20430952Y-32662857D01*
X20478571Y-32853333D01*
X20478571Y-33091428D01*
X20430952Y-33281904D01*
X20383333Y-33377142D01*
X20335714Y-33424761D01*
X20240476Y-33472380D01*
X20145238Y-33472380D01*
X20050000Y-33424761D01*
X20002380Y-33377142D01*
X19954761Y-33281904D01*
X19907142Y-33091428D01*
X19907142Y-32853333D01*
X19954761Y-32662857D01*
X20002380Y-32567619D01*
X20050000Y-32520000D01*
X20145238Y-32472380D01*
X20764285Y-32472380D02*
X21097619Y-33472380D01*
X21430952Y-32472380D01*
X98298095Y-80780000D02*
X98202857Y-80732380D01*
X98060000Y-80732380D01*
X97917142Y-80780000D01*
X97821904Y-80875238D01*
X97774285Y-80970476D01*
X97726666Y-81160952D01*
X97726666Y-81303809D01*
X97774285Y-81494285D01*
X97821904Y-81589523D01*
X97917142Y-81684761D01*
X98060000Y-81732380D01*
X98155238Y-81732380D01*
X98298095Y-81684761D01*
X98345714Y-81637142D01*
X98345714Y-81303809D01*
X98155238Y-81303809D01*
X98774285Y-81732380D02*
X98774285Y-80732380D01*
X99345714Y-81732380D01*
X99345714Y-80732380D01*
X99821904Y-81732380D02*
X99821904Y-80732380D01*
X100060000Y-80732380D01*
X100202857Y-80780000D01*
X100298095Y-80875238D01*
X100345714Y-80970476D01*
X100393333Y-81160952D01*
X100393333Y-81303809D01*
X100345714Y-81494285D01*
X100298095Y-81589523D01*
X100202857Y-81684761D01*
X100060000Y-81732380D01*
X99821904Y-81732380D01*
X57134285Y-86338428D02*
X57896190Y-86338428D01*
X57515238Y-86719380D02*
X57515238Y-85957476D01*
X58848571Y-85719380D02*
X58372380Y-85719380D01*
X58324761Y-86195571D01*
X58372380Y-86147952D01*
X58467619Y-86100333D01*
X58705714Y-86100333D01*
X58800952Y-86147952D01*
X58848571Y-86195571D01*
X58896190Y-86290809D01*
X58896190Y-86528904D01*
X58848571Y-86624142D01*
X58800952Y-86671761D01*
X58705714Y-86719380D01*
X58467619Y-86719380D01*
X58372380Y-86671761D01*
X58324761Y-86624142D01*
X59181904Y-85719380D02*
X59515238Y-86719380D01*
X59848571Y-85719380D01*
X76128571Y-84843571D02*
X76128571Y-84510238D01*
X76652380Y-84367380D02*
X76652380Y-84843571D01*
X75652380Y-84843571D01*
X75652380Y-84367380D01*
X76604761Y-83986428D02*
X76652380Y-83843571D01*
X76652380Y-83605476D01*
X76604761Y-83510238D01*
X76557142Y-83462619D01*
X76461904Y-83415000D01*
X76366666Y-83415000D01*
X76271428Y-83462619D01*
X76223809Y-83510238D01*
X76176190Y-83605476D01*
X76128571Y-83795952D01*
X76080952Y-83891190D01*
X76033333Y-83938809D01*
X75938095Y-83986428D01*
X75842857Y-83986428D01*
X75747619Y-83938809D01*
X75700000Y-83891190D01*
X75652380Y-83795952D01*
X75652380Y-83557857D01*
X75700000Y-83415000D01*
X76652380Y-82986428D02*
X75652380Y-82986428D01*
X75652380Y-82605476D01*
X75700000Y-82510238D01*
X75747619Y-82462619D01*
X75842857Y-82415000D01*
X75985714Y-82415000D01*
X76080952Y-82462619D01*
X76128571Y-82510238D01*
X76176190Y-82605476D01*
X76176190Y-82986428D01*
X76747619Y-82224523D02*
X76747619Y-81462619D01*
X76652380Y-80653095D02*
X76176190Y-80986428D01*
X76652380Y-81224523D02*
X75652380Y-81224523D01*
X75652380Y-80843571D01*
X75700000Y-80748333D01*
X75747619Y-80700714D01*
X75842857Y-80653095D01*
X75985714Y-80653095D01*
X76080952Y-80700714D01*
X76128571Y-80748333D01*
X76176190Y-80843571D01*
X76176190Y-81224523D01*
X76604761Y-80272142D02*
X76652380Y-80129285D01*
X76652380Y-79891190D01*
X76604761Y-79795952D01*
X76557142Y-79748333D01*
X76461904Y-79700714D01*
X76366666Y-79700714D01*
X76271428Y-79748333D01*
X76223809Y-79795952D01*
X76176190Y-79891190D01*
X76128571Y-80081666D01*
X76080952Y-80176904D01*
X76033333Y-80224523D01*
X75938095Y-80272142D01*
X75842857Y-80272142D01*
X75747619Y-80224523D01*
X75700000Y-80176904D01*
X75652380Y-80081666D01*
X75652380Y-79843571D01*
X75700000Y-79700714D01*
X75652380Y-79415000D02*
X75652380Y-78843571D01*
X76652380Y-79129285D02*
X75652380Y-79129285D01*
X56658095Y-93509428D02*
X57420000Y-93509428D01*
X57039047Y-93890380D02*
X57039047Y-93128476D01*
X57800952Y-92890380D02*
X58420000Y-92890380D01*
X58086666Y-93271333D01*
X58229523Y-93271333D01*
X58324761Y-93318952D01*
X58372380Y-93366571D01*
X58420000Y-93461809D01*
X58420000Y-93699904D01*
X58372380Y-93795142D01*
X58324761Y-93842761D01*
X58229523Y-93890380D01*
X57943809Y-93890380D01*
X57848571Y-93842761D01*
X57800952Y-93795142D01*
X58705714Y-92890380D02*
X59039047Y-93890380D01*
X59372380Y-92890380D01*
X59610476Y-92890380D02*
X60229523Y-92890380D01*
X59896190Y-93271333D01*
X60039047Y-93271333D01*
X60134285Y-93318952D01*
X60181904Y-93366571D01*
X60229523Y-93461809D01*
X60229523Y-93699904D01*
X60181904Y-93795142D01*
X60134285Y-93842761D01*
X60039047Y-93890380D01*
X59753333Y-93890380D01*
X59658095Y-93842761D01*
X59610476Y-93795142D01*
M02*
